<svg width="351" height="388" viewBox="0 0 351 388" fill="none" xmlns="http://www.w3.org/2000/svg">
<path d="M238.129 386.489L188.48 180.42L191.949 172.307L241.133 386.463C241.26 387.011 240.843 387.534 240.278 387.534H239.456C238.828 387.538 238.276 387.104 238.129 386.489Z" fill="#225F6C"/>
<path d="M14.0604 387.538C13.0406 387.538 12.2652 386.624 12.4295 385.617L27.053 296.982H33.3196L15.881 386.042C15.7082 386.911 14.9496 387.538 14.0604 387.538Z" fill="#225F6C"/>
<path d="M154.336 387.538C153.316 387.538 152.541 386.624 152.705 385.617L167.329 296.982H173.596L156.157 386.042C155.988 386.911 155.226 387.538 154.336 387.538Z" fill="#225F6C"/>
<path d="M188.35 297.168H13.7107L49.8901 70.335H224.533L188.35 297.168Z" fill="#F5FBFF"/>
<path d="M201.418 295.44H0.844482V302.111H201.418V295.44Z" fill="#225F6C"/>
<path d="M119.055 117.796C118.924 119.591 118.658 121.357 118.271 123.076C114.63 139.289 100.196 151.708 83.8823 151.738C65.8326 151.767 52.3217 136.625 53.6997 117.91C55.0778 99.1942 70.8223 84.0017 88.872 83.9722C92.6564 83.9638 96.2385 84.6255 99.5299 85.8518C101.009 86.3997 102.433 87.0613 103.786 87.8241C106.707 89.4803 109.307 91.6169 111.503 94.1455C112.725 95.5488 113.82 97.0786 114.773 98.7053C115.329 99.6493 115.835 100.627 116.29 101.634C117.558 104.441 118.435 107.488 118.856 110.703C119.071 112.313 119.164 113.974 119.143 115.664C119.135 116.367 119.105 117.08 119.055 117.796Z" fill="#A1DEF1"/>
<path d="M116.29 101.634L86.3813 117.851C86.3813 117.851 98.7207 96.1177 103.786 87.8198C106.707 89.476 109.307 91.6127 111.503 94.1412C112.725 95.5446 113.82 97.0744 114.773 98.7011C115.329 99.6451 115.835 100.623 116.29 101.634Z" fill="white"/>
<path d="M119.396 97.534L92.0748 112.347C92.0748 112.347 103.348 92.4937 107.975 84.9165C110.643 86.4294 113.02 88.3807 115.021 90.6901C116.138 91.9754 117.137 93.3703 118.009 94.8579C118.519 95.7176 118.979 96.6111 119.396 97.534Z" fill="#FD7253"/>
<path d="M174.443 279.927L30.6984 279.919L45.2502 196.982L188.995 196.99L174.443 279.927ZM31.8615 279.08L173.579 279.088L187.84 197.821L46.1226 197.812L31.8615 279.08Z" fill="#A1DEF1"/>
<path d="M165.871 268.552L38.3851 268.544C38.3851 268.544 60.9989 256.415 67.2023 257.052C73.4057 257.688 82.323 262.598 88.0544 262.787C93.7858 262.977 99.9977 245.766 106.378 246.579C112.758 247.388 115.161 262.614 118.465 261.127C121.769 259.639 131.693 258.994 137.408 261.127C143.122 263.259 151.45 254.35 156.473 254.629C161.501 254.911 165.871 268.552 165.871 268.552Z" fill="#FD7253"/>
<path d="M69.0439 244.177L44.694 244.173L44.9215 242.883H69.2673L69.0439 244.177Z" fill="#FD7253"/>
<path d="M68.5592 246.933H44.2092L44.4368 245.64L68.7868 245.644L68.5592 246.933Z" fill="#FD7253"/>
<path d="M45.6842 226.971L173.17 226.979C173.17 226.979 154.813 214.851 148.386 215.483C141.959 216.119 131.322 221.024 125.523 221.214C119.725 221.404 119.556 204.193 112.889 205.002C106.222 205.811 98.4805 221.037 95.6948 219.549C92.9134 218.062 83.2164 217.417 76.7517 219.549C70.2913 221.682 65.0867 212.773 59.9663 213.051C54.8418 213.329 45.6842 226.971 45.6842 226.971Z" fill="#A1DEF1"/>
<path d="M75.9216 204.972H51.5715L51.7991 203.683H76.1491L75.9216 204.972Z" fill="#A1DEF1"/>
<path d="M75.4369 207.732H51.0869L51.3145 206.438H75.6645L75.4369 207.732Z" fill="#A1DEF1"/>
<path d="M53.9484 185.41H48.3561L53.2151 159.209H58.8075L53.9484 185.41Z" fill="#A1DEF1"/>
<path d="M61.5635 185.41H55.9712L59.7346 165.114H65.3269L61.5635 185.41Z" fill="#A1DEF1"/>
<path d="M69.1829 185.409H63.5906L67.514 164.241H73.1064L69.1829 185.409Z" fill="#A1DEF1"/>
<path d="M76.7981 185.41H71.2058L74.1938 169.312H79.786L76.7981 185.41Z" fill="#A1DEF1"/>
<path d="M84.4175 185.41H78.8252L82.028 168.14H87.6204L84.4175 185.41Z" fill="#A1DEF1"/>
<path d="M92.0326 185.41H86.4403L88.9267 172.017H94.5149L92.0326 185.41Z" fill="#A1DEF1"/>
<path d="M128.747 185.41H123.155L128.014 159.209H133.606L128.747 185.41Z" fill="#FD7253"/>
<path d="M136.363 185.41H130.774L134.538 165.114H140.126L136.363 185.41Z" fill="#FD7253"/>
<path d="M143.982 185.409H138.39L142.313 164.241H147.905L143.982 185.409Z" fill="#FD7253"/>
<path d="M151.597 185.41H146.005L148.993 169.312H154.585L151.597 185.41Z" fill="#FD7253"/>
<path d="M159.216 185.41H153.624L156.827 168.14H162.419L159.216 185.41Z" fill="#FD7253"/>
<path d="M166.832 185.41H161.239L163.726 172.017H169.318L166.832 185.41Z" fill="#FD7253"/>
<path d="M155.668 99.8774H137.467L137.935 97.3867H156.136L155.668 99.8774Z" fill="#A1DEF1"/>
<path d="M177.999 99.8769H157.897L158.369 97.3862H178.467L177.999 99.8769Z" fill="#A1DEF1"/>
<path d="M192.324 99.8769H179.508L179.976 97.3862H192.792L192.324 99.8769Z" fill="#A1DEF1"/>
<path d="M204.284 99.8769H194.397L194.865 97.3862H204.752L204.284 99.8769Z" fill="#A1DEF1"/>
<path d="M153.671 110.518H135.469L135.937 108.023H154.138L153.671 110.518Z" fill="#A1DEF1"/>
<path d="M175.998 110.518H155.9L156.368 108.023H176.47L175.998 110.518Z" fill="#A1DEF1"/>
<path d="M190.326 110.518H177.511L177.978 108.023H190.794L190.326 110.518Z" fill="#A1DEF1"/>
<path d="M202.286 110.518H192.4L192.867 108.023H202.754L202.286 110.518Z" fill="#A1DEF1"/>
<path d="M166.486 94.0613H138.558L139.026 91.5664H166.954L166.486 94.0613Z" fill="#A1DEF1"/>
<path d="M185.244 94.0608H169.145L169.613 91.5659H185.712L185.244 94.0608Z" fill="#A1DEF1"/>
<path d="M205.392 94.0608H187.515L187.983 91.5659H205.86L205.392 94.0608Z" fill="#A1DEF1"/>
<path d="M164.362 105.373H136.434L136.902 102.878H164.83L164.362 105.373Z" fill="#A1DEF1"/>
<path d="M183.12 105.372H167.021L167.489 102.877H183.588L183.12 105.372Z" fill="#A1DEF1"/>
<path d="M203.268 105.372H185.391L185.859 102.877H203.736L203.268 105.372Z" fill="#A1DEF1"/>
<path d="M151.673 121.155H133.472L133.939 118.66H152.141L151.673 121.155Z" fill="#A1DEF1"/>
<path d="M174 121.154H153.902L154.37 118.66H174.468L174 121.154Z" fill="#A1DEF1"/>
<path d="M188.329 121.154H175.513L175.981 118.66H188.796L188.329 121.154Z" fill="#A1DEF1"/>
<path d="M200.289 121.154H190.402L190.87 118.66H200.757L200.289 121.154Z" fill="#A1DEF1"/>
<path d="M162.365 116.01H134.437L134.904 113.519H162.832L162.365 116.01Z" fill="#A1DEF1"/>
<path d="M181.122 116.009H165.024L165.491 113.518H181.59L181.122 116.009Z" fill="#A1DEF1"/>
<path d="M201.266 116.009H183.39L183.862 113.518H201.738L201.266 116.009Z" fill="#A1DEF1"/>
<path d="M149.802 131.13H131.596L132.064 128.635H150.27L149.802 131.13Z" fill="#A1DEF1"/>
<path d="M172.129 131.13H152.031L152.499 128.635H172.597L172.129 131.13Z" fill="#A1DEF1"/>
<path d="M186.453 131.13H173.642L174.11 128.635H186.921L186.453 131.13Z" fill="#A1DEF1"/>
<path d="M198.418 131.13H188.531L188.999 128.635H198.885L198.418 131.13Z" fill="#A1DEF1"/>
<path d="M160.489 125.984H132.565L133.033 123.489H160.957L160.489 125.984Z" fill="#A1DEF1"/>
<path d="M179.247 125.984H163.148L163.62 123.489H179.715L179.247 125.984Z" fill="#A1DEF1"/>
<path d="M199.395 125.984H181.518L181.986 123.489H199.863L199.395 125.984Z" fill="#A1DEF1"/>
<path d="M108.376 163.104H99.4667L99.6984 161.886H108.607L108.376 163.104Z" fill="#A1DEF1"/>
<path d="M119.307 163.104H109.471L109.699 161.886H119.535L119.307 163.104Z" fill="#A1DEF1"/>
<path d="M107.398 168.312H98.489L98.7208 167.09H107.63L107.398 168.312Z" fill="#A1DEF1"/>
<path d="M118.33 168.312H108.494L108.721 167.09H118.557L118.33 168.312Z" fill="#A1DEF1"/>
<path d="M113.673 160.259H100.002L100.234 159.037H113.901L113.673 160.259Z" fill="#A1DEF1"/>
<path d="M122.852 160.259H114.975L115.203 159.037H123.083L122.852 160.259Z" fill="#A1DEF1"/>
<path d="M112.632 165.796H98.9652L99.1928 164.574H112.86L112.632 165.796Z" fill="#A1DEF1"/>
<path d="M121.815 165.796H113.934L114.162 164.574H122.042L121.815 165.796Z" fill="#A1DEF1"/>
<path d="M179.744 163.104H170.835L171.067 161.886H179.976L179.744 163.104Z" fill="#A1DEF1"/>
<path d="M190.676 163.104H180.836L181.067 161.886H190.904L190.676 163.104Z" fill="#A1DEF1"/>
<path d="M178.766 168.312H169.858L170.089 167.09H178.998L178.766 168.312Z" fill="#A1DEF1"/>
<path d="M189.698 168.312H179.858L180.09 167.09H189.926L189.698 168.312Z" fill="#A1DEF1"/>
<path d="M185.042 160.259H171.37L171.602 159.037H185.269L185.042 160.259Z" fill="#A1DEF1"/>
<path d="M194.22 160.259H186.344L186.571 159.037H194.452L194.22 160.259Z" fill="#A1DEF1"/>
<path d="M184.001 165.796H170.33L170.561 164.574H184.228L184.001 165.796Z" fill="#A1DEF1"/>
<path d="M193.183 165.796H185.303L185.53 164.574H193.411L193.183 165.796Z" fill="#A1DEF1"/>
<path d="M227.146 379.175C226.835 383.44 220.817 383.486 213.994 382.694C207.167 381.902 208.983 383.63 199.425 383.765C189.867 383.899 186.572 380.739 186.108 379.373C185.695 378.16 190.301 377.14 195.223 375.943C195.843 375.795 196.467 375.639 197.086 375.479C202.641 374.067 206.315 369.912 211.069 366.284C215.57 362.845 221.373 350.404 221.373 350.404L234.429 349.814C234.429 349.814 228.929 360.965 226.864 365.774C225.65 368.602 226.165 372.078 226.696 374.742C226.974 376.191 227.256 377.675 227.146 379.175Z" fill="#FFB27D"/>
<path d="M213.989 382.694C207.162 381.902 208.978 383.63 199.421 383.764C189.863 383.899 186.567 380.739 186.103 379.373C185.69 378.16 190.297 377.14 195.219 375.943L195.278 376.031C195.278 376.031 201.431 379.335 209.303 378.543C215.717 377.898 222.266 375.222 226.691 374.742C226.973 376.191 227.256 377.675 227.142 379.175C226.83 383.44 220.816 383.486 213.989 382.694Z" fill="white"/>
<path d="M317.323 380.06C317.015 384.325 310.997 384.376 304.17 383.592C297.343 382.808 299.16 384.532 289.602 384.675C280.044 384.818 276.744 381.662 276.28 380.296C275.867 379.083 280.469 378.059 285.392 376.857C286.011 376.71 286.631 376.55 287.254 376.394C292.804 374.978 296.479 370.818 301.225 367.182C305.721 363.738 301.229 343.362 301.229 343.362L315.591 341.963C315.591 341.963 314.904 359.12 314.912 366.924C314.917 370.001 316.333 372.964 316.864 375.627C317.15 377.077 317.433 378.56 317.323 380.06Z" fill="#FFB27D"/>
<path d="M304.17 383.591C297.343 382.808 299.159 384.531 289.601 384.674C280.044 384.818 276.744 381.661 276.28 380.296C275.867 379.082 280.469 378.058 285.391 376.857L285.45 376.946C285.45 376.946 291.607 380.241 299.48 379.445C305.894 378.796 312.439 376.111 316.864 375.626C317.146 377.076 317.432 378.56 317.319 380.06C317.015 384.325 310.997 384.375 304.17 383.591Z" fill="white"/>
<path d="M275.412 27.8488C272.938 17.6798 276.525 12.943 279.757 10.4229C281.291 6.68061 283.04 3.98347 284.831 2.96362C288.097 1.10935 292.008 0.907062 294.743 1.0672C294.039 0.338137 292.653 0.0768626 292.653 0.0768626C294.351 -0.175993 298.135 1.50548 298.135 1.50548C321.735 -7.5889 325.444 27.1577 324.947 35.2322C324.454 43.3026 324.521 52.8099 336.797 59.1693C360.224 71.3063 329.013 117.035 329.013 117.035C329.608 110.512 299.509 76.0853 283.807 65.7772C279.985 60.1512 278.628 50.2055 278.522 49.4259C279.184 57.3108 280.532 61.7315 281.738 64.2221C274.578 57.6395 273.516 41.8191 275.412 27.8488Z" fill="black"/>
<path d="M284.734 66.2955C284.654 66.3292 292.316 70.3075 298.081 68.7313C303.5 67.2521 307.044 60.227 306.968 60.2101C304.672 59.755 304.01 56.5985 304.061 43.0454L303.024 43.2477L285.577 46.7034C285.577 46.7034 285.973 52.1946 285.986 57.3655C285.99 61.7146 285.729 65.8319 284.734 66.2955Z" fill="#FFB27D"/>
<path d="M285.568 46.7077C285.568 46.7077 285.965 52.1988 285.977 57.3697C295.742 57.0958 300.9 48.1869 303.016 43.252L285.568 46.7077Z" fill="#ED975D"/>
<path d="M214.579 357.315C213.724 359.996 215.645 362.76 218.46 362.891L225.275 363.211L232.486 363.43C234.289 363.485 236.013 362.697 237.155 361.298C242.912 354.235 260.633 330.698 271.379 296.499C271.682 295.539 271.999 294.569 272.34 293.587C279.437 272.887 294.153 246.906 301.911 223.39C303.146 219.644 304.255 216.121 305.249 212.783C305.565 211.713 305.877 210.663 306.172 209.631C311.887 189.773 313.543 176.734 315.068 162.806L259.069 163.253C259.069 163.253 247.278 254.884 214.579 357.315Z" fill="#19515E"/>
<path d="M266.908 131.073C267.047 157.72 262.997 169.153 262.997 169.153C262.997 169.153 286.972 181.336 315.469 172.368C315.806 172.263 335.857 166.586 335.857 166.586C335.381 165.508 331.42 147.677 330.952 146.687C324.934 133.766 323.295 128.342 322.582 124.368C321.259 116.951 321.23 109.281 321.891 102.041C323.632 82.8827 328.803 66.9823 328.803 66.9823C321.04 65.2165 313.766 62.1106 305.683 59.0806C303.825 61.3942 298.144 63.8174 293.213 63.7078C287.537 63.5814 285.695 61.154 285.99 58.499C279.942 61.8662 275.113 65.0438 275.113 65.0438C269.972 73.9738 259.546 82.6467 258.791 96.3431C258.606 99.7145 266.904 130.327 266.908 131.073Z" fill="white"/>
<path d="M315.068 134.044C317.517 137.508 322.211 158.567 333.885 161.213C327.867 146.206 323.299 139.624 322.587 135.009C321.263 126.395 321.234 117.482 321.895 109.074C317.989 102.222 315.068 97.5273 315.068 97.5273C314.761 96.419 308.856 78.1628 306.964 94.4804C305.076 110.806 312.333 130.171 315.068 134.044Z" fill="#5F9AA8"/>
<path d="M282.311 51.6047C282.311 51.6047 305.413 51.9839 305.426 37.5964C305.443 23.209 308.435 13.5667 293.685 12.7154C278.935 11.8642 276.065 17.3511 274.89 22.1512C273.718 26.9512 276.301 51.1327 282.311 51.6047Z" fill="#FFB27D"/>
<path d="M283.166 12.3613C283.166 12.3613 289.492 29.2437 299.197 31.7385C308.903 34.2334 313.113 31.6332 313.113 31.6332C313.113 31.6332 305.666 25.7205 304.124 15.3956C304.124 15.3956 287.937 4.32473 283.166 12.3613Z" fill="black"/>
<path d="M284.734 13.7308C284.734 13.7308 280.01 17.4984 278.859 21.1648C277.709 24.827 277.191 32.3705 274.991 32.1176C274.991 32.1176 270.224 20.6422 275.581 14.1522C281.257 7.26612 284.734 13.7308 284.734 13.7308Z" fill="black"/>
<path d="M245.963 149.569L235.052 182.837L241.272 185.332L259.314 155.941L245.963 149.569Z" fill="#FFB27D"/>
<path d="M275.378 63.0884C275.378 63.0884 262.512 68.1919 258.791 76.1526C255.066 84.1133 249.431 137.5 247.185 142.982C244.939 148.465 243.253 152.806 243.253 152.806C243.253 152.806 249.739 158.272 256.263 158.672C262.782 159.077 275.378 63.0884 275.378 63.0884Z" fill="#FD7253"/>
<path d="M285.99 58.5034C285.99 58.5034 272.627 91.5222 272.23 98.2018C271.838 104.886 270.658 207.473 270.658 207.473C270.658 207.473 271.446 212.189 262.403 210.225C253.363 208.262 251.003 206.293 251.003 206.293C251.003 206.293 259.651 143.012 257.291 121.001C254.931 98.9898 275.37 63.0885 275.37 63.0885L285.99 58.5034Z" fill="#FD7253"/>
<path d="M225.275 363.211L233.105 363.452C234.504 363.494 235.844 362.891 236.738 361.812C242.001 355.44 260.359 331.575 271.383 296.504C271.687 295.543 272.003 294.574 272.344 293.592C279.441 272.891 294.157 246.91 301.916 223.395C303.15 219.648 304.259 216.125 305.253 212.787C305.569 211.717 305.881 210.668 306.176 209.635L297.929 203.377C297.929 203.377 273.17 243.467 265.504 281.198C258.842 313.968 232.178 353.4 225.275 363.211Z" fill="#225F6C"/>
<path d="M297.065 284.708C296.93 302.066 297.752 340.753 299.868 359.667C300.061 361.399 301.524 362.705 303.268 362.705H309.109C311.57 362.705 313.416 362.689 314.639 362.672C315.696 362.655 316.602 361.896 316.805 360.855C322.616 331.288 326.776 306.723 329.818 285.496C332.364 267.729 334.631 252.498 336.371 239.388C338.125 226.193 339.342 215.143 339.781 205.808C339.848 204.338 339.899 202.909 339.924 201.518C339.954 200.123 339.958 198.766 339.949 197.452L291.565 192.736C292.172 224.878 297.145 274.042 297.065 284.708Z" fill="#19515E"/>
<path d="M309.109 362.701C311.322 362.701 313.033 362.689 314.247 362.672C315.532 362.655 316.636 361.732 316.88 360.472C322.654 331.073 326.788 306.631 329.818 285.496C332.364 267.729 334.631 252.498 336.371 239.388C338.125 226.193 339.343 215.143 339.781 205.809L322.026 216.252C322.026 216.252 333.358 220.251 329.034 250.514C324.711 280.776 315.127 358.42 309.109 362.701Z" fill="#225F6C"/>
<path d="M306.821 205.505C306.821 205.505 310.23 217.82 322.022 216.248C333.813 214.676 350.582 207.6 350.582 207.6C350.582 207.6 345.542 191.679 339.275 170.759C331.689 145.435 322.3 112.787 317.875 92.1924C316.632 86.4231 315.785 81.6019 315.469 78.1505L305.687 59.1694C305.687 59.1694 291.102 91.9058 290.314 100.162C289.53 108.422 306.821 205.505 306.821 205.505Z" fill="#FD7253"/>
<path d="M318.596 98.9349L305.683 59.1733C305.717 59.1902 321.992 64.0155 330.176 68.1497C330.176 68.1497 335.293 74.745 338.457 89.9627C338.457 89.9627 341.804 126.5 334.336 139.864C334.336 139.864 310.753 144.58 273.018 131.608V122.96C273.018 122.96 314.289 125.122 322.743 126.104L318.596 98.9349Z" fill="#FFB27D"/>
<path d="M307.344 117.461C307.87 130.825 311.014 156.768 339.052 170.654C339.128 170.687 339.199 170.729 339.275 170.759C331.689 145.435 322.3 112.787 317.875 92.1924C312.725 99.8918 307.057 110.103 307.344 117.461Z" fill="#FCA495"/>
<path d="M305.687 59.1733C305.687 59.1733 329.62 60.859 335.385 73.6999C341.15 86.5408 342.984 129.252 335.647 141.832C335.647 141.832 325.545 144.71 307.681 141.368C307.462 141.326 307.242 141.284 307.019 141.242C307.019 141.242 301.321 127.288 306.429 124.537C306.429 124.537 321.495 125.325 319.923 120.343C318.351 115.362 305.687 59.1733 305.687 59.1733Z" fill="#FD7253"/>
<path d="M245.676 128.309L246.38 130.576L285.653 118.359C285.653 118.359 286.175 117.76 285.918 116.968C285.632 116.091 284.949 116.091 284.949 116.091L245.676 128.309Z" fill="#A9453D"/>
<path d="M242.836 130.449L245.676 128.309L246.38 130.572L242.836 130.449Z" fill="#A9453D"/>
<path d="M236.603 181.927C236.603 181.927 226.64 187.431 225.33 191.628C224.019 195.825 224.921 204.608 226.501 204.477C228.082 204.347 230.442 195.037 231.752 194.384C233.063 193.727 234.9 191.763 234.9 193.204C234.9 194.645 233.59 197.267 234.243 197.663C234.9 198.055 236.995 193.992 238.436 193.204C239.877 192.416 240.484 185.935 241.883 184.194C243.283 182.454 236.603 181.927 236.603 181.927Z" fill="#FFB27D"/>
<path d="M273.019 122.965C273.019 122.965 264.11 117.478 260.372 118.321C256.633 119.164 247.109 126.063 251.69 127.559C256.271 129.055 259.984 127.487 261.745 128.57C263.507 129.657 264.809 131.638 273.019 131.613C281.228 131.587 273.019 122.965 273.019 122.965Z" fill="#FFB27D"/>
</svg>
