<svg width="579" height="314" viewBox="0 0 579 314" fill="none" xmlns="http://www.w3.org/2000/svg">
<path d="M336.888 311.928H336.985C337.555 311.928 338.01 311.459 337.999 310.892L336.463 244.319L331.939 243.792L335.798 310.895C335.826 311.473 336.307 311.928 336.888 311.928Z" fill="#79BDD2"/>
<path d="M363.25 311.928H363.348C363.918 311.928 364.373 311.459 364.362 310.892L362.826 244.319L358.302 243.792L362.161 310.895C362.192 311.473 362.672 311.928 363.25 311.928Z" fill="#B7D3F3"/>
<path d="M290.498 311.928H290.401C289.831 311.928 289.376 311.459 289.387 310.892L290.923 244.319L295.446 243.792L291.587 310.895C291.559 311.473 291.079 311.928 290.498 311.928Z" fill="#79BDD2"/>
<path d="M366.249 240.189V194.57C366.249 186.542 359.743 180.036 351.715 180.036H318.849C310.821 180.036 304.315 186.542 304.315 194.57V241.932L366.249 240.189Z" fill="#79BDD2"/>
<path d="M298.426 247.391H361.885C364.295 247.391 366.249 245.436 366.249 243.026V240.189H298.426V247.391Z" fill="#B7D3F3"/>
<path d="M290.822 247.391H338.831C340.613 247.391 342.059 245.947 342.059 244.163V243.414C342.059 241.633 340.615 240.187 338.831 240.187H290.822C289.04 240.187 287.594 241.63 287.594 243.414V244.163C287.594 245.947 289.04 247.391 290.822 247.391Z" fill="#CAE5FF"/>
<path d="M401.447 0.09375H211.977V163.653H401.447V0.09375Z" fill="#B7D3F3"/>
<path d="M397.764 2.81909H215.585V160.392H397.764V2.81909Z" fill="#DFEDFB"/>
<path d="M279.259 71.3772H239.336V21.5281L246.108 15.4268H279.259V71.3772Z" fill="white"/>
<path d="M239.336 21.5281H245.89L246.108 15.4268L239.336 21.5281Z" fill="#79BDD2"/>
<path d="M265.688 20.2769H252.907V20.8856H265.688V20.2769Z" fill="#79BDD2"/>
<path d="M268.698 22.1033H249.897V22.712H268.698V22.1033Z" fill="#79BDD2"/>
<path d="M275.28 33.8311H244.064V34.6129H275.28V33.8311Z" fill="#79BDD2"/>
<path d="M275.28 36.2075H244.064V36.9894H275.28V36.2075Z" fill="#79BDD2"/>
<path d="M275.28 38.5864H244.064V39.3683H275.28V38.5864Z" fill="#79BDD2"/>
<path d="M275.28 40.9629H244.064V41.7447H275.28V40.9629Z" fill="#79BDD2"/>
<path d="M275.28 66.3955H244.064V67.1774H275.28V66.3955Z" fill="#79BDD2"/>
<path d="M325.352 140.538H285.433V90.6892L292.201 84.5879H325.352V140.538Z" fill="white"/>
<path d="M285.433 90.6892H291.984L292.201 84.5879L285.433 90.6892Z" fill="#79BDD2"/>
<path d="M311.784 89.438H299.001V90.0467H311.784V89.438Z" fill="#79BDD2"/>
<path d="M314.794 91.2642H295.993V91.8729H314.794V91.2642Z" fill="#79BDD2"/>
<path d="M321.376 102.992H290.16V103.774H321.376V102.992Z" fill="#79BDD2"/>
<path d="M321.376 105.369H290.16V106.151H321.376V105.369Z" fill="#79BDD2"/>
<path d="M321.376 107.745H290.16V108.526H321.376V107.745Z" fill="#79BDD2"/>
<path d="M321.376 110.124H290.16V110.906H321.376V110.124Z" fill="#79BDD2"/>
<path d="M321.376 117.437H290.16V118.219H321.376V117.437Z" fill="#79BDD2"/>
<path d="M321.376 119.813H290.16V120.595H321.376V119.813Z" fill="#79BDD2"/>
<path d="M321.376 122.569H290.16V123.351H321.376V122.569Z" fill="#79BDD2"/>
<path d="M347.881 15.4268H325.838V34.8616H347.881V15.4268Z" fill="#79BDD2"/>
<path d="M335.894 17.7386C335.894 17.2053 336.326 16.7725 336.86 16.7725C337.393 16.7725 337.826 17.2053 337.826 17.7386C337.826 18.2719 337.393 18.7048 336.86 18.7048C336.326 18.7048 335.894 18.2719 335.894 17.7386Z" fill="#FFA412"/>
<path d="M347.184 40.9944L325.194 42.5286L326.547 61.9167L348.537 60.3826L347.184 40.9944Z" fill="white"/>
<path d="M335.466 45.3105C335.43 44.78 335.829 44.3164 336.362 44.2801C336.893 44.2438 337.357 44.6431 337.393 45.1765C337.429 45.7098 337.03 46.1705 336.497 46.2068C335.963 46.2431 335.502 45.8438 335.466 45.3105Z" fill="#79BDD2"/>
<path d="M273.927 112.589L251.938 114.123L253.29 133.511L275.28 131.977L273.927 112.589Z" fill="white"/>
<path d="M262.214 116.907C262.178 116.376 262.577 115.913 263.111 115.876C263.641 115.84 264.105 116.239 264.141 116.773C264.177 117.303 263.778 117.767 263.245 117.803C262.711 117.839 262.251 117.44 262.214 116.907Z" fill="#79BDD2"/>
<path d="M246.249 126.476L224.208 126.703L224.409 146.136L246.449 145.909L246.249 126.476Z" fill="white"/>
<path d="M234.308 130.151C234.302 129.617 234.729 129.182 235.263 129.176C235.796 129.17 236.232 129.598 236.237 130.131C236.243 130.664 235.816 131.1 235.282 131.106C234.749 131.111 234.313 130.684 234.308 130.151Z" fill="#79BDD2"/>
<path d="M380.556 56.5654L358.857 52.688L355.438 71.8196L377.137 75.697L380.556 56.5654Z" fill="#EEF6FF"/>
<path d="M368.413 57.0886C368.494 56.6334 368.93 56.329 369.388 56.41C369.846 56.491 370.147 56.9266 370.066 57.3846C369.986 57.8397 369.55 58.1441 369.092 58.0631C368.634 57.9793 368.332 57.5437 368.413 57.0886Z" fill="#78ACEA"/>
<path d="M312.839 40.5821L290.924 42.9539L293.016 62.2759L314.931 59.9042L312.839 40.5821Z" fill="#EEF6FF"/>
<path d="M301.327 44.4757C301.277 44.0149 301.609 43.6017 302.073 43.5514C302.533 43.5012 302.947 43.8335 302.997 44.2942C303.047 44.7549 302.715 45.1682 302.254 45.2185C301.793 45.2687 301.377 44.9364 301.327 44.4757Z" fill="#78ACEA"/>
<path d="M255.601 86.5332L234.043 91.1292L238.095 110.136L259.653 105.54L255.601 86.5332Z" fill="#BAE8E3"/>
<path d="M244.929 92.0879C244.541 91.8366 244.43 91.3172 244.681 90.9263C244.932 90.5382 245.452 90.4265 245.843 90.6778C246.231 90.9291 246.342 91.4485 246.091 91.8394C245.84 92.2303 245.318 92.342 244.929 92.0879Z" fill="#FFA412"/>
<path d="M313.415 34.8588H292.433V20.763L298.244 15.4268H313.415V34.8588Z" fill="white"/>
<path d="M292.322 20.763H298.051L298.244 15.4268L292.322 20.763Z" fill="#79BDD2"/>
<path d="M303.002 17.2251C303.002 16.8454 303.312 16.5354 303.692 16.5354C304.072 16.5354 304.382 16.8454 304.382 17.2251C304.382 17.6049 304.072 17.9148 303.692 17.9148C303.312 17.9148 303.002 17.6049 303.002 17.2251Z" fill="#79BDD2"/>
<path d="M374.716 150.256H353.737V136.157L359.545 130.821H374.716V150.256Z" fill="white"/>
<path d="M353.625 136.157H359.355L359.545 130.821L353.625 136.157Z" fill="#79BDD2"/>
<path d="M364.303 132.619C364.303 132.239 364.613 131.929 364.993 131.929C365.375 131.929 365.682 132.239 365.682 132.619C365.682 132.999 365.372 133.309 364.993 133.309C364.613 133.309 364.303 132.999 364.303 132.619Z" fill="#79BDD2"/>
<path d="M384.288 122.279H363.306V108.183L369.114 102.844H384.288V122.279Z" fill="white"/>
<path d="M363.194 108.183H368.924L369.114 102.844L363.194 108.183Z" fill="#79BDD2"/>
<path d="M373.875 104.642C373.875 104.263 374.185 103.953 374.565 103.953C374.945 103.953 375.255 104.263 375.255 104.642C375.255 105.022 374.945 105.332 374.565 105.332C374.185 105.332 373.875 105.025 373.875 104.642Z" fill="#79BDD2"/>
<path d="M356.599 122.279H335.62V108.183L341.428 102.844H356.599V122.279Z" fill="#BAE8E3"/>
<path d="M335.508 108.183H341.238L341.428 102.844L335.508 108.183Z" fill="#A1D6CE"/>
<path d="M346.186 104.642C346.186 104.263 346.496 103.953 346.876 103.953C347.256 103.953 347.566 104.263 347.566 104.642C347.566 105.022 347.256 105.332 346.876 105.332C346.496 105.332 346.186 105.025 346.186 104.642Z" fill="#FD7253"/>
<path d="M390.208 29.9945H369.229V15.8987L375.037 10.5625H390.208V29.9945Z" fill="#BAE8E3"/>
<path d="M369.114 15.8987H374.847L375.037 10.5625L369.114 15.8987Z" fill="#A1D6CE"/>
<path d="M379.795 12.3577C379.795 11.9779 380.105 11.668 380.485 11.668C380.865 11.668 381.174 11.9779 381.174 12.3577C381.174 12.7375 380.865 13.0474 380.485 13.0474C380.105 13.0474 379.795 12.7402 379.795 12.3577Z" fill="#FD7253"/>
<path d="M428.416 309.546C428.226 312.137 424.568 312.165 420.418 311.685C416.269 311.204 417.372 312.254 411.561 312.335C405.75 312.416 403.748 310.495 403.466 309.666C403.215 308.929 406.012 308.309 409.006 307.58C409.383 307.491 409.76 307.396 410.137 307.298C413.513 306.441 415.747 303.914 418.637 301.708C421.373 299.619 424.9 292.054 424.9 292.054L432.836 291.697C432.836 291.697 429.493 298.477 428.237 301.398C427.5 303.118 427.812 305.229 428.134 306.851C428.312 307.731 428.483 308.633 428.416 309.546Z" fill="#FFB27D"/>
<path d="M420.418 311.682C416.269 311.202 417.372 312.252 411.561 312.333C405.75 312.414 403.748 310.493 403.466 309.663C403.215 308.926 406.012 308.306 409.006 307.577L409.042 307.633C409.042 307.633 412.784 309.641 417.567 309.161C421.468 308.77 425.447 307.142 428.136 306.851C428.309 307.734 428.48 308.636 428.41 309.549C428.226 312.137 424.568 312.165 420.418 311.682Z" fill="#255F6B"/>
<path d="M483.232 310.082C483.045 312.673 479.387 312.707 475.238 312.229C471.088 311.752 472.191 312.802 466.383 312.888C460.572 312.975 458.568 311.057 458.286 310.227C458.034 309.49 460.832 308.867 463.826 308.136C464.203 308.044 464.58 307.949 464.956 307.854C468.332 306.994 470.564 304.464 473.451 302.255C476.185 300.164 473.454 287.774 473.454 287.774L482.183 286.925C482.183 286.925 481.764 297.354 481.769 302.096C481.772 303.967 482.632 305.765 482.956 307.387C483.126 308.267 483.299 309.169 483.232 310.082Z" fill="#FFB27D"/>
<path d="M475.238 312.23C471.088 311.752 472.191 312.802 466.383 312.889C460.572 312.975 458.567 311.057 458.285 310.227C458.034 309.49 460.832 308.868 463.825 308.136L463.862 308.192C463.862 308.192 467.603 310.197 472.39 309.711C476.288 309.317 480.267 307.684 482.956 307.39C483.129 308.273 483.302 309.172 483.232 310.085C483.042 312.674 479.387 312.707 475.238 312.23Z" fill="#255F6B"/>
<path d="M457.755 95.9835C456.253 89.8012 458.431 86.9251 460.397 85.3921C461.329 83.1163 462.393 81.4772 463.479 80.8601C465.465 79.732 467.841 79.6091 469.505 79.7068C469.078 79.2656 468.235 79.1037 468.235 79.1037C469.265 78.9501 471.569 79.9721 471.569 79.9721C485.913 74.446 488.169 95.5674 487.868 100.474C487.569 105.38 487.608 111.16 495.072 115.025C509.313 122.402 490.339 150.2 490.339 150.2C490.702 146.235 472.404 125.309 462.859 119.043C460.536 115.622 459.71 109.579 459.648 109.102C460.05 113.894 460.868 116.583 461.603 118.096C457.247 114.092 456.602 104.478 457.755 95.9835Z" fill="#A9453D"/>
<path d="M463.421 119.356C463.373 119.378 468.031 121.796 471.532 120.838C474.827 119.939 476.98 115.667 476.936 115.658C475.539 115.382 475.137 113.464 475.168 105.223L474.537 105.346L463.932 107.446C463.932 107.446 464.172 110.783 464.18 113.927C464.186 116.569 464.027 119.073 463.421 119.356Z" fill="#FFB27D"/>
<path d="M463.929 107.446C463.929 107.446 464.169 110.783 464.177 113.927C470.111 113.76 473.25 108.345 474.534 105.344L463.929 107.446Z" fill="#ED975D"/>
<path d="M420.779 296.257C420.259 297.888 421.426 299.566 423.138 299.647L427.282 299.84L431.666 299.974C432.763 300.007 433.811 299.53 434.503 298.678C438.002 294.386 448.775 280.075 455.309 259.286C455.493 258.703 455.686 258.113 455.892 257.516C460.207 244.934 469.153 229.14 473.867 214.846C474.618 212.57 475.291 210.426 475.894 208.398C476.087 207.748 476.277 207.111 476.455 206.483C479.929 194.411 480.934 186.487 481.861 178.02L447.82 178.294C447.82 178.291 440.655 233.993 420.779 296.257Z" fill="#197589"/>
<path d="M452.586 158.731C452.673 174.929 450.21 181.879 450.21 181.879C450.21 181.879 464.786 189.285 482.107 183.834C482.311 183.77 496.449 180.542 496.449 180.542C496.158 179.886 493.581 168.97 493.299 168.367C489.641 160.512 486.865 157.069 486.43 154.654C485.625 150.147 485.606 145.481 486.008 141.083C487.063 129.439 490.208 119.772 490.208 119.772C485.489 118.697 481.068 116.812 476.157 114.969C475.026 116.376 471.571 117.848 468.575 117.781C465.124 117.705 464.007 116.228 464.186 114.614C460.508 116.661 457.573 118.593 457.573 118.593C454.449 124.022 448.11 129.294 447.652 137.62C447.54 139.67 452.583 158.278 452.586 158.731Z" fill="white"/>
<path d="M481.861 160.537C483.35 162.643 486.203 175.443 493.299 177.054C489.641 167.931 486.865 163.93 486.43 161.126C485.625 155.891 485.606 150.474 486.008 145.364C483.632 141.2 481.859 138.344 481.859 138.344C481.671 137.671 478.083 126.571 476.933 136.492C475.788 146.414 480.197 158.181 481.861 160.537Z" fill="#5F9AA8"/>
<path d="M461.949 110.423C461.949 110.423 475.992 110.655 476 101.906C476.009 93.1605 477.829 87.2993 468.863 86.7799C459.897 86.2633 458.151 89.5974 457.439 92.5154C456.725 95.439 458.297 110.138 461.949 110.423Z" fill="#FFB27D"/>
<path d="M462.468 86.5677C462.468 86.5677 466.314 96.8296 472.214 98.3459C478.114 99.8621 480.675 98.2816 480.675 98.2816C480.675 98.2816 476.148 94.6851 475.21 88.4107C475.207 88.4135 465.367 81.6839 462.468 86.5677Z" fill="#A9453D"/>
<path d="M463.421 87.4027C463.421 87.4027 460.55 89.6953 459.849 91.9208C459.148 94.1491 458.836 98.7341 457.498 98.5777C457.498 98.5777 454.602 91.6024 457.855 87.6568C461.307 83.4739 463.421 87.4027 463.421 87.4027Z" fill="#A9453D"/>
<path d="M439.853 169.976L433.221 190.195L437.002 191.711L447.97 173.846L439.853 169.976Z" fill="#FFB27D"/>
<path d="M457.735 117.404C457.735 117.404 449.914 120.506 447.652 125.345C445.387 130.184 441.961 162.637 440.596 165.969C439.23 169.3 438.206 171.939 438.206 171.939C438.206 171.939 442.148 175.261 446.113 175.504C450.079 175.747 457.735 117.404 457.735 117.404Z" fill="#FD7253"/>
<path d="M464.186 114.617C464.186 114.617 456.063 134.689 455.823 138.749C455.582 142.812 454.868 205.171 454.868 205.171C454.868 205.171 455.345 208.038 449.85 206.843C444.354 205.648 442.922 204.453 442.922 204.453C442.922 204.453 448.177 165.985 446.745 152.604C445.312 139.223 457.735 117.401 457.735 117.401L464.186 114.617Z" fill="#FD7253"/>
<path d="M427.279 299.84L432.04 299.985C432.892 300.01 433.704 299.644 434.249 298.988C437.449 295.112 448.607 280.609 455.309 259.289C455.493 258.705 455.686 258.116 455.892 257.519C460.207 244.936 469.153 229.143 473.867 214.849C474.618 212.573 475.291 210.428 475.894 208.401C476.087 207.75 476.277 207.114 476.455 206.486L471.443 202.682C471.443 202.682 456.392 227.054 451.735 249.988C447.683 269.906 431.473 293.878 427.279 299.84Z" fill="#255F6B"/>
<path d="M470.918 252.121C470.837 262.673 471.337 286.191 472.621 297.687C472.739 298.74 473.63 299.533 474.688 299.533H478.24C479.736 299.533 480.856 299.521 481.602 299.51C482.247 299.502 482.797 299.038 482.92 298.407C486.452 280.433 488.979 265.502 490.83 252.599C492.377 241.798 493.754 232.541 494.812 224.569C495.879 216.549 496.619 209.831 496.884 204.157C496.926 203.263 496.957 202.395 496.974 201.552C496.99 200.703 496.996 199.879 496.988 199.077L467.576 196.21C467.941 215.753 470.966 245.637 470.918 252.121Z" fill="#197589"/>
<path d="M478.237 299.533C479.583 299.533 480.622 299.524 481.359 299.513C482.141 299.502 482.811 298.943 482.962 298.175C486.469 280.304 488.985 265.446 490.828 252.599C492.375 241.798 493.751 232.541 494.809 224.569C495.876 216.549 496.616 209.831 496.881 204.157L486.089 210.507C486.089 210.507 492.978 212.936 490.35 231.335C487.72 249.731 481.895 296.927 478.237 299.533Z" fill="#255F6B"/>
<path d="M476.849 203.978C476.849 203.978 478.921 211.464 486.089 210.506C493.257 209.551 503.449 205.251 503.449 205.251C503.449 205.251 500.386 195.573 496.577 182.857C491.967 167.462 486.256 147.617 483.567 135.099C482.813 131.592 482.297 128.662 482.104 126.565L476.156 115.027C476.156 115.027 467.291 134.928 466.813 139.946C466.336 144.964 476.849 203.978 476.849 203.978Z" fill="#FD7253"/>
<path d="M484.006 139.195L476.156 115.025C476.179 115.036 486.069 117.968 491.045 120.481C491.045 120.481 494.156 124.491 496.08 133.742C496.08 133.742 498.113 155.952 493.572 164.075C493.572 164.075 479.236 166.943 456.3 159.057V153.802C456.3 153.802 481.387 155.117 486.525 155.712L484.006 139.195Z" fill="#FFB27D"/>
<path d="M477.167 150.457C477.488 158.58 479.398 174.351 496.443 182.792C496.488 182.815 496.532 182.837 496.58 182.857C491.97 167.462 486.259 147.617 483.57 135.099C480.437 139.776 476.991 145.983 477.167 150.457Z" fill="#ED7D2B"/>
<path d="M476.157 115.025C476.157 115.025 490.705 116.049 494.209 123.854C497.714 131.659 498.828 157.622 494.368 165.268C494.368 165.268 488.228 167.016 477.369 164.986C477.235 164.96 477.101 164.935 476.966 164.91C476.966 164.91 473.501 156.427 476.609 154.754C476.609 154.754 485.768 155.232 484.813 152.205C483.858 149.181 476.157 115.025 476.157 115.025Z" fill="#FD7253"/>
<path d="M439.68 157.05L440.11 158.426L463.985 150.999C463.985 150.999 464.303 150.636 464.147 150.155C463.973 149.622 463.557 149.622 463.557 149.622L439.68 157.05Z" fill="#A9453D"/>
<path d="M437.951 158.351L439.68 157.05L440.107 158.426L437.951 158.351Z" fill="#A9453D"/>
<path d="M434.162 189.642C434.162 189.642 428.106 192.99 427.31 195.54C426.514 198.089 427.061 203.428 428.022 203.35C428.982 203.269 430.418 197.611 431.214 197.215C432.009 196.818 433.126 195.623 433.126 196.497C433.126 197.371 432.33 198.966 432.727 199.206C433.123 199.446 434.4 196.975 435.276 196.497C436.153 196.02 436.522 192.077 437.373 191.021C438.228 189.96 434.162 189.642 434.162 189.642Z" fill="#FFB27D"/>
<path d="M456.3 153.802C456.3 153.802 450.883 150.465 448.613 150.979C446.34 151.493 440.551 155.687 443.335 156.595C446.119 157.502 448.375 156.55 449.448 157.209C450.52 157.868 451.31 159.074 456.3 159.057C461.293 159.041 456.3 153.802 456.3 153.802Z" fill="#FFB27D"/>
<path d="M30.3564 117.965C29.4489 116.214 50.1654 109.909 50.4921 127.191C50.4921 127.191 89.3003 126.236 70.7702 104.606C64.3562 97.1172 65.0152 90.9266 65.2079 85.1631C65.4033 79.3997 61.212 62.6484 46.8481 64.3349C46.8481 64.3349 43.0868 62.8047 38.3928 65.2397C27.7148 70.7769 3.79829 124.337 30.3564 117.965Z" fill="#163560"/>
<path d="M93.8018 137.285C93.8018 137.285 96.3288 133.44 98.3645 133.365C100.4 133.289 104.17 132.234 103.868 132.988C103.567 133.742 101.229 133.817 101.003 134.27C100.777 134.722 104.471 135.401 105.527 135.476C106.582 135.551 109.07 135.476 108.995 136.004C108.92 136.531 104.51 138.718 101.4 138.416C98.2891 138.115 94.444 139.321 94.444 139.321L93.8018 137.285Z" fill="#FFB27D"/>
<path d="M57.2693 138.531C57.2693 138.531 58.6431 141.251 61.1339 144.372C64.1357 148.131 68.7626 152.476 74.5763 153.333C77.3519 153.744 80.0661 153.146 82.5625 152.037C82.5681 152.035 82.5709 152.035 82.5709 152.035C89.6271 148.902 94.9354 141.697 94.9354 141.697C96.1808 138.305 94.1452 136.004 94.1452 136.004C94.1452 136.004 79.893 139.209 78.5359 138.531C77.1788 137.852 69.2625 115.044 67.3776 112.177C65.49 109.312 59.0676 107.823 59.0676 107.823L57.2693 138.531Z" fill="#B7D3F3"/>
<path d="M61.1312 144.372C64.1329 148.131 68.7599 152.476 74.5736 153.333C77.3492 153.743 80.0633 153.146 82.5597 152.037C82.2833 152.074 75.2354 152.945 72.4263 147.919C69.5613 142.789 66.4618 134.647 62.2034 137.361C60.3661 138.531 60.447 141.443 61.1312 144.372Z" fill="#B7D3F3"/>
<path d="M4.09994 292.362C4.09994 292.362 -0.247774 296.329 0.601103 299.15C1.44998 301.97 5.37326 303.849 5.90381 307.295C6.43435 310.741 8.55653 312.62 10.4637 312.62C12.3709 312.62 19.5668 312.62 19.5668 312.62C19.5668 312.62 20.9714 310.194 17.5787 309.465C14.1859 308.733 12.9042 304.684 13.1165 300.923C13.3287 297.164 12.7981 292.149 12.7981 292.149L5.58547 290.479L4.09994 292.362Z" fill="#255F6B"/>
<path d="M40.9061 294.048C40.9061 294.048 39.3424 310.861 41.2496 311.799L65.6827 311.749C65.6827 311.749 65.6827 308.929 61.7595 308.303C57.8362 307.678 50.9419 305.38 49.7747 300.261C48.6075 295.143 40.9061 294.048 40.9061 294.048Z" fill="#255F6B"/>
<path d="M23.4956 173.435C28.5246 162.16 31.599 158.923 31.0126 155.424C30.5742 152.819 32.3445 106.86 32.3445 106.86C32.9421 106.675 34.1372 106.511 34.7906 106.366C36.8542 105.908 38.5603 104.458 39.2696 102.47C40.124 100.074 40.8054 96.5336 40.7886 92.0994L41.4337 92.225L52.2624 94.3696C52.2624 94.3696 52.0167 97.7762 52.0083 100.987C52.0083 101.015 52.0083 101.04 52.0083 101.068C51.9944 103.858 53.8233 106.318 56.504 107.092C57.8723 107.485 59.0618 107.823 59.0618 107.823C59.0618 107.823 63.0381 119.177 63.7976 130.838C64.5572 142.501 56.5654 147.567 63.8591 170.872C71.3007 194.677 20.7172 179.665 23.4956 173.435Z" fill="#FFB27D"/>
<path d="M52.2626 94.3696C52.2626 94.3696 52.0169 97.7763 52.0085 100.988C45.9491 100.817 42.7462 95.2883 41.4338 92.2251L52.2626 94.3696Z" fill="#E8945B"/>
<path d="M54.2868 97.4078C54.2868 97.4078 39.9481 97.6452 39.9397 88.7124C39.9285 79.7825 38.0716 73.7985 47.225 73.2679C56.3783 72.7402 58.1598 76.144 58.8886 79.1263C59.6174 82.1085 58.0146 97.1174 54.2868 97.4078Z" fill="#FFB27D"/>
<path d="M53.7566 73.0527C53.7566 73.0527 49.8305 83.5296 43.8074 85.0794C37.7843 86.6292 35.1707 85.0152 35.1707 85.0152C35.1707 85.0152 39.792 81.3432 40.7498 74.9376C40.747 74.9348 50.7939 68.0656 53.7566 73.0527Z" fill="#163560"/>
<path d="M52.782 73.9015C52.782 73.9015 55.6916 74.9905 56.8923 77.1127C58.0651 79.1902 59.062 81.9379 58.8302 85.3111C58.8302 85.3111 61.7873 78.1905 58.4644 74.1612C54.9377 69.8916 52.782 73.9015 52.782 73.9015Z" fill="#163560"/>
<path d="M51.165 91.8675C51.165 91.8675 52.1535 93.1687 54.1333 93.0766C55.7278 93.0012 56.3421 91.619 56.3421 91.619C56.3421 91.619 53.4157 90.9125 51.165 91.8675Z" fill="#EBF3FA"/>
<path d="M22.1106 127.188C22.1106 127.188 21.7475 132.32 22.1106 138.48C22.3535 142.563 26.4834 148.033 27.0698 149.385C28.5414 152.777 30.1972 153.33 30.1972 153.33L43.0253 156.474L47.535 157.577L61.7592 153.33C61.7592 153.33 68.2375 135.247 65.6378 125.069C63.0354 114.891 59.0618 107.82 59.0618 107.82C59.0618 107.82 47.454 119.185 32.3418 106.857L22.1106 127.188Z" fill="#B7D3F3"/>
<path d="M25.8665 140.15C26.1094 144.233 26.4836 148.036 27.07 149.387C28.5415 152.78 30.1974 153.333 30.1974 153.333L43.0255 156.477L48.5962 154.838C48.5962 154.838 29.9963 152.021 32.0571 136.018L25.8665 140.15Z" fill="#F2CCAA"/>
<path d="M60.8575 156.078C60.8575 156.078 67.9026 178.003 68.355 185.467C68.8073 192.931 54.8902 291.513 54.329 294.953C53.8012 298.195 49.7746 300.261 49.7746 300.261C49.7746 300.261 47.9233 301.353 45.2789 300.608C41.6126 299.572 40.4537 298.332 40.4537 298.332C40.4537 298.332 34.9723 228.026 38.3651 202.911C41.7578 177.797 41.7969 156.078 41.7969 156.078H60.8575Z" fill="#F26C55"/>
<path d="M31.0127 155.424C31.0127 155.424 20.2677 169.841 19.2652 179.587C18.2628 189.332 17.6931 223.566 15.5597 233.066C13.4264 242.565 5.58545 260.85 5.58545 290.482C5.58545 290.482 6.40082 292.18 8.91673 293.085C9.72093 293.375 10.7988 293.654 11.8459 293.895C13.9206 294.369 16.0512 293.356 16.9978 291.448C22.2977 280.776 39.1859 246.352 40.0515 239.206C40.6631 234.149 45.9965 200.683 57.6266 181.044C60.419 176.331 55.9121 157.58 55.9121 157.58L31.0127 155.424Z" fill="#FD7253"/>
<path d="M51.4863 92.1075C51.4863 92.1075 51.7349 93.1602 54.3513 92.9982C54.3513 92.9982 56.5489 92.8614 56.4819 91.7054C56.4819 91.7054 54.3513 90.8816 51.4863 92.1075Z" fill="white"/>
<path d="M61.9828 152.693C61.9828 152.693 59.1541 154.93 53.5359 155.045C46.8259 155.179 30.2002 153.333 30.2002 153.333C30.2002 153.333 29.4602 155.396 29.4909 157.577C29.4909 157.577 49.7969 162.698 61.5639 158.326C61.5639 158.323 63.0802 155.469 61.9828 152.693Z" fill="#255F6B"/>
<path d="M52.0837 157.359C52.0837 155.449 53.4576 153.894 55.1442 153.894C56.8335 153.894 58.2074 155.449 58.2074 157.359C58.2074 159.269 56.8335 160.825 55.1442 160.825C53.4576 160.825 52.0837 159.269 52.0837 157.359ZM53.0974 157.359C53.0974 158.711 54.016 159.811 55.1442 159.811C56.2723 159.811 57.191 158.711 57.191 157.359C57.191 156.008 56.2723 154.908 55.1442 154.908C54.016 154.908 53.0974 156.008 53.0974 157.359Z" fill="white"/>
<path d="M8.32948 156.643L29.1367 174.76L53.9362 146.279L33.129 128.161L8.32948 156.643Z" fill="#B5453C"/>
<path d="M34.8913 156.726C34.8913 156.726 42.5144 157.616 42.4893 159.426C42.4641 161.235 40.5905 164.952 39.6494 165.117C38.7084 165.281 33.4448 160.09 33.4448 160.09L34.8913 156.726Z" fill="#FFB27D"/>
<path d="M32.3418 106.857C32.3418 106.857 22.1636 107.572 18.2627 117.055C14.3618 126.537 6.95923 142.462 6.95923 145.14C6.95923 147.818 11.0947 156.078 33.2996 160.825C33.2996 160.825 35.5977 158.409 35.458 156.499C35.458 156.499 21.5968 144.593 21.6331 143.202C21.7029 140.569 23.9061 137.095 36.0752 124.921C39.3841 121.609 32.3418 106.857 32.3418 106.857Z" fill="#B7D3F3"/>
<path d="M144.787 312.103H144.69C144.12 312.103 143.665 311.634 143.676 311.067L145.212 244.495L149.735 243.967L145.876 311.07C145.846 311.651 145.365 312.103 144.787 312.103Z" fill="#79BDD2"/>
<path d="M118.422 312.103H118.324C117.754 312.103 117.299 311.634 117.311 311.067L118.846 244.495L123.37 243.967L119.511 311.07C119.48 311.651 119 312.103 118.422 312.103Z" fill="#B7D3F3"/>
<path d="M191.174 312.103H191.272C191.841 312.103 192.296 311.634 192.285 311.067L190.749 244.495L186.226 243.967L190.085 311.07C190.116 311.651 190.593 312.103 191.174 312.103Z" fill="#79BDD2"/>
<path d="M115.423 240.368V194.749C115.423 186.721 121.929 180.215 129.957 180.215H162.823C170.851 180.215 177.357 186.721 177.357 194.749V242.11L115.423 240.368Z" fill="#79BDD2"/>
<path d="M183.246 247.569H119.787C117.378 247.569 115.423 245.615 115.423 243.205V240.368H183.246V247.569Z" fill="#B7D3F3"/>
<path d="M190.85 247.569H142.841C141.059 247.569 139.613 246.126 139.613 244.341V243.593C139.613 241.811 141.057 240.365 142.841 240.365H190.85C192.632 240.365 194.078 241.809 194.078 243.593V244.341C194.078 246.126 192.632 247.569 190.85 247.569Z" fill="#79BDD2"/>
<path d="M188.988 229C184.28 237.195 178.357 240.359 178.357 240.359H153.72C153.72 240.359 192.579 222.748 188.988 229Z" fill="#255F6B"/>
<path d="M170.064 292.406C169.422 293.143 169.341 293.964 169.659 294.841C169.659 294.844 169.662 294.849 169.665 294.852C170.251 296.475 172.194 298.29 174.448 300.099C174.735 300.331 174.992 300.543 175.216 300.739C175.274 300.789 175.333 300.842 175.389 300.892C175.434 300.931 175.478 300.973 175.52 301.012C177.623 302.95 176.833 303.394 180.611 307.328C184.919 311.81 187.885 311.891 188.728 311.484C189.443 311.134 187.991 308.758 186.385 306.086C186.307 305.957 186.232 305.826 186.151 305.695C185.936 305.34 185.723 304.98 185.511 304.623C183.629 301.406 184.112 299.898 184.559 295.112C184.922 291.222 190.61 273.387 190.61 273.387L182.356 271.966C182.356 271.966 179.871 286.168 177.131 288.357C175.665 289.522 174.026 289.538 172.619 290.401C172.518 290.46 172.421 290.524 172.326 290.586C171.524 291.119 170.709 291.666 170.064 292.406Z" fill="#FFB27D"/>
<path d="M170.064 292.406C169.422 293.143 169.341 293.964 169.659 294.841C169.659 294.844 169.662 294.85 169.665 294.852C170.385 296.475 172.275 298.279 174.456 300.082C174.741 300.32 174.992 300.535 175.216 300.739C175.274 300.789 175.333 300.842 175.389 300.892C175.434 300.931 175.478 300.973 175.52 301.012C177.623 302.95 176.833 303.394 180.611 307.329C184.919 311.81 187.885 311.891 188.728 311.484C189.443 311.135 187.991 308.758 186.385 306.086C185.547 305.779 181.652 304.196 178.706 300.429C176.112 297.12 174.384 292.867 172.616 290.401C172.516 290.46 172.418 290.524 172.323 290.586C171.524 291.119 170.709 291.666 170.064 292.406Z" fill="#255F6B"/>
<path d="M236.628 287.249C237.139 289.798 240.769 289.371 244.829 288.38C248.887 287.388 247.923 288.567 253.698 287.927C259.473 287.288 261.223 285.135 261.399 284.275C261.556 283.513 258.705 283.244 255.641 282.893C255.256 282.851 254.871 282.8 254.483 282.753C251.026 282.32 248.496 280.089 245.357 278.257C242.383 276.523 237.946 269.456 237.946 269.456L230.027 270.084C230.027 270.084 234.182 276.398 235.791 279.143C236.737 280.757 236.687 282.893 236.567 284.54C236.505 285.436 236.447 286.352 236.628 287.249Z" fill="#FFB27D"/>
<path d="M244.829 288.38C248.887 287.388 247.923 288.567 253.698 287.927C259.472 287.288 261.223 285.135 261.399 284.275C261.555 283.513 258.704 283.244 255.641 282.893L255.613 282.951C255.613 282.951 252.151 285.406 247.342 285.523C243.425 285.618 239.275 284.495 236.569 284.54C236.508 285.436 236.449 286.352 236.631 287.249C237.139 289.798 240.769 289.374 244.829 288.38Z" fill="#255F6B"/>
<path d="M206.275 236.604L198.87 256.527L189.203 282.541C189.203 282.541 186.581 282.795 184.068 282.072C181.756 281.404 179.1 279.654 179.1 279.654C179.1 279.654 181.784 251.722 186.79 235.688C188.075 231.572 189.513 228.243 191.099 226.37C198.864 217.197 206.275 236.604 206.275 236.604Z" fill="#255F6B"/>
<path d="M198.747 204.964C193.897 203.4 180.061 205.408 166.163 208.127L163.253 203.327L133.236 200.982C133.236 200.982 123.331 222.949 128.754 236.944C129.55 239.002 131.136 240.32 133.833 240.365H134.271C134.271 240.365 152.137 240.354 157.94 240.354C172.867 240.354 189.532 230.092 191.691 229.662C195.22 228.956 196.63 236.015 200.16 243.423C203.69 250.834 233.33 276.241 233.33 276.241C233.33 276.241 237.885 276.286 239.767 275.58C241.791 274.82 242.531 273.834 242.531 273.834C242.531 273.834 209.688 208.493 198.747 204.964Z" fill="#197589"/>
<path d="M162.072 115.921C158.227 113.902 152.374 113.628 151.425 113.5C140.049 111.972 133.205 128.5 132.8 133.51C132.057 142.741 127.173 144.149 120.301 149.932C106.518 161.523 110.562 174.993 118.096 180C122.616 183.001 130.589 180 130.589 180C130.7 180.078 152.386 167.878 163.075 161.992C179.103 159.71 171.874 121.067 162.072 115.921Z" fill="#255F6B"/>
<path d="M154.117 156.98C154.164 157.01 148.859 158.823 145.31 157.25C141.973 155.776 139.443 150.283 139.493 150.281C141.012 150.211 142.679 148.885 143.964 140.172L144.612 140.404L155.482 144.316C155.482 144.316 154.695 147.804 154.184 151.127C153.754 153.914 153.525 156.583 154.117 156.98Z" fill="#FFB27D"/>
<path d="M155.482 144.316C155.482 144.316 154.695 147.804 154.184 151.127C147.94 150.001 145.488 143.78 144.609 140.404L155.482 144.316Z" fill="#ED975D"/>
<path d="M157.099 147.776C157.099 147.776 142.224 145.779 143.609 136.537C144.994 127.294 144.008 120.81 153.564 121.693C163.119 122.578 164.432 126.381 164.719 129.578C165.01 132.775 161.005 148.058 157.099 147.776Z" fill="#FFB27D"/>
<path d="M164.18 124.513C164.18 124.513 154.658 132.72 148.183 133.379C141.707 134.041 139.253 131.96 139.253 131.96C139.253 131.96 143.07 128.791 145.368 123.675C146.044 122.167 147.476 121.134 149.124 120.992C153.745 120.592 162.513 120.411 164.18 124.513Z" fill="#255F6B"/>
<path d="M158.227 123.776C158.227 123.776 161.413 126.856 162.416 129.14C163.385 131.343 163.675 136.618 162.904 138.712C162.904 138.712 167.866 129.062 165.057 124.373C162.078 119.4 158.227 123.776 158.227 123.776Z" fill="#255F6B"/>
<path d="M166.643 178.891C166.194 209.001 166.52 202.71 163.225 205.567C162.432 206.254 160.201 206.664 157.264 206.86C148.032 207.471 131.8 205.952 131.183 204.246C129.053 198.343 130.558 196.508 128.782 187.469C128.597 186.509 128.368 185.467 128.098 184.334C126.615 178.126 125.174 176.012 130.429 166.041C135.196 157.008 140.147 149.675 140.593 149.94C153.167 157.404 154.181 151.13 154.181 151.13C154.181 151.13 166.864 164.203 166.643 178.891Z" fill="white"/>
<path d="M198.87 256.527L189.203 282.541C189.203 282.541 186.581 282.795 184.068 282.072C181.756 281.404 179.1 279.654 179.1 279.654C179.1 279.654 181.784 251.722 186.79 235.688L198.87 256.527Z" fill="#197589"/>
<path d="M154.184 151.124C154.184 151.124 167.124 153.319 168.643 158.89C170.162 164.46 179.103 197.212 179.103 197.212C179.103 197.212 172.524 198.393 169.486 195.355C166.448 192.317 158.911 167.163 158.911 167.163L154.184 151.124Z" fill="white"/>
<path d="M157.266 206.857C148.035 207.468 131.803 205.949 131.186 204.243C129.055 198.34 130.56 196.506 128.784 187.467L133.238 174.926C133.238 174.926 132.501 188.891 136.62 192.563C140.733 196.235 153.48 199.653 155.482 202.721C156.446 204.193 157.079 205.67 157.266 206.857Z" fill="#EBF3FF"/>
<path d="M146.686 200.984C146.686 200.984 155.795 198.957 157.264 199.764C158.733 200.571 162.326 203.517 162.776 204.542C163.225 205.567 159.503 203.763 158.294 203.439C157.509 203.229 155.446 203.944 154.424 204.285C150.124 205.717 147.49 204.98 147.49 204.98L146.686 200.984Z" fill="#FFB27D"/>
<path d="M140.588 149.929C140.588 149.929 128.357 150.683 124.124 156.586C118.165 164.899 106.342 200.325 113.117 205.05C120.748 210.37 147.845 206.441 147.845 206.441C147.845 206.441 148.747 202.227 147.493 200.186C146.239 198.147 125.85 194.852 124.909 193.911C123.968 192.97 136.673 175.56 136.673 172.737C136.67 169.919 140.588 149.929 140.588 149.929Z" fill="white"/>
<path d="M157.705 202.3C157.705 202.3 159.612 204.762 160.24 205.056C160.866 205.349 161.271 205.276 161.271 205.276L159.983 202.961L157.705 202.3Z" fill="#FFB27D"/>
<path d="M157.267 199.764L162.815 202.459C162.815 202.459 162.578 202.844 161.896 202.813C161.212 202.783 159.489 202.152 159.489 202.152L157.267 199.764Z" fill="#FFB27D"/>
<path d="M160.24 208.825H204.134L217.336 175.993H173.513L160.24 208.825Z" fill="#FD7253"/>
<path d="M204.647 207.546H146.686V208.825H204.134L204.647 207.546Z" fill="#ED7D2B"/>
<path d="M193.053 192.409C193.386 191.256 192.718 190.32 191.562 190.32C190.409 190.32 189.205 191.256 188.873 192.409C188.541 193.562 189.208 194.498 190.364 194.498C191.518 194.5 192.721 193.562 193.053 192.409Z" fill="white"/>
<path d="M389.487 313.321H389.616C390.367 313.321 390.973 312.665 390.956 311.869L388.926 218.66L382.942 217.92L388.044 311.874C388.086 312.687 388.719 313.321 389.487 313.321Z" fill="#78ACEA"/>
<path d="M146.904 313.321H146.775C146.024 313.321 145.418 312.665 145.435 311.869L147.465 218.66L153.449 217.92L148.348 311.874C148.306 312.687 147.672 313.321 146.904 313.321Z" fill="#78ACEA"/>
<path d="M396.692 220.374H140.702C138.605 220.374 136.905 218.674 136.905 216.577V212.922C136.905 210.825 138.605 209.124 140.702 209.124H396.692C398.789 209.124 400.489 210.825 400.489 212.922V216.577C400.489 218.674 398.789 220.374 396.692 220.374Z" fill="#78ACEA"/>
<path d="M551.098 313.218C551.098 313.218 551.676 308.722 553.011 306.05C554.348 303.378 562.854 305.078 562.854 305.078C562.854 305.078 564.554 306.536 564.92 313.341L551.098 313.218Z" fill="#255F6B"/>
<path d="M522.119 313.156C524.118 311.936 522.979 302.836 522.979 302.836C522.979 302.836 513.666 295.386 512.385 301.09C511.103 306.795 503.538 309.356 499.23 310.054C496.256 310.537 495.337 312.182 495.05 313.156H522.119Z" fill="#255F6B"/>
<path d="M541.408 246.966C541.028 249.055 540.788 250.769 540.724 251.995C539.858 268.883 526.508 307.493 524.121 308.395C520.426 309.788 514.607 306.826 511.564 305.857C510.301 305.455 509.45 304.181 509.732 302.891C516.341 272.499 518.773 228.737 519.656 202.83C520.103 189.778 522.342 180.765 522.342 180.765C522.342 180.765 554.901 172.078 555.094 183.066C555.269 192.789 544.312 230.924 541.408 246.966Z" fill="#197589"/>
<path d="M541.408 246.966L519.659 202.827C520.105 189.776 522.345 180.762 522.345 180.762C522.345 180.762 554.904 172.075 555.096 183.063C555.27 192.789 544.312 230.924 541.408 246.966Z" fill="#255F6B"/>
<path d="M534.165 183.105L551.377 307.851C551.377 307.851 558.936 309.674 564.814 308.217C564.814 308.217 569.854 241.873 569.432 225.834C569.014 209.795 573.049 182.915 568.511 179.95C563.973 176.982 534.165 183.105 534.165 183.105Z" fill="#197589"/>
<path d="M571.867 181.025C571.951 182.153 571.228 183.178 570.144 183.493C567.743 184.191 564.976 184.674 559.637 185.78C554.622 186.822 547.875 187.743 539.588 187.793C526.405 187.877 521.412 183.334 521.412 183.334C520.845 183.345 521.711 180.586 522.493 167.465C522.758 163.02 523.012 157.387 523.196 150.267C523.364 143.861 523.476 136.249 523.487 127.222C523.501 116.359 540.314 104.676 540.624 104.676L540.626 104.682C540.626 106.245 543.092 109.133 546.887 109.381C551.394 109.677 556.92 107.432 556.92 104.838C556.92 104.813 565.065 117.867 567.958 131.779C569.418 138.782 568.829 138.595 571.867 181.025Z" fill="#B7D3F3"/>
<path d="M540.621 104.679C540.621 104.679 524.989 104.545 521.225 109.823C517.464 115.1 509.215 143.484 513.518 152.928C517.824 162.372 525.877 149.022 530.348 143.236C534.821 137.45 540.621 104.679 540.621 104.679Z" fill="#B7D3F3"/>
<path d="M540.462 102.291L540.47 103.908C540.47 103.908 540.029 108.962 546.253 109.7C552.477 110.44 557.096 108.756 556.925 104.855C556.364 101.836 555.845 98.734 555.803 96.2348C555.789 95.305 555.85 94.3221 556.023 93.2079L543.963 92.9678L540.411 93.5486L540.462 102.291Z" fill="#FFB27D"/>
<path d="M540.417 93.5513L540.464 102.294C541.746 102.889 543.19 103.252 544.812 103.252C550.355 103.252 553.938 99.189 555.808 96.2375C555.794 95.3077 555.856 94.3247 556.029 93.2106L543.969 92.9705L540.417 93.5513Z" fill="#E2915A"/>
<path d="M556.951 91.2699C555.552 98.8009 545.834 98.5524 541.637 98.0805C540.456 97.9493 539.713 97.7985 539.713 97.7985C538.381 97.4438 537.639 95.344 537.292 92.5963C536.605 87.1568 537.474 79.1707 538.393 77.1267C539.775 74.0523 542.38 70.7294 552.167 73.128C561.949 75.5266 558.746 81.6223 556.951 91.2699Z" fill="#FFB27D"/>
<path d="M524.637 125.831C524.637 125.831 518.592 139.184 518.768 143.186C518.768 143.186 521.761 143.082 524.637 143.939C529.362 145.35 524.637 125.831 524.637 125.831Z" fill="#B7D3F3"/>
<path d="M535.388 69.9586C535.388 69.9586 539.694 69.6263 544.776 67.4176C548.897 65.6249 554.1 67.5991 555.789 68.4898C555.744 68.219 555.635 67.8476 555.378 67.4734C555.378 67.4734 556.135 68.0096 556.25 68.7635C556.328 68.8221 556.361 68.8612 556.342 68.8752C556.342 68.8752 557.202 68.7188 557.755 68.9673C557.755 68.9673 557.369 68.9115 557.23 69.16C557.216 69.1851 557.194 69.2075 557.168 69.2298C563.599 72.3377 564.194 82.5019 562.125 84.8531C559.634 87.6817 555.876 94.0846 555.876 94.0846C555.876 94.0846 555.56 92.5488 556.015 90.058C556.468 87.5672 554.317 87.5672 551.6 86.4363C548.883 85.3054 551.148 82.1361 548.772 80.2122C546.395 78.2882 537.681 79.4191 537.792 77.9476C534.55 76.7664 535.388 70.2881 535.388 69.9586Z" fill="#353535"/>
<path d="M558.922 150.845C556.37 161.093 528.767 166.39 522.493 167.468C522.758 163.022 523.012 157.39 523.197 150.27L558.922 150.845Z" fill="#B7D3F3"/>
<path d="M552.862 154.176C553.125 154.176 559 153.3 560.05 152.775C561.1 152.25 565.914 145.411 562.761 143.658C559.612 141.904 551.154 148.916 551.154 148.916L552.862 154.176Z" fill="#FFB27D"/>
<path d="M517.14 156.206C517.14 156.206 539.856 157.438 555.099 154.173C555.099 154.173 555.485 149.77 550.693 147.812C550.693 147.812 526.936 142.778 521.225 144.18C515.52 145.584 517.14 156.206 517.14 156.206Z" fill="#B7D3F3"/>
<path d="M569.307 138.38C564.593 144.065 558.431 148.703 551.637 149.792L551.634 149.789C551.578 149.703 549.576 146.667 549.953 142.202C550.126 140.136 550.807 137.765 552.427 135.238C552.924 134.462 553.368 133.555 553.762 132.546C557.473 123.08 556.92 104.838 556.92 104.838C556.92 104.838 572.674 106.488 577.583 113.5C580.591 117.797 576.757 129.394 569.307 138.38Z" fill="#B7D3F3"/>
<path d="M541.637 98.0804C540.456 97.9491 539.713 97.7984 539.713 97.7984C538.381 97.4437 537.639 95.3439 537.292 92.5962C539.792 93.2105 540.936 95.1428 541.411 95.9638C541.626 96.3324 541.671 97.1617 541.637 98.0804Z" fill="#E2915A"/>
<path d="M535.29 102.339C535.29 102.339 529.848 93.3614 534.081 92.9705C538.311 92.5795 540.012 95.4445 540.624 96.4944C541.235 97.5471 540.464 102.291 540.464 102.291L535.29 102.339Z" fill="#FFB27D"/>
<path d="M556.026 141.904C555.859 143.043 555.521 144.087 555.099 145.02C553.77 147.972 551.634 149.792 551.634 149.792L551.631 149.789C537.499 143.412 534.64 121.508 534.162 109.473C533.969 104.637 534.162 101.392 534.162 101.392C540.537 99.2813 542.33 102.95 542.33 102.95C542.33 102.95 549.855 120.849 553.762 132.547C555.256 137.023 556.219 140.594 556.026 141.904Z" fill="#B7D3F3"/>
<path d="M569.307 138.38C564.593 144.065 558.431 148.703 551.637 149.792L551.634 149.789C537.502 143.411 534.642 121.508 534.165 109.473C534.165 109.473 540.853 133.725 549.953 142.202C551.598 143.735 553.323 144.755 555.099 145.017C555.099 145.017 566.576 141.772 568.983 138.72C569.156 138.503 569.259 138.394 569.307 138.38Z" fill="#B7D3F3"/>
<path d="M311.93 209.127H268.037L254.834 176.292H298.66L311.93 209.127Z" fill="#197589"/>
<path d="M267.523 207.848H325.484V209.127H268.036L267.523 207.848Z" fill="#197589"/>
<path d="M279.117 192.711C278.784 191.557 279.452 190.622 280.608 190.622C281.761 190.622 282.964 191.557 283.297 192.711C283.629 193.864 282.959 194.799 281.806 194.799C280.652 194.799 279.449 193.864 279.117 192.711Z" fill="white"/>
</svg>
