<svg width="569" height="384" viewBox="0 0 569 384" fill="none" xmlns="http://www.w3.org/2000/svg">
<path d="M501.893 255.37L501.207 254.165C501.17 254.091 496.758 246.528 484.653 236.128C477.553 230.048 480.482 221.613 483.337 213.475C485.728 206.635 487.99 200.165 484.283 195.475C475.273 184.074 478.091 169.652 482.188 162.738C483.893 159.864 484.023 151.689 484.134 144.459C484.301 134.431 484.505 128.202 486.804 126.478C487.397 126.033 488.101 125.903 488.824 126.089C491.864 126.886 492.309 131.465 492.958 138.379C493.848 147.666 495.053 160.383 502.839 171.802C510.828 183.5 509.994 191.007 509.123 198.96C508.511 204.521 507.881 210.268 510.495 217.887C516.927 236.666 502.931 254.128 502.783 254.295L501.893 255.37ZM488.157 127.905C488.064 127.905 487.99 127.942 487.916 127.998C486.248 129.259 486.118 137.712 486.007 144.496C485.877 152.69 485.747 160.42 483.801 163.72C479.963 170.19 477.331 183.648 485.766 194.307C490.122 199.813 487.582 207.08 485.117 214.105C482.355 222.002 479.759 229.455 485.877 234.701C495.554 243.006 500.373 249.457 502.097 252.033C504.915 248.066 513.869 233.681 508.678 218.517C505.935 210.509 506.583 204.54 507.214 198.775C508.048 191.193 508.826 184.019 501.245 172.896C493.181 161.069 491.883 147.537 491.03 138.583C490.511 133.114 490.066 128.406 488.305 127.942C488.268 127.924 488.213 127.905 488.157 127.905Z" fill="#E0E0E0"/>
<path d="M526.011 257.112L525.547 256.538C525.084 255.963 514.147 242.282 515.778 229.121C516.464 223.671 519.208 219.11 523.972 215.551C534.946 207.339 534.279 201.759 533.574 195.846C532.833 189.636 532.054 183.203 543.714 174.157C557.951 163.108 560.231 152.43 561.455 146.684C562.011 144.089 562.345 142.513 563.531 141.864C564.124 141.549 564.847 141.53 565.663 141.845C569.667 143.366 568.388 151.3 566.757 161.366C565.848 167.001 564.903 172.822 565.014 177.419V177.79C565.274 190.173 565.663 208.878 550.61 217.776C544.975 221.094 544.919 225.45 544.845 230.974C544.734 238.742 544.604 248.4 526.697 256.816L526.011 257.112ZM564.532 143.495C564.495 143.495 564.458 143.495 564.439 143.514C564.013 143.736 563.642 145.497 563.309 147.055C562.029 153.024 559.657 164.165 544.864 175.621C534.038 184.019 534.724 189.635 535.428 195.586C536.17 201.778 536.948 208.173 525.084 217.053C520.765 220.297 518.262 224.412 517.65 229.343C516.297 240.243 524.509 252.015 526.548 254.758C542.695 246.935 542.806 238.445 542.917 230.937C542.991 225.302 543.065 220 549.609 216.126C563.716 207.802 563.327 189.765 563.086 177.827V177.456C562.993 172.692 563.939 166.779 564.866 161.05C566.108 153.339 567.517 144.589 564.977 143.625C564.773 143.532 564.625 143.495 564.532 143.495Z" fill="#E0E0E0"/>
<path d="M508.678 285.587C494.868 237.407 492.458 186.077 492.439 185.576L494.33 185.483C494.349 186.002 496.758 237.092 510.513 285.068L508.678 285.587Z" fill="#E0E0E0"/>
<path d="M515.5 285.568C511.459 270.664 511.663 249.049 511.663 248.826L513.572 248.845C513.572 249.067 513.368 270.423 517.335 285.067L515.5 285.568Z" fill="#E0E0E0"/>
<path d="M522.322 285.364C520.802 245.786 547.496 195.957 547.774 195.457L549.442 196.365C549.183 196.865 522.73 246.25 524.231 285.29L522.322 285.364Z" fill="#E0E0E0"/>
<path d="M500.707 285.865C492.161 273.556 487.619 257.131 487.619 255.945H489.529H488.583L489.529 255.889C489.64 256.909 493.829 272.592 502.283 284.789L500.707 285.865Z" fill="#E0E0E0"/>
<path d="M531.313 285.364L529.403 285.29C530.423 259.875 549.257 241.504 549.461 241.337L550.777 242.709C550.592 242.876 532.295 260.727 531.313 285.364Z" fill="#E0E0E0"/>
<path d="M481.094 246.824C481.094 247.529 480.519 248.085 479.834 248.085C479.129 248.085 478.573 247.51 478.573 246.824C478.573 246.12 479.148 245.563 479.834 245.563C480.519 245.563 481.094 246.12 481.094 246.824Z" fill="#E0E0E0"/>
<path d="M490.215 249.105C490.215 249.661 489.77 250.124 489.195 250.124C488.639 250.124 488.176 249.679 488.176 249.105C488.176 248.548 488.62 248.085 489.195 248.085C489.751 248.085 490.215 248.548 490.215 249.105Z" fill="#E0E0E0"/>
<path d="M482.522 254.425C482.522 254.814 482.207 255.148 481.799 255.148C481.409 255.148 481.076 254.832 481.076 254.425C481.076 254.035 481.391 253.702 481.799 253.702C482.207 253.702 482.522 254.017 482.522 254.425Z" fill="#E0E0E0"/>
<path d="M485.135 264.175C485.135 265.288 484.227 266.196 483.115 266.196C482.002 266.196 481.094 265.288 481.094 264.175C481.094 263.063 482.002 262.155 483.115 262.155C484.227 262.155 485.135 263.045 485.135 264.175Z" fill="#E0E0E0"/>
<path d="M495.016 258.021C495.016 258.485 494.645 258.837 494.2 258.837C493.737 258.837 493.385 258.466 493.385 258.021C493.385 257.558 493.755 257.206 494.2 257.206C494.645 257.206 495.016 257.576 495.016 258.021Z" fill="#E0E0E0"/>
<path d="M496.796 264.546C496.796 265.028 496.406 265.436 495.906 265.436C495.405 265.436 495.016 265.047 495.016 264.546C495.016 264.064 495.405 263.656 495.906 263.656C496.406 263.656 496.796 264.064 496.796 264.546Z" fill="#E0E0E0"/>
<path d="M492.624 269.681C492.624 270.626 491.864 271.387 490.919 271.387C489.974 271.387 489.214 270.626 489.214 269.681C489.214 268.736 489.974 267.976 490.919 267.976C491.846 267.976 492.624 268.736 492.624 269.681Z" fill="#E0E0E0"/>
<path d="M509.846 263.156C509.846 263.434 509.624 263.656 509.346 263.656C509.067 263.656 508.845 263.434 508.845 263.156C508.845 262.878 509.067 262.655 509.346 262.655C509.605 262.655 509.846 262.878 509.846 263.156Z" fill="#E0E0E0"/>
<path d="M509.846 258.54C509.846 258.818 509.624 259.041 509.346 259.041C509.067 259.041 508.845 258.818 508.845 258.54C508.845 258.262 509.067 258.04 509.346 258.04C509.605 258.021 509.846 258.262 509.846 258.54Z" fill="#E0E0E0"/>
<path d="M508.826 254.907C508.826 255.574 508.289 256.112 507.621 256.112C506.954 256.112 506.417 255.574 506.417 254.907C506.417 254.239 506.954 253.702 507.621 253.702C508.289 253.702 508.826 254.239 508.826 254.907Z" fill="#E0E0E0"/>
<path d="M512.757 246.305C512.757 246.732 512.423 247.065 511.996 247.065C511.57 247.065 511.236 246.732 511.236 246.305C511.236 245.879 511.57 245.545 511.996 245.545C512.423 245.545 512.757 245.898 512.757 246.305Z" fill="#E0E0E0"/>
<path d="M515.037 242.894C515.037 243.043 514.925 243.154 514.777 243.154C514.629 243.154 514.517 243.043 514.517 242.894C514.517 242.746 514.629 242.635 514.777 242.635C514.925 242.635 515.037 242.764 515.037 242.894Z" fill="#E0E0E0"/>
<path d="M518.633 249.957C518.633 250.569 518.132 251.069 517.521 251.069C516.909 251.069 516.408 250.569 516.408 249.957C516.408 249.345 516.909 248.845 517.521 248.845C518.151 248.845 518.633 249.345 518.633 249.957Z" fill="#E0E0E0"/>
<path d="M517.28 254.814C517.28 255.426 516.779 255.926 516.167 255.926C515.556 255.926 515.055 255.426 515.055 254.814C515.055 254.202 515.556 253.702 516.167 253.702C516.779 253.702 517.28 254.202 517.28 254.814Z" fill="#E0E0E0"/>
<path d="M516.427 260.95C516.427 261.339 516.112 261.654 515.723 261.654C515.333 261.654 515.018 261.339 515.018 260.95C515.018 260.561 515.333 260.246 515.723 260.246C516.112 260.246 516.427 260.561 516.427 260.95Z" fill="#E0E0E0"/>
<path d="M531.683 264.546C531.929 264.546 532.128 264.347 532.128 264.101C532.128 263.855 531.929 263.656 531.683 263.656C531.438 263.656 531.238 263.855 531.238 264.101C531.238 264.347 531.438 264.546 531.683 264.546Z" fill="#E0E0E0"/>
<path d="M533.074 262.136C533.596 262.136 534.019 261.713 534.019 261.191C534.019 260.669 533.596 260.246 533.074 260.246C532.551 260.246 532.128 260.669 532.128 261.191C532.128 261.713 532.551 262.136 533.074 262.136Z" fill="#E0E0E0"/>
<path d="M537.838 254.388C537.838 254.777 537.523 255.092 537.133 255.092C536.744 255.092 536.429 254.777 536.429 254.388C536.429 253.998 536.744 253.683 537.133 253.683C537.523 253.683 537.838 254.017 537.838 254.388Z" fill="#E0E0E0"/>
<path d="M548.59 242.894C548.59 243.376 548.2 243.784 547.7 243.784C547.199 243.784 546.81 243.395 546.81 242.894C546.81 242.394 547.199 242.004 547.7 242.004C548.2 242.004 548.59 242.412 548.59 242.894Z" fill="#E0E0E0"/>
<path d="M554.485 240.466C554.485 241.003 554.04 241.448 553.502 241.448C552.965 241.448 552.52 241.003 552.52 240.466C552.52 239.928 552.965 239.483 553.502 239.483C554.04 239.483 554.485 239.91 554.485 240.466Z" fill="#E0E0E0"/>
<path d="M548.905 253.479C549.57 253.479 550.11 252.94 550.11 252.274C550.11 251.609 549.57 251.069 548.905 251.069C548.239 251.069 547.7 251.609 547.7 252.274C547.7 252.94 548.239 253.479 548.905 253.479Z" fill="#E0E0E0"/>
<path d="M546.013 259.041C546.822 259.041 547.477 258.385 547.477 257.576C547.477 256.767 546.822 256.112 546.013 256.112C545.204 256.112 544.548 256.767 544.548 257.576C544.548 258.385 545.204 259.041 546.013 259.041Z" fill="#E0E0E0"/>
<path d="M542.268 263.156C542.268 263.712 541.823 264.175 541.249 264.175C540.693 264.175 540.229 263.731 540.229 263.156C540.229 262.6 540.674 262.136 541.249 262.136C541.805 262.136 542.268 262.6 542.268 263.156Z" fill="#E0E0E0"/>
<path d="M528.68 329.447H498.798C490.863 329.447 484.394 322.977 484.394 315.043V284.604H543.084V315.043C543.084 322.977 536.614 329.447 528.68 329.447ZM486.285 286.513V315.043C486.285 321.939 491.883 327.537 498.779 327.537H528.662C535.558 327.537 541.156 321.939 541.156 315.043V286.513H486.285Z" fill="#E0E0E0"/>
<path d="M91.1733 237.018L90.3021 235.943C90.1167 235.702 71.0229 211.9 79.7726 186.318C83.3689 175.807 82.4977 167.873 81.6635 160.198C80.4771 149.354 79.3648 139.121 90.2464 123.179C100.98 107.422 102.648 89.9221 103.872 77.1311C104.761 67.7696 105.355 61.578 109.285 60.5585C110.193 60.3175 111.046 60.4843 111.75 61.0404C114.698 63.2835 115.031 71.7552 115.254 85.4545C115.421 95.8912 115.587 106.699 117.979 110.721C123.559 120.12 127.396 139.733 115.124 155.249C109.915 161.83 113.048 170.802 116.366 180.293C120.222 191.36 124.226 202.816 114.66 211.01C97.9766 225.302 91.9148 235.739 91.8592 235.85L91.1733 237.018ZM110.063 62.3566C109.97 62.3566 109.859 62.3752 109.748 62.3937C107.097 63.0796 106.504 69.3638 105.744 77.2979C104.576 89.5513 102.815 108.07 91.8036 124.235C81.3113 139.603 82.405 149.502 83.5358 159.976C84.3885 167.854 85.2969 176.011 81.5523 186.93C74.1743 208.507 87.4473 228.843 90.9323 233.663C93.0085 230.493 99.5523 221.41 113.4 209.527C121.983 202.167 118.368 191.824 114.549 180.886C111.212 171.321 107.764 161.44 113.622 154.044C125.283 139.288 121.631 120.62 116.329 111.667C113.697 107.218 113.511 96.1693 113.344 85.4731C113.177 75.5925 113.011 64.3772 110.582 62.542C110.434 62.4122 110.267 62.3566 110.063 62.3566Z" fill="#009994" fill-opacity="0.14"/>
<path d="M58.0281 239.595L57.3608 239.28C32.9838 227.805 32.7984 214.68 32.6501 204.114C32.5389 196.736 32.4647 190.359 24.5677 185.706C4.08356 173.601 4.62114 148.056 4.97336 131.131L4.99191 130.631C5.12168 124.291 3.8426 116.283 2.58204 108.534C0.468751 95.4462 -1.34793 84.1197 3.86114 82.1362C4.89925 81.7469 5.75199 81.7469 6.47496 82.1362C7.95797 82.9519 8.40282 85.0466 9.14433 88.5132C10.8313 96.4287 13.9827 111.185 33.6326 126.404C49.5008 138.695 48.4442 147.426 47.4246 155.86C46.4421 164.073 45.4967 171.84 60.7346 183.24C67.1857 188.06 70.9118 194.252 71.8386 201.63C74.0632 219.556 59.1404 238.223 58.5101 239.002L58.0281 239.595ZM5.25147 83.749C5.04755 83.749 4.80654 83.8046 4.52847 83.9158C0.765331 85.3432 2.63762 96.9849 4.45431 108.237C5.71487 116.079 7.01255 124.18 6.88279 130.686L6.86423 131.187C6.51202 147.648 5.99298 172.544 25.5317 184.075C34.337 189.284 34.4482 196.476 34.5595 204.095C34.7078 214.532 34.8746 226.359 57.4905 237.241C59.9931 233.941 71.8757 217.294 69.9478 201.889C69.0951 195.049 65.61 189.284 59.6038 184.798C43.4946 172.748 44.5327 164.073 45.5523 155.675C46.5533 147.407 47.4988 139.584 32.4833 127.961C12.2958 112.297 9.05166 97.1146 7.30912 88.9581C6.77153 86.4184 6.3081 84.231 5.58513 83.8417C5.49244 83.7675 5.38123 83.749 5.25147 83.749Z" fill="#009994" fill-opacity="0.14"/>
<path d="M81.5895 279.006L79.7543 278.487C98.6256 212.623 101.944 142.439 101.962 141.735L103.853 141.828C103.835 142.532 100.516 212.919 81.5895 279.006Z" fill="#009994" fill-opacity="0.14"/>
<path d="M72.2095 278.987L70.3743 278.487C75.8429 258.336 75.5648 228.991 75.5648 228.695L77.4742 228.676C77.4556 228.973 77.7337 258.596 72.2095 278.987Z" fill="#009994" fill-opacity="0.14"/>
<path d="M62.848 278.784L60.9386 278.71C62.9963 225.025 26.6625 157.158 26.2917 156.491L27.9602 155.583C28.3495 156.268 64.9242 224.58 62.848 278.784Z" fill="#009994" fill-opacity="0.14"/>
<path d="M92.5823 279.284L91.0251 278.209C102.722 261.34 108.469 239.688 108.58 238.39L110.471 238.427C110.471 240.04 104.261 262.452 92.5823 279.284Z" fill="#009994" fill-opacity="0.14"/>
<path d="M51.2062 278.784C49.8529 244.804 24.6417 220.242 24.3822 219.982L25.6984 218.61C25.9579 218.851 51.7252 243.951 53.1155 278.709L51.2062 278.784Z" fill="#009994" fill-opacity="0.14"/>
<path d="M119.777 225.914C119.777 226.878 120.556 227.656 121.52 227.656C122.483 227.656 123.262 226.878 123.262 225.914C123.262 224.95 122.483 224.171 121.52 224.171C120.556 224.171 119.777 224.95 119.777 225.914Z" fill="#009994" fill-opacity="0.14"/>
<path d="M107.264 229.029C107.264 229.789 107.894 230.419 108.654 230.419C109.414 230.419 110.045 229.789 110.045 229.029C110.045 228.268 109.414 227.638 108.654 227.638C107.894 227.638 107.264 228.268 107.264 229.029Z" fill="#009994" fill-opacity="0.14"/>
<path d="M117.812 236.332C117.812 236.87 118.257 237.315 118.795 237.315C119.332 237.315 119.777 236.87 119.777 236.332C119.777 235.795 119.332 235.35 118.795 235.35C118.257 235.35 117.812 235.795 117.812 236.332Z" fill="#009994" fill-opacity="0.14"/>
<path d="M116.996 252.497C118.532 252.497 119.777 251.252 119.777 249.716C119.777 248.18 118.532 246.936 116.996 246.936C115.461 246.936 114.216 248.18 114.216 249.716C114.216 251.252 115.461 252.497 116.996 252.497Z" fill="#009994" fill-opacity="0.14"/>
<path d="M100.665 241.282C100.665 241.912 101.165 242.412 101.795 242.412C102.426 242.412 102.926 241.912 102.926 241.282C102.926 240.651 102.426 240.151 101.795 240.151C101.165 240.151 100.665 240.67 100.665 241.282Z" fill="#009994" fill-opacity="0.14"/>
<path d="M98.2177 250.235C98.2177 250.903 98.7552 251.459 99.4411 251.459C100.108 251.459 100.665 250.921 100.665 250.235C100.665 249.568 100.127 249.012 99.4411 249.012C98.7738 249.03 98.2177 249.568 98.2177 250.235Z" fill="#009994" fill-opacity="0.14"/>
<path d="M103.964 257.28C103.964 258.577 105.021 259.634 106.319 259.634C107.616 259.634 108.673 258.577 108.673 257.28C108.673 255.982 107.616 254.925 106.319 254.925C105.021 254.925 103.964 255.982 103.964 257.28Z" fill="#009994" fill-opacity="0.14"/>
<path d="M80.3289 248.326C80.3289 248.715 80.644 249.03 81.0333 249.03C81.4226 249.03 81.7377 248.715 81.7377 248.326C81.7377 247.937 81.4226 247.622 81.0333 247.622C80.6255 247.64 80.3289 247.937 80.3289 248.326Z" fill="#009994" fill-opacity="0.14"/>
<path d="M81.0147 242.691C81.4038 242.691 81.7192 242.375 81.7192 241.986C81.7192 241.597 81.4038 241.282 81.0147 241.282C80.6257 241.282 80.3103 241.597 80.3103 241.986C80.3103 242.375 80.6257 242.691 81.0147 242.691Z" fill="#009994" fill-opacity="0.14"/>
<path d="M81.7192 236.999C81.7192 237.908 82.4607 238.649 83.3691 238.649C84.2774 238.649 85.0189 237.908 85.0189 236.999C85.0189 236.091 84.2774 235.35 83.3691 235.35C82.4607 235.35 81.7192 236.091 81.7192 236.999Z" fill="#009994" fill-opacity="0.14"/>
<path d="M77.3629 226.248C77.9363 226.248 78.401 225.783 78.401 225.209C78.401 224.636 77.9363 224.171 77.3629 224.171C76.7896 224.171 76.3248 224.636 76.3248 225.209C76.3248 225.783 76.7896 226.248 77.3629 226.248Z" fill="#009994" fill-opacity="0.14"/>
<path d="M73.1918 220.52C73.1918 220.705 73.3401 220.872 73.544 220.872C73.7294 220.872 73.8962 220.724 73.8962 220.52C73.8962 220.316 73.7479 220.167 73.544 220.167C73.3586 220.167 73.1918 220.334 73.1918 220.52Z" fill="#009994" fill-opacity="0.14"/>
<path d="M68.2423 230.215C68.2423 231.049 68.9282 231.735 69.7624 231.735C70.5966 231.735 71.2825 231.049 71.2825 230.215C71.2825 229.381 70.5966 228.695 69.7624 228.695C68.9282 228.695 68.2423 229.362 68.2423 230.215Z" fill="#009994" fill-opacity="0.14"/>
<path d="M70.1146 236.888C70.1146 237.741 70.8005 238.427 71.6532 238.427C72.506 238.427 73.1919 237.741 73.1919 236.888C73.1919 236.035 72.506 235.35 71.6532 235.35C70.819 235.35 70.1146 236.035 70.1146 236.888Z" fill="#009994" fill-opacity="0.14"/>
<path d="M71.2825 245.286C71.2825 245.823 71.7088 246.25 72.2464 246.25C72.784 246.25 73.2104 245.823 73.2104 245.286C73.2104 244.767 72.784 244.322 72.2464 244.322C71.7088 244.322 71.2825 244.767 71.2825 245.286Z" fill="#009994" fill-opacity="0.14"/>
<path d="M49.7233 249.623C49.7233 249.957 50.0013 250.235 50.335 250.235C50.6687 250.235 50.9468 249.957 50.9468 249.623C50.9468 249.29 50.6687 249.012 50.335 249.012C50.0013 249.03 49.7233 249.29 49.7233 249.623Z" fill="#009994" fill-opacity="0.14"/>
<path d="M47.1281 245.638C47.1281 246.361 47.7027 246.936 48.4257 246.936C49.1486 246.936 49.7233 246.361 49.7233 245.638C49.7233 244.915 49.1486 244.34 48.4257 244.34C47.7027 244.34 47.1281 244.915 47.1281 245.638Z" fill="#009994" fill-opacity="0.14"/>
<path d="M41.9003 236.295C41.9003 236.814 42.3266 237.259 42.8642 237.259C43.3833 237.259 43.8282 236.833 43.8282 236.295C43.8282 235.776 43.4018 235.331 42.8642 235.331C42.3452 235.35 41.9003 235.776 41.9003 236.295Z" fill="#009994" fill-opacity="0.14"/>
<path d="M27.1259 220.519C27.1259 221.187 27.6635 221.743 28.3493 221.743C29.0167 221.743 29.5728 221.205 29.5728 220.519C29.5728 219.852 29.0352 219.296 28.3493 219.296C27.682 219.296 27.1259 219.852 27.1259 220.519Z" fill="#009994" fill-opacity="0.14"/>
<path d="M19.0435 217.164C19.0435 217.906 19.6552 218.518 20.3967 218.518C21.1382 218.518 21.7499 217.906 21.7499 217.164C21.7499 216.423 21.1382 215.811 20.3967 215.811C19.6552 215.83 19.0435 216.423 19.0435 217.164Z" fill="#009994" fill-opacity="0.14"/>
<path d="M26.6994 235.035C27.6106 235.035 28.3493 234.296 28.3493 233.385C28.3493 232.474 27.6106 231.735 26.6994 231.735C25.7882 231.735 25.0496 232.474 25.0496 233.385C25.0496 234.296 25.7882 235.035 26.6994 235.035Z" fill="#009994" fill-opacity="0.14"/>
<path d="M28.6646 240.67C28.6646 241.782 29.5729 242.691 30.6851 242.691C31.7974 242.691 32.7057 241.782 32.7057 240.67C32.7057 239.558 31.7974 238.649 30.6851 238.649C29.5729 238.649 28.6646 239.558 28.6646 240.67Z" fill="#009994" fill-opacity="0.14"/>
<path d="M35.8199 248.326C35.8199 249.086 36.4502 249.716 37.2103 249.716C37.9703 249.716 38.6006 249.086 38.6006 248.326C38.6006 247.566 37.9703 246.936 37.2103 246.936C36.4502 246.936 35.8199 247.566 35.8199 248.326Z" fill="#009994" fill-opacity="0.14"/>
<path d="M95.4927 338.957H54.4688C43.7726 338.957 35.0599 330.244 35.0599 319.548V278.116H114.902V319.548C114.902 330.244 106.189 338.957 95.4927 338.957ZM36.9508 280.026V319.548C36.9508 329.206 44.8107 337.047 54.4503 337.047H95.4741C105.132 337.047 112.974 329.187 112.974 319.548V280.026H36.9508Z" fill="#009994" fill-opacity="0.14"/>
<path d="M348.235 219.815C347.067 238.427 345.269 256.946 342.915 275.391C341.524 286.476 341.636 297.729 339.726 308.721C338.039 318.546 333.998 323.477 327.473 325.85C325.341 326.647 322.857 327.148 320.169 327.463C300.389 329.799 280.535 330.781 260.645 330.373C242.7 330.058 223.959 329.873 206.589 324.552C195.726 321.197 196.727 307.368 194.669 294.985C190.628 270.534 187.959 245.786 186.809 220.89C186.401 212.14 186.29 202.908 189.664 195.178C189.775 194.826 189.923 194.511 190.072 194.196C192.815 188.597 197.227 184.426 201.806 180.867C230.095 158.529 265.65 152.338 299.37 156.342C317.351 158.455 337.502 165.5 345.232 185.038C349.403 195.734 348.995 208.062 348.235 219.815Z" fill="#A1DEF1"/>
<path d="M336.704 233.625C335.499 252.237 333.738 270.756 331.384 289.201C329.994 300.287 330.105 311.539 328.196 322.569C328.01 323.737 327.788 324.812 327.491 325.85C325.359 326.647 322.875 327.148 320.187 327.463C300.408 329.799 280.554 330.781 260.663 330.373C242.719 330.058 223.977 329.873 206.607 324.553C195.744 321.197 196.745 307.368 194.688 294.985C190.646 270.534 187.977 245.786 186.828 220.89C186.42 212.14 186.309 202.908 189.682 195.178C189.868 194.993 190.09 194.863 190.276 194.678C218.564 172.34 254.119 166.148 287.839 170.152C305.784 172.266 325.934 179.292 333.701 198.849C337.854 209.545 337.446 221.872 336.704 233.625Z" fill="#79BDD2"/>
<path d="M157.946 227.564C147.88 228.898 137.703 228.064 127.804 229.047C118.072 230.029 107.524 232.198 99.2744 224.078C94.0467 218.925 91.5441 210.88 89.3196 203.224C80.0693 171.376 69.7624 138.805 63.6265 105.864C61.5502 94.7043 60.0673 82.7475 63.4782 72.0698C65.9066 64.4694 70.6337 58.2407 75.8057 52.9575C91.3217 37.1264 111.713 28.5805 132.105 28.4137C141.021 28.3395 150.346 29.1737 159.077 31.2685C172.072 34.4013 185.363 38.8318 195.429 49.1388C203.753 57.6475 209.24 69.6414 212.298 82.2285C216.265 98.5416 216.784 116.597 218.138 133.374C219.602 151.522 219.157 169.782 217.081 187.837C216.099 196.402 214.56 205.467 209.536 211.677C204.624 217.739 197.338 219.889 190.424 221.539C179.672 224.116 168.828 226.118 157.946 227.564Z" fill="#A1DEF1"/>
<path d="M183.361 235.609C173.295 236.944 163.118 236.11 153.219 237.092C143.487 238.075 132.939 240.244 124.689 232.124C119.462 226.971 116.959 218.925 114.735 211.269C105.484 179.422 95.1775 146.851 89.0416 113.91C86.9654 102.75 85.4638 90.7931 88.8933 80.1154C91.3217 72.515 96.0488 66.2864 101.221 61.0031C116.737 45.172 137.128 36.6261 157.52 36.4593C167.178 36.3851 176.854 38.1277 185.938 42.0577C207.553 51.4563 220.659 90.4409 227.944 114.781C234.729 137.434 238.436 161.422 238.715 185.483C238.807 193.677 240.661 206.412 238.307 214.068C235.118 224.412 223.718 227.675 215.839 229.566C205.106 232.161 194.261 234.182 183.361 235.609Z" fill="#79BDD2"/>
<path d="M214.801 221.576C222.383 204.762 238.511 196.254 254.064 191.842C267.707 187.967 283.298 186.799 294.606 196.736C304.041 205.04 308.416 219.648 308.657 233.663C308.935 248.771 306.006 264.898 304.097 279.858C302.002 296.227 299.425 312.485 296.385 328.631C296.163 329.78 295.903 331.004 295.18 331.801C294.457 332.561 293.456 332.746 292.492 332.895C266.354 336.825 240.031 339.086 213.689 339.661C212.892 339.679 214.449 341.589 214.226 340.68C211.353 328.946 212.632 315.154 212.447 302.919C212.224 289.053 213.633 273.352 210.871 259.912C208.276 247.455 209.629 233.032 214.801 221.576Z" fill="#A1DEF1"/>
<path d="M223.124 140.715C216.136 142.439 208.776 141.475 202.121 138.935C196.171 136.674 189.219 134.19 184.251 130.13C180.562 127.108 176.706 124.383 172.813 121.529C167.697 117.784 163.229 113.149 159.67 107.885C157.149 104.14 155.054 99.9878 154.331 95.5202C153.182 88.4017 155.703 81.0052 160.059 75.2585C164.416 69.5119 170.459 65.2482 176.836 61.8929C177.633 61.4665 178.467 61.0402 179.079 60.3543C179.82 59.5016 180.117 58.3522 180.377 57.24C181.711 51.6601 183.361 45.5613 188.088 42.3172C191.814 39.759 196.616 39.5736 201.102 38.8877C212.743 37.1081 217.563 24.7249 225.608 17.2357C227.889 15.1225 230.428 13.2872 233.06 11.6003C236.694 9.246 240.55 7.11417 244.776 6.0946C254.36 3.7774 264.927 7.70739 271.508 14.9185C276.012 19.8495 275.604 27.5797 275.679 33.8084C275.771 41.5757 276.791 48.861 273.695 56.276C270.84 63.0793 266.447 69.2338 264.574 76.3708C262.257 85.2133 264.037 94.7601 261.553 103.566C259.161 112 253.118 118.878 246.908 125.069C240.086 131.835 232.449 138.435 223.124 140.715Z" fill="#211E1E"/>
<path d="M350.293 167.484C344.008 163.646 337.743 159.79 331.384 156.101C325.637 152.765 319.817 149.558 313.866 146.592C312.309 145.813 310.696 144.942 309.046 144.089C304.69 140.697 300.982 136.693 296.663 133.022C288.599 126.163 281.203 118.396 273.88 110.703C266.095 102.509 258.754 93.1291 249.485 86.6409C249.337 86.5297 249.151 86.4184 248.984 86.4555C248.706 86.4926 248.576 86.8448 248.521 87.1229C248.095 89.0693 247.928 90.6821 246.686 92.1095C245.796 93.1476 244.702 93.2774 243.831 94.7975C242.033 97.9303 241.588 101.86 240.587 105.29C240.049 107.144 238.511 110.258 238.733 112.186C239.011 114.522 241.884 117.228 243.275 119.063C247.038 123.994 251.079 128.721 255.38 133.207C261.182 139.269 267.466 144.886 274.14 149.984C281.295 155.471 288.303 161.626 296.774 164.888C296.978 165.018 297.164 165.148 297.368 165.278C307.174 171.58 317.462 177.049 328.122 181.628C334.777 183.648 341.784 186.169 347.771 189.543C347.938 189.636 348.142 189.747 348.328 189.692C348.513 189.636 348.643 189.469 348.735 189.302C350.348 186.614 351.479 183.685 352.61 180.775C353.648 178.087 354.686 175.399 355.724 172.711C356.614 170.505 351.794 168.392 350.293 167.484Z" fill="#FCA495"/>
<path d="M340.875 186.17C339.43 183.5 336.556 181.702 333.85 180.145C328.251 176.938 322.616 173.768 317.277 170.153C307.174 163.313 298.202 154.989 289.211 146.74C282.593 140.66 275.901 134.561 270.692 127.257C266.836 121.844 263.852 115.838 261.386 109.665C259.736 105.549 257.808 100.878 257.178 96.4659C256.974 95.1126 256.974 93.8706 256.881 92.7213C254.527 90.5338 252.099 88.4761 249.503 86.6595C249.355 86.5482 249.17 86.437 249.003 86.4741C248.725 86.5111 248.595 86.8634 248.539 87.1414C248.113 89.0879 247.946 90.7007 246.704 92.1281C246.259 92.6286 245.777 92.9252 245.295 93.2774C245.648 100.6 246.667 107.681 247.761 115.078C248.41 119.397 249.429 123.624 250.504 127.85C252.099 129.667 253.712 131.465 255.398 133.207C261.201 139.269 267.485 144.886 274.159 149.984C281.314 155.471 288.321 161.626 296.793 164.888C296.997 165.018 297.182 165.148 297.386 165.278C307.193 171.58 317.481 177.049 328.14 181.628C332.367 182.907 336.723 184.39 340.875 186.17Z" fill="#FD7253"/>
<path d="M299.889 328.631C301.409 338.956 306.636 345.815 314.96 352.489C315.924 353.267 316.888 354.027 317.963 354.621C318.908 355.14 321.225 355.881 321.485 357.123C321.893 359.088 319.668 357.513 318.853 357.197C317.314 356.586 316.128 357.401 314.533 357.531C312.309 357.716 310.084 357.197 307.971 356.567C304.746 355.622 301.613 354.38 298.517 353.064C294.735 351.451 291.473 349.467 288.043 347.261C283.372 344.277 282.964 340.532 282.723 335.36C282.408 328.779 281.74 322.198 280.739 315.673C285.874 313.931 291.38 313.337 296.756 313.931C297.275 313.986 297.85 314.079 298.202 314.468C298.535 314.82 298.591 315.358 298.647 315.84C298.98 319.381 299.314 322.94 299.666 326.481C299.703 327.222 299.796 327.926 299.889 328.631Z" fill="#FFC299"/>
<path d="M273.269 301.918C274.418 307.795 275.085 316.415 276.995 324.478C277.236 324.608 277.495 324.719 277.736 324.868C281.388 327 287.283 325.961 291.324 325.665C296.329 325.294 301.742 324.701 306.618 323.311C307.378 310.001 307.804 296.653 307.6 283.306C307.359 266.956 306.859 250.587 305.079 234.33C303.578 220.612 302.929 202.26 294.235 190.841C290.416 185.835 284.836 182.48 279.108 179.885C270.284 175.918 260.848 173.526 251.487 171.135C244.276 169.3 237.065 167.483 229.853 165.648C228.185 165.222 226.461 164.795 224.774 165.129C221.456 165.759 219.361 168.966 217.656 171.895C216.951 173.1 216.228 174.435 216.34 175.825C216.432 176.863 216.988 177.79 217.544 178.661C224.459 189.413 234.247 197.941 243.275 207.005C249.633 213.401 254.23 218.629 257.122 227.156C265.316 251.273 268.393 276.892 273.269 301.918Z" fill="#009994"/>
<path d="M273.269 301.918C274.418 307.795 275.085 316.415 276.995 324.478C277.236 324.608 277.495 324.719 277.736 324.868C281.388 327 287.283 325.961 291.324 325.665C296.329 325.294 301.742 324.701 306.618 323.311C307.378 310.001 307.804 296.653 307.6 283.306C307.359 266.956 306.859 250.587 305.079 234.33C303.578 220.612 302.929 202.26 294.235 190.841C290.416 185.835 284.836 182.48 279.108 179.885C270.284 175.918 260.848 173.526 251.487 171.135C244.276 169.3 237.065 167.483 229.853 165.648C228.185 165.222 226.461 164.795 224.774 165.129C221.456 165.759 219.361 168.966 217.656 171.895C216.951 173.1 216.228 174.435 216.34 175.825C216.432 176.863 216.988 177.79 217.544 178.661C224.459 189.413 234.247 197.941 243.275 207.005C249.633 213.401 254.23 218.629 257.122 227.156C265.316 251.273 268.393 276.892 273.269 301.918Z" fill="#1B697A"/>
<path d="M331.013 360.831C330.049 360.016 327.992 358.866 327.658 358.736C325.656 357.902 323.598 357.198 321.615 356.401C319.631 355.604 318.019 354.621 315.831 354.324C313.829 354.046 311.808 354.232 309.806 353.991C306.173 353.564 303.114 351.933 300.241 349.968C295.143 346.464 289.508 343.017 283.668 340.792C283.02 344.11 283.668 347.484 284.206 350.784C284.725 353.917 284.929 357.068 285.578 360.182C285.67 360.627 285.726 361.554 285.874 362.388C286.004 363.074 286.189 363.686 286.505 363.908C286.95 364.186 287.543 364.168 288.062 364.149C289.971 364.038 291.862 363.945 293.771 363.834C293.623 360.646 293.271 357.476 292.77 354.343C295.125 356.883 296.07 360.831 299.203 362.314C304.041 364.594 310.659 363.278 315.813 363.093C320.892 362.907 326.101 362.388 331.162 361.702C331.236 361.684 331.329 361.684 331.403 361.628C331.644 361.48 331.421 361.183 331.013 360.831Z" fill="#211E1E"/>
<path d="M241.477 336.565C239.79 340.514 238.288 344.555 236.99 348.652C236.101 351.506 236.471 354.324 238.14 356.845C239.308 358.606 240.883 360.034 242.441 361.461C244.906 363.704 247.39 365.947 249.856 368.19C249.114 368.264 248.354 368.079 247.631 368.153C247.056 368.209 246.612 368.468 246.018 368.561C243.386 369.006 240.717 368.339 238.177 367.504C234.988 366.429 231.911 365.076 228.871 363.649C225.145 361.906 221.956 359.793 218.601 357.476C216.914 356.308 214.764 354.825 214.356 352.674C213.93 350.413 215.505 348.336 216.747 346.409C217.878 344.647 218.824 342.738 219.509 340.755C220.937 336.658 221.382 332.227 223.124 328.242C223.625 327.092 224.329 325.906 225.516 325.461C226.48 325.09 227.555 325.294 228.556 325.517C230.057 325.832 231.67 325.999 233.135 326.499C236.156 327.537 238.9 329.391 240.995 331.819C241.495 332.394 241.977 333.043 242.107 333.803C242.274 334.73 241.884 335.657 241.495 336.528C241.495 336.528 241.495 336.547 241.477 336.565Z" fill="#FFC299"/>
<path d="M285.578 215.181C285.596 220.779 282.426 226.229 277.755 231.457C276.476 232.865 275.104 234.033 273.658 234.979C270.71 236.888 267.411 237.926 263.944 238.353C255.25 239.483 245.425 236.999 237.009 235.943C216.877 233.384 196.894 229.417 177.392 223.801C175.909 223.374 174.333 222.948 172.702 222.503C172.201 222.262 171.701 222.021 171.2 221.761C170.83 221.576 170.477 221.409 170.125 221.205C167.827 220 165.565 218.684 163.415 217.238C163.044 216.997 162.673 216.738 162.321 216.478C162.024 216.274 161.746 216.07 161.468 215.848C161.375 215.774 161.264 215.7 161.171 215.644C160.782 215.347 160.411 215.051 160.022 214.754C158.298 213.401 156.685 211.955 155.184 210.342C154.813 209.953 154.442 209.545 154.072 209.137C151.884 206.672 149.993 203.91 148.455 200.832C144.358 192.546 142.708 183.778 144.84 174.676C145.563 171.617 146.564 168.633 147.695 165.667C166.918 166.464 196.282 167.65 196.282 167.65C210.945 171.042 225.516 174.954 239.956 179.218C249.392 181.998 256.436 186.002 264.778 191.248C270.766 194.993 276.846 198.867 281.295 204.355C284.299 208.006 285.578 211.621 285.578 215.181Z" fill="#197589"/>
<path d="M275.586 224.153C274.789 227.749 274.158 231.345 273.658 234.979C270.71 236.888 267.411 237.926 263.944 238.353C254.935 237.871 245.944 237.074 237.009 235.943C216.877 233.385 196.894 229.417 177.392 223.801C175.909 223.374 174.333 222.948 172.702 222.503C172.201 222.262 171.701 222.021 171.2 221.761C170.83 221.576 170.477 221.409 170.125 221.205C167.827 220 165.565 218.684 163.415 217.238C163.044 216.997 162.673 216.738 162.321 216.478C162.024 216.274 161.746 216.07 161.468 215.848C161.375 215.774 161.264 215.7 161.172 215.644C160.782 215.347 160.411 215.051 160.022 214.754C158.317 213.401 156.704 211.918 155.184 210.342C154.813 209.953 154.442 209.545 154.072 209.137C153.367 208.322 152.663 207.45 152.014 206.579C152.941 207.005 153.849 207.45 154.758 207.84C166.603 212.956 179.468 215.236 192.222 217.164C206.422 219.333 220.696 221.113 234.97 222.503C248.076 223.801 262.572 226.581 275.586 224.153Z" fill="#DBDBDB"/>
<path d="M247.001 61.3552C246.463 64.2656 245.926 67.176 245.388 70.0679C244.665 73.9979 243.942 77.9093 243.219 81.8393C243.071 82.6179 242.811 83.3779 243.553 83.9711C243.608 84.0267 243.683 84.1009 243.645 84.175C243.627 84.1936 243.608 84.2121 243.571 84.2306C243.312 84.3604 243.052 84.4902 242.811 84.6199C241.643 85.2131 240.401 85.5097 239.196 85.9732C237.917 86.4737 236.527 86.6776 235.155 86.622C232.541 86.5108 230.002 85.5468 227.703 84.3604C226.591 83.7857 218.49 77.7239 217.897 78.3171C222.772 73.4232 225.479 66.8423 227.054 60.2244C227.814 57.0174 228.927 54.2923 230.169 51.2336C230.298 50.9 232.245 46.9144 232.022 46.7104C232.059 46.7846 247.001 61.3552 247.001 61.3552Z" fill="#FFC299"/>
<path d="M244.109 77.0012L246.982 61.374L231.021 45.9692L225.238 66.1753C228.519 73.0527 236.991 76.9456 244.109 77.0012Z" fill="#EFA573"/>
<path d="M205.291 68.3069C205.291 68.3069 209.759 62.4119 222.383 73.1267C227.407 77.3903 233.227 81.5984 239.697 83.3039C241.31 83.7302 243.405 85.1205 244.146 82.7106C248.966 85.4913 252.877 89.2359 254.453 94.6674C256.047 100.173 255.324 105.957 255.306 111.592C255.287 117.877 256.103 124.902 254.045 131.001C252.71 134.968 249.985 138.305 247.353 141.549C241.328 148.964 235.378 156.509 230.447 164.721C229.538 166.223 219.268 187.226 222.513 187.356C195.373 186.151 168.216 184.946 141.077 183.741C140.799 164.907 150.16 147.463 159.244 130.964C171.868 108.126 184.473 84.7498 205.291 68.3069Z" fill="#FD7253"/>
<path d="M233.58 90.5709C234.803 90.6821 235.73 90.2928 236.916 89.4957C238.492 88.4391 239.975 87.2341 241.347 85.9179C241.866 85.436 243.59 84.1569 243.219 83.3227C242.978 82.7851 241.106 82.3031 240.587 82.1919C240.068 82.0807 239.512 82.0621 238.974 82.0251C235.86 81.8026 232.931 80.5976 230.336 78.9478C228.927 78.0395 227.573 77.0755 226.22 76.0745C225.553 75.5739 224.867 75.0549 224.2 74.5544C223.718 74.1836 222.68 73.6831 222.383 73.1641C222.995 74.2392 223.328 75.7222 223.81 76.8901C224.422 78.3731 225.015 79.8747 225.571 81.3762C226.239 83.1744 227.091 84.9169 228.185 86.4926C229.186 87.9015 230.706 89.9221 232.449 90.3855C232.875 90.4782 233.246 90.5338 233.58 90.5709Z" fill="#FFC299"/>
<path d="M272.175 35.1429C271.322 38.1275 270.952 41.2233 270.507 44.3005C270.099 47.007 269.357 49.1389 268.356 51.66C266.187 57.1471 262.443 61.8557 258.29 65.9896C254.342 69.9195 248.706 74.4613 242.719 74.2574C235.934 74.0164 229.928 66.1193 226.721 60.8547C226.294 60.6878 225.794 59.1306 225.627 58.7228C225.33 58.0184 225.071 57.2769 224.848 56.5354C224.441 55.0524 224.2 53.5323 224.088 51.9937C223.866 48.8237 224.014 45.5426 224.255 42.3726C224.274 42.1502 224.292 41.9277 224.2 41.7424C224.088 41.4643 223.829 41.2974 223.588 41.1306C221.623 39.6291 219.973 36.9967 219.306 34.6239C218.583 32.0286 218.879 29.1367 220.233 26.801C220.381 26.56 220.548 26.3005 220.715 26.078C221.326 25.2994 222.123 24.6692 223.069 24.6136C224.385 24.5394 225.497 25.5219 226.313 26.56C227.11 27.5796 228.315 28.4323 228.667 29.7485C228.741 26.801 229.946 24.0389 231.133 21.3509C233.153 16.7721 235.415 11.9153 239.66 9.30148C241.236 8.33752 242.978 7.7443 244.739 7.16963C246.315 6.65058 247.909 6.15008 249.578 6.05739C253.953 5.8164 258.605 7.76286 262.406 9.76492C263.221 10.1913 263.944 11.285 264.649 11.9523C265.557 12.8051 266.391 13.7134 267.17 14.6589C268.727 16.5497 270.025 18.663 271.007 20.906C272.972 25.3365 273.51 30.3973 272.175 35.1429Z" fill="#FFC299"/>
<path d="M208.795 73.998C206.626 74.1093 204.457 74.1278 202.288 74.1464C200.749 74.1649 199.118 75.0362 197.746 75.7035C195.633 76.7416 193.631 77.6314 191.499 78.5398C183.472 81.9136 181.507 90.3112 175.186 95.1495C171.96 97.615 169.013 100.859 168.364 104.863C168.086 98.4306 169.198 91.9239 171.608 85.9548C174.797 78.0022 180.024 70.9393 180.747 62.1896C181.378 54.6077 183.509 46.3584 188.719 40.4449C195.355 32.9001 206.7 31.4542 214.245 24.8177C218.638 20.9433 220.807 15.4376 225.052 11.6189C229.557 7.57769 234.896 4.20382 240.605 2.16468C248.02 -0.4862 257.085 0.0143055 262.795 5.4273C263.351 5.96489 263.907 6.72495 264.537 7.15131C264.76 7.29961 265.038 7.37375 265.298 7.42937C268.56 8.2821 271.137 10.8959 272.713 13.8805C274.066 16.4572 275.16 19.6828 275.493 22.6117C275.79 25.2255 274.974 28.4696 274.121 30.9536C273.12 33.8826 272.731 37.1452 271.433 39.9629C271.656 39.4624 267.114 33.8826 266.614 33.0298C265.742 31.5283 265.168 29.8414 264.927 28.1174C264.778 27.1349 264.352 24.2801 265.075 23.483C262.943 25.8929 259.922 27.413 256.77 28.0989C253.619 28.7847 250.338 28.6735 247.149 28.1915C248.892 27.3759 250.393 26.0782 251.45 24.484C247.946 27.3573 243.738 28.8403 239.271 29.3038C235.452 29.7116 233.431 31.9547 231.54 35.2729C227.351 42.6509 223.514 50.6962 224.311 59.0752C224.663 62.653 225.683 67.2133 222.846 70.0866C222.049 70.9023 220.993 71.4213 219.936 71.8477C216.414 73.2751 212.632 73.7941 208.795 73.998Z" fill="#211E1E"/>
<path d="M263.128 35.1989C263.425 35.8662 264.037 36.515 264.463 36.9229C265.872 38.239 267.299 39.6479 268.875 40.7787C269.116 40.9455 269.376 41.1124 269.654 41.0753C270.08 41.0197 270.321 40.5192 270.284 40.1114C270.228 39.685 269.969 39.3328 269.709 38.9806C268.356 37.238 266.966 35.5326 265.52 33.8642C265.056 33.3266 264.296 33.1041 263.629 33.4749C262.832 33.9012 262.832 34.5501 263.128 35.1989Z" fill="#211E1E"/>
<path d="M252.544 29.3409C253.248 29.5262 253.952 29.7116 254.62 29.8599C255.213 29.9897 255.769 30.4346 255.621 31.1019C255.472 31.7693 254.879 31.7693 254.342 31.862C252.988 32.103 251.728 31.9918 250.375 31.7508C249.077 31.5098 247.687 31.3058 246.408 30.9722C246.055 30.8795 245.722 30.7683 245.444 30.5458C245.166 30.3234 244.962 29.9711 245.017 29.6189C245.147 28.6179 247.575 28.655 248.298 28.655C249.726 28.6735 251.153 28.9887 252.544 29.3409Z" fill="#211E1E"/>
<path d="M242.774 39.3881C242.644 40.2965 242.83 41.2233 243.645 41.8351C244.609 42.5395 245.796 42.1873 246.556 41.3716C247.446 40.4077 248.095 39.1101 247.965 37.7754C247.816 36.2553 246.593 35.3284 245.091 35.6806C243.757 35.9957 243.386 37.3119 243.015 38.4242C242.904 38.7022 242.811 39.0544 242.774 39.3881Z" fill="#211E1E"/>
<path d="M260.997 46.4326C260.867 47.3409 261.052 48.2678 261.868 48.8795C262.832 49.5839 264.018 49.2317 264.778 48.4161C265.668 47.4521 266.317 46.1545 266.187 44.8198C266.039 43.2997 264.816 42.3728 263.314 42.725C261.979 43.0402 261.609 44.3563 261.238 45.4686C261.127 45.7652 261.052 46.0989 260.997 46.4326Z" fill="#211E1E"/>
<path d="M251.468 49.8437C251.709 49.3247 251.876 48.7871 252.006 48.231C251.598 50.0847 254.23 53.4956 251.672 54.7006C250.393 55.3123 248.132 54.6079 247.223 53.6069C247.946 53.5698 248.614 53.199 249.188 52.7541C250.152 52.0126 250.949 50.9931 251.468 49.8437Z" fill="#EFA573"/>
<path d="M246.964 32.8257C250.56 34.2902 252.284 38.4056 250.82 42.0019C249.355 45.5982 245.24 47.3222 241.643 45.8577C238.047 44.3933 236.323 40.2779 237.788 36.6816C239.252 33.1038 243.367 31.3613 246.964 32.8257ZM247.279 32.0286C243.238 30.3788 238.622 32.3252 236.972 36.3664C235.322 40.4076 237.269 45.0235 241.31 46.6734C245.351 48.3232 249.967 46.3768 251.617 42.3356C253.285 38.2944 251.339 33.6785 247.279 32.0286Z" fill="white"/>
<path d="M265.65 40.4634C269.246 41.9279 270.97 46.0433 269.506 49.6396C268.041 53.2359 263.926 54.9599 260.329 53.4954C256.733 52.0309 255.009 47.9156 256.474 44.3193C257.957 40.723 262.053 38.999 265.65 40.4634ZM265.983 39.6478C261.942 37.9979 257.326 39.9444 255.676 43.9856C254.027 48.0268 255.973 52.6427 260.014 54.2925C264.055 55.9424 268.671 53.9959 270.321 49.9547C271.971 45.9135 270.025 41.2976 265.983 39.6478Z" fill="white"/>
<path d="M237.38 36.3291L233.116 32.7884L233.672 32.1211L237.954 35.6618L237.38 36.3291Z" fill="white"/>
<path d="M251.747 42.0943L251.672 41.2231C251.821 41.2045 255.157 40.945 256.437 43.2066L255.677 43.6329C254.657 41.8719 251.765 42.0758 251.747 42.0943Z" fill="white"/>
<path d="M242.311 147.871C239.233 147.5 236.119 146.11 233.691 144.163C224.162 136.488 221.864 123.141 220.325 111.018C218.786 98.8756 216.766 85.5656 207.534 77.5573C205.198 75.5367 202.251 73.9425 199.248 73.5161C194.168 78.2061 189.608 83.304 185.4 88.717C184.399 96.373 185.474 104.919 184.955 112.204C184.103 124.087 182.508 135.895 180.191 147.574C178.931 153.895 177.429 160.272 174.129 165.815C170.644 171.691 165.287 176.363 162.154 182.443C161.802 183.129 161.487 183.908 161.579 184.649C180.654 185.502 199.711 186.336 218.786 187.189C220.084 185.669 221.382 184.167 222.661 182.629C224.644 176.307 229.835 165.759 230.465 164.703C233.969 158.845 238.047 153.302 242.311 147.871Z" fill="#FD7253"/>
<path d="M285.745 205.763C272.231 190.674 254.657 212.437 248.539 224.245C243.386 234.2 240.587 245.174 237.806 256.037C232.875 275.354 227.963 294.67 223.032 313.986C221.549 319.788 218.471 327.871 216.747 335.972C216.914 336.194 217.1 336.398 217.266 336.639C219.658 340.124 225.423 341.7 229.205 343.164C233.895 344.981 239.03 346.761 244.053 347.576C250.43 335.861 256.529 323.978 262.053 311.854C274.233 285.142 285.726 257.724 290.731 228.657C292.121 220.705 291.38 212.066 285.745 205.763Z" fill="#197589"/>
<path d="M261.089 372.621C260.163 371.768 258.142 370.545 257.808 370.397C255.843 369.488 253.804 368.71 251.858 367.838C249.911 366.967 248.317 365.929 246.148 365.558C244.165 365.206 242.125 365.317 240.142 365.002C236.527 364.446 233.543 362.703 230.743 360.627C225.775 356.938 220.27 353.286 214.523 350.858C213.744 354.158 214.282 357.55 214.708 360.85C215.116 364.001 215.19 367.152 215.728 370.304C215.802 370.749 215.821 371.694 215.95 372.528C216.043 373.214 216.21 373.845 216.525 374.067C216.97 374.364 217.545 374.364 218.082 374.364C219.992 374.327 221.901 374.289 223.81 374.252C223.773 371.064 223.551 367.894 223.143 364.724C225.405 367.338 226.202 371.342 229.279 372.918C234.043 375.383 240.698 374.289 245.852 374.289C250.931 374.289 256.158 373.956 261.238 373.455C261.312 373.455 261.405 373.437 261.479 373.4C261.683 373.27 261.497 372.973 261.089 372.621Z" fill="#211E1E"/>
<path d="M232.041 91.368C228.945 92.4802 226.035 94.0745 223.421 96.0765C223.884 95.7243 223.106 91.6646 223.013 91.0157C222.772 89.1805 222.439 87.3638 222.012 85.5471C221.215 82.1733 220.029 78.9663 218.601 75.8334C218.453 75.5183 218.305 75.1661 218.36 74.8139C218.416 74.4987 218.62 74.2207 218.824 73.9797C219.825 72.7562 220.826 71.5327 221.827 70.3277C221.975 70.1424 222.142 69.957 222.364 69.8458C223.829 69.1784 227.74 77.9467 228.519 79.3C230.614 82.9519 232.69 86.6779 233.709 90.7933C233.153 90.9972 232.597 91.1826 232.041 91.368Z" fill="#FCA495"/>
<path d="M243.497 80.0229C244.925 82.1548 246.222 84.3793 247.335 86.6965C247.446 86.9375 247.557 87.1785 247.52 87.438C247.483 87.679 247.316 87.8829 247.168 88.0868C244.016 91.9797 240.865 95.8541 237.713 99.747C238.603 98.6533 237.139 95.1867 236.601 94.1857C235.878 92.8881 234.747 91.6275 233.691 90.5894C233.691 90.5894 238.733 86.3072 239.159 85.8809C240.865 84.1198 242.348 82.1733 243.497 80.0229Z" fill="#FCA495"/>
<path d="M240.939 61.5036C240.902 61.4109 240.865 61.3182 240.846 61.244C240.123 59.1678 241.087 56.8136 241.514 54.7744C242.978 56.6467 244.795 57.518 246.686 58.8156C248.577 60.1132 250.412 60.9845 252.785 60.9475C250.708 62.8012 248.947 64.6735 245.926 64.6179C243.794 64.5808 241.755 63.5242 240.939 61.5036Z" fill="#FD7253"/>
<path d="M200.082 74.6468C200.082 74.6468 186.587 78.0021 185.734 94.7602C185.141 106.494 189.59 178.458 202.696 185.242C215.802 192.027 225.441 179.236 219.954 139.751C214.467 100.266 211.631 73.9239 200.082 74.6468Z" fill="#FCA495"/>
<path d="M291.065 163.739C293.679 163.22 298.851 161.533 299.147 158.289C299.166 158.177 299.166 158.029 299.092 157.936C298.999 157.788 298.795 157.788 298.61 157.788C297.423 157.788 296.237 157.862 295.069 158.011C296.663 157.269 298.257 156.509 299.87 155.768C301.149 155.174 302.558 154.433 303.003 153.08C303.263 152.301 303.096 151.374 302.484 150.855C303.022 150.484 303.541 150.169 304.134 149.91C305.005 149.539 305.58 148.464 305.246 147.574C304.912 146.684 303.615 146.276 302.929 146.925C303.244 146.499 303.077 145.831 302.688 145.498C302.28 145.145 301.705 145.071 301.186 145.164C300.667 145.257 300.185 145.498 299.703 145.757C297.794 146.74 295.847 148 293.771 148.575C291.658 149.15 289.656 149.428 287.468 149.038C287.19 148.983 286.912 148.927 286.708 148.742C286.226 148.334 286.338 147.592 286.467 146.999C286.931 145.034 287.376 143.069 287.839 141.104C287.95 140.604 288.062 140.085 287.895 139.603C287.728 139.121 287.153 138.75 286.708 138.972C286.486 139.084 286.338 139.325 286.208 139.547C282.982 144.979 279.33 150.225 274.789 154.637C272.842 156.546 269.468 155.619 266.836 156.342C266.651 156.398 266.428 156.453 266.298 156.62C266.132 156.824 266.15 157.121 266.187 157.399C266.502 159.901 267.151 162.608 267.04 165.11C266.966 166.834 266.02 168.744 269.153 168.002C271.897 167.354 274.603 166.556 277.254 165.63C279.479 164.851 280.813 165.129 282.982 165.185C285.596 165.185 288.507 164.239 291.065 163.739Z" fill="#FFC299"/>
<path d="M263.295 154.451C265.742 153.988 268.208 153.525 270.673 153.098C272.509 159.568 273.788 166.204 274.511 172.878C270.414 173.879 267.151 175.102 263.332 176.826C252.265 181.794 240.772 185.799 229.019 188.802C223.273 190.266 217.211 191.49 211.446 190.025C205.699 188.579 200.397 183.667 200.397 177.735C200.397 164.888 214.486 163.053 224.088 161.718C237.287 159.901 250.263 156.954 263.295 154.451Z" fill="#FCA495"/>
<path d="M232.968 236.536C231.967 255.148 230.447 273.667 228.426 292.112C227.24 303.197 227.332 314.45 225.701 325.443C224.255 335.268 220.807 340.199 215.227 342.571C213.411 343.368 211.297 343.869 208.98 344.184C192.074 346.52 175.112 347.502 158.113 347.095C142.782 346.779 126.766 346.594 111.917 341.274C102.63 337.918 103.501 324.089 101.74 311.706C98.2734 287.255 96.0118 262.507 95.0108 237.611C94.6585 228.861 94.5658 219.63 97.4392 211.899C97.5319 211.547 97.6616 211.232 97.7914 210.917C100.127 205.319 103.909 201.148 107.82 197.588C131.993 175.251 162.377 169.059 191.184 173.063C206.552 175.176 223.773 182.221 230.373 201.759C233.969 212.456 233.617 224.783 232.968 236.536Z" fill="#A1DEF1"/>
<path d="M223.124 250.365C222.105 268.977 220.603 287.496 218.583 305.941C217.396 317.026 217.489 328.279 215.858 339.309C215.691 340.477 215.505 341.552 215.246 342.59C213.429 343.387 211.316 343.888 208.999 344.203C192.092 346.538 175.13 347.521 158.131 347.113C142.801 346.798 126.784 346.613 111.936 341.292C102.648 337.937 103.52 324.108 101.758 311.725C98.2919 287.274 96.0303 262.526 95.0293 237.63C94.6771 228.88 94.5844 219.648 97.4577 211.918C97.6246 211.733 97.8099 211.603 97.9768 211.418C122.15 189.08 152.533 182.888 181.341 186.892C196.671 189.006 213.893 196.031 220.529 215.589C224.107 226.266 223.755 238.612 223.124 250.365Z" fill="#79BDD2"/>
<path d="M470.324 201.203C472.456 202.038 474.384 202.927 476.274 204.503C480.631 208.136 483.171 213.364 484.209 218.87C485.599 226.248 486.637 233.7 487.675 241.133C488.583 247.677 487.582 253.776 488.157 260.357C489.381 274.334 494.868 287.459 497.964 301.047C500.207 310.909 501.208 321.049 500.911 331.152C500.781 335.397 500.41 339.735 498.649 343.61C497.129 346.983 494.627 349.82 492.124 352.563C489.863 355.029 487.082 357.661 483.745 357.402C478.944 357.049 474.81 349.579 471.918 346.168C466.894 340.254 461.704 334.433 457.273 328.038C450.377 318.083 443.481 308.128 436.567 298.174C430.468 289.368 424.313 280.489 420.198 270.59C416.083 260.709 414.118 249.605 416.676 239.206C420.18 225.024 431.135 214.55 439.904 203.465C442.073 200.74 442.795 196.625 445.799 194.567C449.172 192.268 455.438 194.715 458.812 196.124C462.13 197.514 465.319 199.257 468.674 200.555C469.249 200.777 469.786 200.981 470.324 201.203Z" fill="#E4E4E4"/>
<path d="M475.607 293.947C470.806 274.649 473.605 254.573 480.742 236.239C482.429 231.883 483.893 226.971 484.746 221.891C484.561 220.872 484.394 219.871 484.209 218.851C483.171 213.346 480.631 208.118 476.274 204.485C474.384 202.909 472.456 202.038 470.324 201.185C469.786 200.981 469.249 200.758 468.693 200.555C465.319 199.257 462.149 197.514 458.831 196.124C455.457 194.715 449.191 192.268 445.817 194.567C442.814 196.625 442.091 200.721 439.922 203.465C431.135 214.55 420.18 225.006 416.695 239.206C414.136 249.605 416.101 260.709 420.217 270.59C424.332 280.47 430.468 289.368 436.585 298.174C443.481 308.128 450.396 318.083 457.292 328.038C461.704 334.415 466.913 340.254 471.937 346.168C474.847 349.579 478.981 357.049 483.764 357.402C487.101 357.643 489.881 355.029 492.143 352.563C493.941 350.598 495.72 348.596 497.148 346.372C490.993 328.538 480.167 312.299 475.607 293.947Z" fill="#DDDDDD"/>
<path d="M349.384 362.963C349.384 362.981 349.384 363.019 349.403 363.037C349.792 365.28 353.796 366.318 355.502 367.023C358.264 368.172 361.1 369.136 363.936 370.081C364.103 370.137 364.307 370.193 364.474 370.1C364.604 370.026 364.678 369.877 364.733 369.748C367.032 364.743 369.331 359.756 371.611 354.769C372.093 353.731 372.575 352.637 372.593 351.488C372.631 349.912 371.778 348.466 370.777 347.299C365.994 342.238 358.579 341.663 352.202 341.255C351.145 343.721 351.646 347.669 351.349 350.394C350.96 353.787 350.404 357.142 349.662 360.479C349.458 361.295 349.255 362.129 349.384 362.963Z" fill="#EFA573"/>
<path d="M345.825 361.387C345.603 361.628 345.399 361.888 345.195 362.129C340.282 367.857 332.441 369.562 325.73 372.009C324.025 372.64 322.301 373.288 320.818 374.382C319.131 375.643 316.369 380.036 318.426 382.168C319.465 383.243 322.319 383.021 323.654 383.132C325.86 383.317 328.066 383.354 330.272 383.28C334.295 383.132 338.317 382.539 342.34 382.557C349.662 382.594 357.003 382.279 364.289 381.371C366.735 381.074 368.83 380.184 368.886 377.237C368.941 373.492 368.775 369.711 368.719 365.966C368.701 364.854 368.663 363.649 368.015 362.741C367.069 361.424 365.16 361.647 363.751 361.536C361.582 361.35 359.432 361.146 357.263 360.942C356.113 360.831 354.76 360.831 354.074 361.777C353.759 362.203 353.611 362.778 353.184 363.037C352.536 363.426 351.72 362.833 351.331 362.129C350.96 361.443 350.775 360.609 350.2 360.071C349.458 359.367 348.272 359.459 347.382 359.978C346.789 360.349 346.307 360.85 345.825 361.387Z" fill="#0F0E0E"/>
<path d="M354.76 363.167C359.877 365.947 365.215 368.265 370.721 370.081C370.888 370.137 371.092 370.192 371.259 370.1C371.388 370.026 371.463 369.877 371.518 369.748C373.817 364.742 376.115 359.756 378.396 354.769C378.878 353.731 379.36 352.637 379.378 351.488C379.415 349.912 378.562 348.466 377.561 347.298C375.411 344.833 372.315 343.22 369.164 343.276C365.846 343.331 362.175 345.482 360.6 348.615C358.282 353.231 356.577 358.328 354.76 363.167Z" fill="#FFC299"/>
<path d="M352.61 361.387C352.387 361.628 352.183 361.887 351.98 362.128C347.067 367.856 339.226 369.562 332.515 372.009C330.81 372.639 329.086 373.288 327.603 374.382C325.916 375.642 323.154 380.036 325.211 382.167C326.249 383.243 329.104 383.02 330.439 383.131C332.645 383.317 334.851 383.354 337.057 383.28C341.079 383.131 345.084 382.538 349.125 382.557C356.447 382.594 363.788 382.279 371.073 381.37C373.52 381.074 375.615 380.184 375.671 377.236C375.726 373.492 375.559 369.71 375.504 365.966C375.485 364.853 375.448 363.648 374.799 362.74C373.854 361.424 371.945 361.646 370.536 361.535C368.367 361.35 366.216 361.146 364.048 360.942C362.898 360.831 361.545 360.831 360.859 361.776C360.544 362.202 360.396 362.777 359.969 363.037C359.32 363.426 358.505 362.833 358.116 362.128C357.745 361.442 357.559 360.608 356.985 360.071C356.243 359.366 355.057 359.459 354.167 359.978C353.574 360.349 353.073 360.849 352.61 361.387Z" fill="#211E1E"/>
<path d="M453.918 362.351C451.768 359.904 449.766 357.309 447.93 354.584C443.036 347.336 440.59 339.216 436.363 331.671C432.952 325.591 429.56 319.511 425.555 313.838C421.904 308.648 417.955 305.496 415.601 299.472C409.947 285.031 403.904 270.757 397.452 256.705C395.784 253.072 394.078 249.401 391.687 246.25C388.313 241.782 383.401 238.353 378.006 238.112C372.575 237.871 367.347 240.911 363.714 245.193C360.081 249.476 357.837 254.889 356.151 260.357C350.422 278.876 350.293 298.749 350.552 318.232C350.663 327.037 350.867 335.861 351.22 344.666C351.887 344.722 352.536 344.833 353.203 345.019C361.1 347.243 368.775 349.412 376.208 353.082C376.282 353.12 376.357 353.175 376.449 353.212C380.546 347.985 384.606 342.72 388.573 337.381C391.02 334.1 394.042 332.265 395.154 327.908C398.676 335.954 402.476 343.628 405.183 351.97C413.932 378.998 443.074 379.35 464.707 372.51C463.298 372.955 457.236 365.948 456.161 364.835C455.401 364.02 454.66 363.185 453.918 362.351Z" fill="#009994"/>
<path d="M453.918 362.351C451.768 359.904 449.766 357.309 447.93 354.584C443.036 347.336 440.59 339.216 436.363 331.671C432.952 325.591 429.56 319.511 425.555 313.838C421.904 308.648 417.955 305.496 415.601 299.472C409.947 285.031 403.904 270.757 397.452 256.705C395.784 253.072 394.078 249.401 391.687 246.25C388.313 241.782 383.401 238.353 378.006 238.112C372.575 237.871 367.347 240.911 363.714 245.193C360.081 249.476 357.837 254.889 356.151 260.357C350.422 278.876 350.293 298.749 350.552 318.232C350.663 327.037 350.867 335.861 351.22 344.666C351.887 344.722 352.536 344.833 353.203 345.019C361.1 347.243 368.775 349.412 376.208 353.082C376.282 353.12 376.357 353.175 376.449 353.212C380.546 347.985 384.606 342.72 388.573 337.381C391.02 334.1 394.042 332.265 395.154 327.908C398.676 335.954 402.476 343.628 405.183 351.97C413.932 378.998 443.074 379.35 464.707 372.51C463.298 372.955 457.236 365.948 456.161 364.835C455.401 364.02 454.66 363.185 453.918 362.351Z" fill="#1B697A"/>
<path d="M417.158 243.599C414.6 240.485 410.577 238.983 406.684 238.983C395.84 238.965 389.092 243.581 383.642 253.295C372 274.02 367.607 298.304 363.417 322.032C361.842 330.93 360.266 339.828 358.709 348.726C365.382 351.322 371.963 354.158 378.359 357.42C386.237 342.924 395.562 329.317 403.57 314.877C413.395 297.155 421.329 277.375 420.865 256.835C420.754 252.127 420.068 247.121 417.158 243.599Z" fill="#197589"/>
<path d="M498.742 343.369C496.87 346.446 494.608 349.282 492.031 351.803C491.753 350.209 491.364 348.633 490.938 347.076C488.806 339.216 485.488 332.005 481.595 324.868C478.629 319.399 477.053 314.116 473.475 308.852C464.855 296.172 458.682 282.009 449.784 269.515C442.258 258.948 433.378 249.234 422.033 243.321C417.158 240.781 411.652 239.984 406.239 239.428C402.865 239.076 399.844 251.014 398.528 254.203C396.303 259.597 394.524 265.307 393.949 271.183C393.374 277.152 395.599 280.489 397.879 285.809C402.94 297.562 408.445 309.111 414.359 320.401C417.955 327.241 421.7 334.007 425.834 340.495C430.301 347.503 435.974 353.36 440.664 360.09C444.464 365.54 447.226 369.822 453.436 372.714C459.498 375.531 466.357 376.403 472.901 375.772C480.279 375.068 487.62 371.768 490.827 365.28C492.439 362.833 493.737 360.108 494.831 357.383C495.776 355.047 496.61 352.674 497.278 350.246C497.704 348.689 498.353 347.039 498.631 345.389C498.761 344.703 498.798 344.036 498.742 343.369Z" fill="#197589"/>
<path d="M428.818 203.354C428.633 203.372 428.466 203.409 428.281 203.446C426.427 203.873 424.814 205.022 423.294 206.153C416.305 211.343 409.335 217.164 405.59 225.024C404.107 228.12 403.181 231.735 404.237 234.997C405.016 237.389 406.777 239.335 408.649 241.022C411.411 243.525 414.692 245.731 418.4 246.046C422.256 246.361 426.037 244.563 428.929 242.005C431.821 239.446 433.953 236.147 436.048 232.903C436.845 231.661 437.642 230.437 438.439 229.195C440.386 226.174 442.851 222.8 443.797 219.333C444.89 215.403 444.946 210.954 444.594 206.913C444.464 205.523 444.241 204.058 443.407 202.946C441.053 199.813 439.663 203.187 437.401 203.91C434.565 204.818 431.691 202.983 428.818 203.354Z" fill="#FFC299"/>
<path d="M421.514 242.561C425.908 245.546 430.042 248.901 433.712 252.794C434.713 253.85 435.677 254.944 436.363 256.223C437.16 257.669 437.568 259.301 437.957 260.895C439.106 265.677 440.052 270.516 440.775 275.373C441.034 277.06 440.682 279.451 438.995 279.469C437.494 279.469 436.826 277.449 435.418 276.911C433.934 276.355 432.451 277.634 431.098 278.468C429.745 279.303 427.298 279.154 427.279 277.56C426.186 279.34 423.405 279.321 421.7 278.079C420.013 276.837 419.104 274.835 418.178 272.944C416.009 268.532 413.321 264.417 410.651 260.283C409.761 258.911 408.835 257.502 407.537 256.483C405.961 255.241 403.959 254.685 402.013 254.147C394.764 252.182 387.183 250.921 380.194 248.252C374.966 246.25 366.513 243.766 363.695 238.65C361.323 234.312 359.895 228.491 364.474 225.08C366.958 223.226 370.202 222.689 373.298 222.615C376.95 222.522 380.62 222.967 384.142 223.949C388.202 225.08 392.039 226.897 395.858 228.713C404.645 232.884 413.543 237.148 421.514 242.561Z" fill="#EFA573"/>
<path d="M445.094 194.789C446.132 195.086 447.041 195.79 447.578 196.736C447.467 191.082 446.021 185.261 442.313 180.997C439.31 177.549 433.601 174.565 428.892 175.974C426.519 176.697 426.853 176.511 425.185 174.787C423.776 173.323 422.293 172.099 420.476 171.172C418.14 169.967 415.564 169.263 412.931 168.966C411.448 168.8 409.965 168.762 408.501 168.818C395.524 169.43 383.253 177.976 378.192 189.932C377.117 192.454 376.357 195.086 375.096 197.514C373.835 199.943 371.963 202.186 369.423 203.187C370.684 204.614 373.242 204.596 374.466 203.131C374.911 207.154 375.652 211.232 375.745 215.273C375.875 221.335 374.651 227.898 370.165 231.957C374.614 232.606 379.211 232.328 383.549 231.123C385.533 230.567 387.72 229.584 388.295 227.601C388.517 231.049 387.776 234.553 386.163 237.611C395.561 238.13 405.294 236.258 413.172 231.086C421.051 225.914 426.816 217.201 427.224 207.784C427.205 208.099 427.891 209.082 428.039 209.415C428.336 210.101 428.67 210.75 429.078 211.38C429.856 212.604 430.802 213.698 431.766 214.773C433.731 216.923 435.918 218.944 437.401 221.502C438.884 224.042 439.551 227.026 439.329 229.955C441.665 228.843 442.962 226.322 443.871 223.893C445.094 220.612 445.873 217.183 446.225 213.716C446.614 209.842 447.263 206.116 447.133 202.223C447.059 200.425 447.393 195.438 445.094 194.789Z" fill="#FD7253"/>
<path d="M463.428 246.917C457.514 253.424 450.081 258.392 442.517 262.878C436.734 266.308 430.82 269.533 424.684 272.277C419.327 274.687 412.579 277.263 408.204 271.832C406.146 269.274 405.887 265.937 406.091 262.785C406.35 258.948 406.702 257.799 409.669 255.445C415.137 251.088 420.235 246.287 425.222 241.374C435.047 231.679 444.427 221.447 455.419 213.03C457.922 211.103 460.869 209.193 464.002 209.694C470.491 210.713 473.067 219.519 473.178 225.061C473.345 233.44 468.952 240.837 463.428 246.917Z" fill="#FFC299"/>
<path d="M455.623 208.897C456.625 207.821 457.607 206.709 458.571 205.578C462.445 201.037 468.21 199.405 473.753 202.483C483.448 207.877 482.503 224.561 479.333 233.366C476.682 240.726 471.01 247.436 465.263 252.608C464.484 254.147 461.537 255.797 460.165 256.816C458.404 258.151 456.587 259.393 454.697 260.505C450.859 262.786 446.781 264.324 442.962 266.623C442.313 267.012 441.59 267.42 440.83 267.346C440.237 267.29 439.718 266.919 439.236 266.567C432.396 261.395 428.058 253.665 423.906 246.157C423.424 245.305 422.942 244.303 423.238 243.377C423.368 242.987 423.609 242.654 423.85 242.32C428.429 236.11 433.026 229.844 438.532 224.413C444.019 218.981 450.322 214.588 455.623 208.897Z" fill="#C5C5C5"/>
<path d="M386.923 247.121C388.147 247.325 389.407 247.473 390.686 247.622C400.177 248.623 409.706 249.475 419.216 250.143C421.459 250.31 423.776 250.458 425.834 251.403C426.112 251.533 426.39 251.681 426.538 251.941C426.705 252.275 426.445 252.886 426.538 253.276C426.705 253.943 427.298 254.759 427.632 255.37C428.781 257.447 429.226 259.801 428.948 262.174C428.429 266.66 424.925 270.608 421.181 272.87C419.605 273.834 417.436 275.131 415.601 275.428C413.024 275.873 410.373 275.28 407.889 274.631C404.867 273.815 401.901 272.833 398.935 271.85C396.322 270.979 393.726 270.089 391.205 268.995C388.703 267.92 386.571 266.474 384.272 265.066C379.415 262.118 374.595 259.096 369.924 255.815C368.441 254.777 366.865 254.61 365.086 254.48C362.75 254.332 359.895 253.758 358.783 251.311C358.023 249.661 358.153 247.77 358.338 246.009C358.486 244.526 358.727 242.932 359.784 241.893C360.674 241.004 361.971 240.688 363.232 240.522C364.863 240.318 366.513 240.318 368.144 240.448C370.35 240.633 371.351 242.524 373.224 243.543C375.93 245.008 378.859 244.785 381.621 245.768C383.382 246.417 385.125 246.824 386.923 247.121Z" fill="#FFC299"/>
<path d="M370.906 241.449C371.982 243.617 370.313 245.304 369.349 246.991C368.163 249.086 366.884 251.125 365.512 253.109C365.345 253.35 365.178 253.609 364.919 253.758C363.417 254.666 360.284 253.22 359.117 252.126C358.245 251.311 357.226 250.643 356.429 249.772C355.724 249.012 355.298 247.788 355.891 246.936C356.039 246.732 356.225 246.546 356.262 246.305C356.28 246.12 356.188 245.953 356.095 245.786C356.058 245.731 356.021 245.675 356.002 245.619C355.335 244.47 355.872 242.802 357.077 242.264C357.244 242.19 357.43 242.116 357.541 241.968C357.633 241.838 357.652 241.671 357.652 241.523C357.652 241.022 357.485 240.559 357.411 240.077C357.337 239.595 357.411 239.039 357.745 238.705C358.004 238.445 358.412 238.353 358.783 238.297C359.357 238.242 360.192 238.204 360.729 238.464C361.156 238.668 361.397 239.113 361.786 239.409C361.415 237.482 360.711 235.739 359.413 234.274C358.95 233.755 358.338 232.662 358.468 231.939C358.727 230.53 360.062 231.401 360.841 231.865C362.676 232.94 364.529 234.108 365.883 235.758C366.494 236.499 366.976 237.333 367.607 238.075C368.33 238.927 369.22 239.632 370.054 240.392C370.369 240.707 370.703 241.041 370.906 241.449Z" fill="#FFC299"/>
<path d="M421.218 229.084C423.034 229.325 424.981 229.547 426.612 228.732C426.723 228.676 426.872 228.602 427.001 228.639C427.261 228.713 427.224 229.102 427.112 229.343C426.556 230.455 425.351 231.086 424.146 231.401C421.977 231.957 419.66 231.623 417.491 231.049C416.787 230.863 416.083 230.641 415.378 230.4C414.952 230.252 414.525 230.085 414.173 229.788C412.542 228.342 414.544 227.953 415.619 228.175C417.491 228.546 419.327 228.843 421.218 229.084Z" fill="#211E1E"/>
<path d="M424.369 235.072C424.425 235.053 424.48 235.034 424.517 235.053C424.666 235.09 424.666 235.312 424.591 235.461C424.221 236.239 423.312 236.554 422.478 236.758C421.347 237.018 420.198 237.166 419.03 237.222C418.381 237.259 417.696 237.24 417.121 236.944C416.639 236.703 415.823 235.72 416.379 235.183C416.769 234.812 417.77 235.238 418.215 235.312C420.18 235.572 422.441 235.72 424.369 235.072Z" fill="#211E1E"/>
<path d="M391.353 160.68C390.63 158.734 382.993 162.089 381.547 162.515C380.083 162.96 378.618 163.405 377.32 164.202C375.244 165.481 373.854 167.539 372.074 169.17C370.332 170.783 368.181 171.543 365.938 172.248C362.12 173.415 359.024 172.581 355.724 171.543C355.891 171.932 355.928 172.322 355.761 172.711C354.723 175.399 353.685 178.087 352.647 180.775C351.942 182.61 351.219 184.445 350.385 186.206C352.758 186.967 355.131 187.708 357.485 188.505C358.727 188.913 360.025 189.339 361.323 189.506C362.101 189.599 362.88 189.617 363.64 189.488C365.271 189.21 366.735 188.301 368.126 187.393C372.668 184.445 377.209 181.183 379.99 176.548C380.453 175.77 380.694 174.454 379.804 174.213C379.434 174.101 379.044 174.287 378.711 174.454C376.412 175.584 374.132 176.715 371.833 177.865C373.761 176.919 374.873 175.232 376.319 173.749C377.858 172.155 379.601 170.765 381.491 169.597C384.735 167.595 388.536 166.149 390.742 163.034C391.242 162.33 391.631 161.459 391.353 160.68Z" fill="#FFC299"/>
</svg>
