<svg width="40" height="40" viewBox="0 0 40 40" fill="none" xmlns="http://www.w3.org/2000/svg">
<g clip-path="url(#clip0)">
<path d="M34.5016 20.2024L33.6066 17.6592L23.9523 27.3139C23.009 28.2589 21.7524 28.7786 20.4173 28.7786C19.0825 28.7786 17.8259 28.2589 16.8826 27.3139L9.79959 20.2308C8.85451 19.2876 8.33452 18.0309 8.33452 16.6962C8.33452 15.3611 8.85451 14.1044 9.79959 13.1612C10.7428 12.2164 11.9995 11.6964 13.3342 11.6964C14.6693 11.6964 15.926 12.2164 16.8692 13.1612L20.4173 16.7078L29.9236 7.20175L29.2834 5.38514L28.9886 3.62193C28.8037 2.49193 28.0585 1.55539 27.0002 1.11688C25.937 0.675314 24.7506 0.812025 23.8189 1.48032L19.1875 4.83341L14.5042 1.47178C13.5643 0.808668 12.3745 0.67684 11.3178 1.12024C10.268 1.56028 9.52952 2.49528 9.34459 3.61857L8.43797 9.2631L2.75987 10.2063C1.6317 10.3916 0.695164 11.1365 0.255125 12.1948C-0.184915 13.2564 -0.0482035 14.4462 0.620095 15.3779L3.97166 20.0093L0.610025 24.6922C-0.0515601 25.6321 -0.184915 26.8238 0.258482 27.8787C0.700047 28.9288 1.63322 29.667 2.75651 29.8522L8.40135 30.7603L9.34459 36.4366C9.52799 37.5632 10.268 38.4983 11.3178 38.9383C12.376 39.3814 13.5677 39.2499 14.5161 38.5782L19.1475 35.2251L23.8189 38.5782C24.3905 38.9865 25.0554 39.1965 25.7304 39.1965C26.1586 39.1965 26.5885 39.1131 27.0002 38.9417C28.0603 38.5016 28.8037 37.5651 28.9886 36.44L29.8968 30.7954L35.573 29.8522C36.6997 29.667 37.6331 28.9288 38.0747 27.8787C38.5181 26.8238 38.3863 25.6321 37.7146 24.6807L34.5016 20.2024Z" fill="#FD7253"/>
<path d="M20.4174 25.446C19.9908 25.446 19.5642 25.2827 19.2392 24.9577L12.1561 17.8747C11.5046 17.2232 11.5046 16.1698 12.1561 15.5183C12.8079 14.8664 13.861 14.8664 14.5129 15.5183L20.4174 21.4228L37.1547 4.68541C37.8065 4.0339 38.8597 4.0339 39.5115 4.68541C40.163 5.33693 40.163 6.39034 39.5115 7.04185L21.5956 24.9577C21.2706 25.2827 20.844 25.446 20.4174 25.446Z" fill="#197589"/>
</g>
<defs>
<clipPath id="clip0">
<rect width="40" height="40" fill="white"/>
</clipPath>
</defs>
</svg>
