<svg width="287" height="366" viewBox="0 0 287 366" fill="none" xmlns="http://www.w3.org/2000/svg">
<path d="M225.453 362.839H225.632C226.672 362.839 227.503 361.982 227.483 360.947L224.678 239.383L216.418 238.419L223.465 360.952C223.521 362.013 224.398 362.839 225.453 362.839Z" fill="#165361"/>
<path d="M273.598 362.839H273.776C274.816 362.839 275.648 361.982 275.627 360.947L272.823 239.383L264.562 238.419L271.609 360.952C271.665 362.013 272.542 362.839 273.598 362.839Z" fill="#165361"/>
<path d="M140.75 362.839H140.571C139.531 362.839 138.7 361.982 138.72 360.947L141.525 239.383L149.785 238.419L142.738 360.952C142.682 362.013 141.81 362.839 140.75 362.839Z" fill="#165361"/>
<path d="M279.074 231.848V148.546C279.074 133.886 267.194 122.006 252.534 122.006H192.519C177.86 122.006 165.979 133.886 165.979 148.546V235.029L279.074 231.848Z" fill="#165361"/>
<path d="M155.226 244.997H271.104C275.505 244.997 279.074 241.428 279.074 237.027V231.847H155.226V244.997Z" fill="#165361"/>
<path d="M141.341 244.997H229.007C232.261 244.997 234.902 242.361 234.902 239.103V237.736C234.902 234.483 232.266 231.842 229.007 231.842H141.341C138.088 231.842 135.447 234.478 135.447 237.736V239.103C135.447 242.361 138.088 244.997 141.341 244.997Z" fill="#165361"/>
<path d="M144.742 211.089C153.339 226.055 164.154 231.832 164.154 231.832H209.142C209.142 231.832 138.185 199.673 144.742 211.089Z" fill="#C2C2C2"/>
<path d="M179.298 326.871C180.471 328.217 180.618 329.716 180.037 331.318C180.037 331.323 180.032 331.333 180.027 331.338C178.956 334.3 175.407 337.615 171.292 340.919C170.767 341.342 170.298 341.73 169.89 342.087C169.783 342.178 169.676 342.275 169.574 342.367C169.493 342.438 169.411 342.515 169.334 342.586C165.495 346.125 166.938 346.936 160.039 354.12C152.171 362.304 146.756 362.452 145.216 361.707C143.911 361.07 146.563 356.731 149.494 351.851C149.637 351.616 149.775 351.377 149.923 351.137C150.315 350.49 150.703 349.832 151.09 349.179C154.527 343.305 153.645 340.552 152.829 331.812C152.166 324.709 141.78 292.142 141.78 292.142L156.852 289.547C156.852 289.547 161.39 315.48 166.392 319.478C169.069 321.604 172.062 321.635 174.632 323.21C174.816 323.317 174.994 323.435 175.168 323.547C176.631 324.521 178.12 325.52 179.298 326.871Z" fill="#FFB27D"/>
<path d="M179.298 326.872C180.471 328.218 180.618 329.717 180.037 331.318C180.037 331.323 180.032 331.334 180.027 331.339C178.711 334.301 175.259 337.595 171.277 340.889C170.757 341.322 170.298 341.715 169.89 342.087C169.783 342.179 169.676 342.276 169.574 342.368C169.493 342.439 169.411 342.516 169.334 342.587C165.495 346.126 166.938 346.936 160.039 354.121C152.171 362.305 146.756 362.452 145.216 361.708C143.911 361.071 146.563 356.731 149.494 351.852C151.024 351.291 158.137 348.4 163.517 341.521C168.253 335.479 171.41 327.713 174.637 323.211C174.821 323.318 174.999 323.435 175.173 323.547C176.631 324.521 178.12 325.521 179.298 326.872Z" fill="white"/>
<path d="M57.7488 317.453C56.8157 322.109 50.187 321.329 42.7732 319.519C35.3644 317.708 37.1235 319.86 26.5789 318.692C16.0342 317.525 12.8372 313.594 12.516 312.023C12.2304 310.631 17.4365 310.142 23.03 309.499C23.7337 309.423 24.4374 309.331 25.1461 309.244C31.4586 308.454 36.0782 304.38 41.8095 301.035C47.2398 297.868 55.3421 284.963 55.3421 284.963L69.8027 286.11C69.8027 286.11 62.2155 297.639 59.2785 302.651C57.5499 305.598 57.6418 309.499 57.861 312.507C57.9732 314.144 58.0802 315.817 57.7488 317.453Z" fill="#FFB27D"/>
<path d="M42.7732 319.518C35.3644 317.708 37.1235 319.86 26.5789 318.692C16.0343 317.525 12.8372 313.594 12.516 312.023C12.2305 310.631 17.4365 310.141 23.0301 309.499L23.081 309.606C23.081 309.606 29.4037 314.088 38.1841 314.302C45.338 314.476 52.9151 312.426 57.8559 312.507C57.9681 314.144 58.0751 315.817 57.7437 317.453C56.8157 322.109 50.1871 321.334 42.7732 319.518Z" fill="white"/>
<path d="M113.174 224.973L126.697 261.355L144.35 308.856C144.35 308.856 149.137 309.32 153.726 308C157.948 306.781 162.797 303.584 162.797 303.584C162.797 303.584 157.897 252.579 148.755 223.301C146.409 215.785 143.783 209.707 140.887 206.286C126.707 189.536 113.174 224.973 113.174 224.973Z" fill="#C2C2C2"/>
<path d="M126.921 167.198C135.778 164.342 161.043 168.009 186.421 172.975L191.734 164.21L246.548 159.927C246.548 159.927 264.634 200.04 254.732 225.596C253.278 229.354 250.382 231.761 245.457 231.842H244.656C244.656 231.842 212.033 231.822 201.437 231.822C174.178 231.822 143.748 213.083 139.806 212.298C133.361 211.008 130.786 223.898 124.341 237.426C117.896 250.958 63.7707 297.354 63.7707 297.354C63.7707 297.354 55.4543 297.435 52.0176 296.145C48.3208 294.758 46.9696 292.959 46.9696 292.959C46.9696 292.959 106.944 173.643 126.921 167.198Z" fill="#DFDFDF"/>
<path d="M193.891 4.60209C200.912 0.91555 211.6 0.41583 213.333 0.181278C234.106 -2.60785 246.604 27.5729 247.343 36.7204C248.7 53.5775 257.618 56.1474 270.166 66.7073C295.335 87.8731 287.951 112.47 274.194 121.613C265.939 127.094 251.382 121.613 251.382 121.613C251.178 121.756 211.579 99.4783 192.06 88.7297C162.792 84.5639 175.994 13.9995 193.891 4.60209Z" fill="black"/>
<path d="M208.418 79.5774C208.331 79.6334 218.019 82.9427 224.5 80.0719C230.593 77.3797 235.213 67.35 235.121 67.3449C232.347 67.2174 229.303 64.7955 226.958 48.8867L225.775 49.3099L205.925 56.4535C205.925 56.4535 207.362 62.8222 208.295 68.8899C209.081 73.9787 209.499 78.8533 208.418 79.5774Z" fill="#FFB27D"/>
<path d="M205.924 56.4532C205.924 56.4532 207.362 62.8218 208.295 68.8896C219.697 66.8347 224.174 55.4742 225.78 49.3096L205.924 56.4532Z" fill="#ED975D"/>
<path d="M202.972 62.7711C202.972 62.7711 230.134 59.1253 227.605 42.2478C225.076 25.3703 226.876 13.5305 209.428 15.1417C191.979 16.7581 189.582 23.7029 189.057 29.5412C188.527 35.3795 195.839 63.2861 202.972 62.7711Z" fill="#FFB27D"/>
<path d="M190.041 20.2914C190.041 20.2914 207.429 35.2773 219.253 36.4806C231.078 37.6891 235.56 33.8903 235.56 33.8903C235.56 33.8903 228.589 28.103 224.393 18.7617C223.159 16.0083 220.543 14.1217 217.535 13.8616C209.096 13.1325 193.085 12.8011 190.041 20.2914Z" fill="black"/>
<path d="M200.912 18.9449C200.912 18.9449 195.094 24.569 193.264 28.74C191.494 32.7631 190.964 42.395 192.371 46.2192C192.371 46.2192 183.311 28.5972 188.44 20.0361C193.881 10.9549 200.912 18.9449 200.912 18.9449Z" fill="black"/>
<path d="M185.544 119.589C186.365 174.571 185.768 163.083 191.785 168.299C193.233 169.553 197.307 170.303 202.671 170.66C219.529 171.776 249.169 169.003 250.296 165.887C254.186 155.108 251.438 151.758 254.681 135.253C255.017 133.499 255.435 131.597 255.93 129.527C258.637 118.192 261.269 114.332 251.672 96.1233C242.968 79.6282 233.928 66.2383 233.112 66.7227C210.152 80.3522 208.301 68.8949 208.301 68.8949C208.301 68.8949 185.141 92.7682 185.544 119.589Z" fill="#FD7253"/>
<path d="M126.697 261.354L144.35 308.856C144.35 308.856 149.137 309.32 153.726 308C157.948 306.781 162.797 303.584 162.797 303.584C162.797 303.584 157.897 252.579 148.755 223.301L126.697 261.354Z" fill="#DFDFDF"/>
<path d="M208.295 68.8848C208.295 68.8848 184.667 72.8926 181.893 83.065C179.119 93.2374 162.792 153.043 162.792 153.043C162.792 153.043 174.806 155.2 180.353 149.652C185.901 144.105 199.663 98.1732 199.663 98.1732L208.295 68.8848Z" fill="#FC7B5E"/>
<path d="M221.986 159.931C221.986 159.931 205.353 156.229 202.671 157.703C199.989 159.177 193.427 164.556 192.606 166.427C191.785 168.299 198.582 165.005 200.79 164.413C202.223 164.031 205.991 165.336 207.857 165.958C215.709 168.574 220.518 167.228 220.518 167.228L221.986 159.931Z" fill="#FFB27D"/>
<path d="M233.122 66.7021C233.122 66.7021 255.456 68.0788 263.186 78.858C274.067 94.0376 295.656 158.728 283.286 167.355C269.35 177.069 219.87 169.895 219.87 169.895C219.87 169.895 218.223 162.2 220.513 158.473C222.802 154.751 260.035 148.734 261.753 147.016C263.471 145.297 240.271 113.505 240.271 108.35C240.276 103.206 233.122 66.7021 233.122 66.7021Z" fill="#F56C4E"/>
<path d="M201.866 162.333C201.866 162.333 198.383 166.83 197.236 167.366C196.094 167.901 195.354 167.769 195.354 167.769L197.705 163.541L201.866 162.333Z" fill="#FFB27D"/>
<path d="M202.666 157.703L192.535 162.624C192.535 162.624 192.968 163.327 194.212 163.271C195.461 163.215 198.607 162.063 198.607 162.063L202.666 157.703Z" fill="#FFB27D"/>
<path d="M197.236 175.249H117.085L92.9775 115.296H173L197.236 175.249Z" fill="#C8C8C8"/>
<path d="M116.147 172.914H221.986V175.249H117.085L116.147 172.914Z" fill="#A4A4A4"/>
<path d="M137.318 145.273C136.711 143.167 137.93 141.459 140.041 141.459C142.147 141.459 144.344 143.167 144.951 145.273C145.558 147.379 144.339 149.087 142.228 149.087C140.123 149.092 137.925 147.379 137.318 145.273Z" fill="white"/>
<path d="M18.6219 365.062H18.3873C17.0157 365.062 15.9093 363.864 15.9399 362.411L19.6468 192.208L30.5739 190.856L21.2581 362.421C21.1816 363.905 20.0241 365.062 18.6219 365.062Z" fill="#79BDD2"/>
<path d="M221.589 365.062H221.823C223.195 365.062 224.301 363.864 224.271 362.411L220.564 192.208L209.637 190.856L218.952 362.421C219.029 363.905 220.186 365.062 221.589 365.062Z" fill="#79BDD2"/>
<path d="M3.45784 195H236.542C238.452 195 240 191.977 240 188.249V181.751C240 178.023 238.452 175 236.542 175H3.45784C1.54842 175 0 178.023 0 181.751V188.249C0 191.977 1.54842 195 3.45784 195Z" fill="#79BDD2"/>
</svg>
