<svg width="566" height="381" viewBox="0 0 566 381" fill="none" xmlns="http://www.w3.org/2000/svg">
<path d="M517.62 288.24C517.62 288.24 494.326 233.175 525.726 178.818C557.125 124.461 559.193 97.4217 557.814 82.1786C568.902 117.528 571.679 185.433 545.348 216.627C519.017 247.803 517.62 288.24 517.62 288.24Z" fill="#A1DEF1"/>
<path d="M517.62 288.24C517.62 288.24 506.178 246.144 537.578 191.787C568.977 137.43 559.194 97.4404 557.815 82.1786C568.902 117.528 571.679 185.433 545.348 216.627C519.017 247.803 517.62 288.24 517.62 288.24Z" fill="#79BDD2"/>
<path d="M508.209 326.496C508.209 326.496 531.503 271.431 500.103 217.074C468.704 162.717 466.636 135.678 468.015 120.435C456.927 155.785 454.151 223.689 480.481 254.883C506.812 286.059 508.209 326.496 508.209 326.496Z" fill="#A1DEF1"/>
<path d="M508.209 326.496C508.209 326.496 519.651 284.401 488.252 230.044C456.853 175.687 466.636 135.697 468.015 120.435C456.927 155.785 454.151 223.689 480.481 254.883C506.812 286.059 508.209 326.496 508.209 326.496Z" fill="#79BDD2"/>
<path d="M510.24 257.045C510.24 257.045 475.058 178.799 502.246 120.435C529.415 62.0717 516.203 0 516.203 0C545.199 58.6057 538.434 139.685 525.614 161.525C512.775 183.346 510.24 257.045 510.24 257.045Z" fill="#79BDD2"/>
<path d="M510.24 257.045C510.24 257.045 475.058 178.799 502.246 120.435C529.415 62.0717 516.203 0 516.203 0C545.367 86.334 519.725 115.441 512.085 150.288C506.644 175.016 510.24 257.045 510.24 257.045Z" fill="#A1DEF1"/>
<path d="M455.287 268.748V319.676C455.287 341.59 473.214 359.517 495.128 359.517H514.359C536.273 359.517 554.199 341.59 554.199 319.676V268.748H455.287Z" fill="#197589"/>
<path d="M529.788 268.748V319.676C529.788 340.715 513.241 358.045 492.538 359.386C493.395 359.442 494.252 359.517 495.128 359.517H514.359C536.273 359.517 554.199 341.59 554.199 319.676V268.748H529.788Z" fill="#34A3BB"/>
<path d="M441.59 249.032L495.277 363.374C496.618 366.225 494.829 369.561 491.717 370.027C489.742 370.325 487.804 369.337 486.872 367.585L429.664 259.84L441.59 249.032Z" fill="#75420E"/>
<path d="M394.296 250.132L329.671 358.678C328.05 361.38 324.285 361.771 322.161 359.461C320.819 357.989 320.54 355.827 321.472 354.075L378.642 246.312L394.296 250.132Z" fill="#562F0B"/>
<path d="M399.048 260.679L334.423 369.226C332.802 371.928 329.037 372.319 326.913 370.008C325.571 368.536 325.292 366.375 326.224 364.623L383.394 256.859L399.048 260.679Z" fill="#75420E"/>
<path d="M472.226 355.287L435.068 276.127H419.974L464.157 359.33C465.051 361.026 466.915 361.958 468.816 361.678C471.797 361.212 473.511 358.026 472.226 355.287Z" fill="#562F0B"/>
<path d="M357.25 123.249C359.617 124.479 363.81 129.622 368.021 134.039C367.536 133.237 359.934 123.38 359.598 122.038C359.114 120.1 360.362 118.889 363.027 122.019C365.207 124.591 371.282 132.827 371.282 132.827C371.282 132.827 369.735 128.28 365.282 123.026C363.567 120.994 365.319 119.131 367.071 121.348C371.711 125.672 376.742 135.995 376.742 135.995C376.742 135.995 377.897 133.796 377.879 131.243C377.86 128.69 379.574 126.846 380.599 128.523C381.624 130.2 381.475 136.796 381.978 139.778C382.444 142.573 383.227 146.077 383.32 146.486C384.382 148.369 397.016 170.488 411.291 185.079C412.874 186.178 418.819 192.16 429.291 192.514C432.422 192.626 443.267 187.352 443.771 187.017L448.802 191.936C448.802 191.936 423.198 203.974 412.986 205.912C412.148 206.154 411.272 206.248 410.359 206.173C410.322 206.173 410.284 206.154 410.247 206.154C403.035 205.651 399.159 196.874 399.159 196.874C390.699 184.203 380.376 160.779 378.419 157.854C375.997 154.22 374.338 152.487 374.338 152.487C374.338 152.487 371.096 149.971 368.151 147.381C365.207 144.791 364.257 138.679 356.169 134.411C353.449 132.976 355.2 131.43 356.207 131.747C359.151 132.678 361.946 134.206 364.76 136.927C362.431 133.219 355.368 126.547 355.219 124.777C355.051 123.026 356.3 122.765 357.25 123.249Z" fill="#F9A88F"/>
<path d="M310.515 323.571C310.515 323.571 310.962 329.161 311.111 332.236C311.26 335.31 314.391 338.87 314.894 344.926C315.416 350.982 316.459 354.168 316.459 354.168L312.825 355.622C312.825 355.622 310.198 347.889 308.148 344.013C307.365 353.721 305.073 360.43 301.906 364.231C298.738 368.033 284.538 376.288 282.116 375.636C279.693 374.983 288.097 357.318 292.122 348.485C296.147 339.634 299.483 324.502 299.483 324.502L310.515 323.571Z" fill="#FFBDA4"/>
<path d="M286.644 360.635C290.166 363.15 292.421 363.542 296.688 360.225C305.819 352.454 302.893 339.056 311.167 332.757C311.595 335.72 315.266 335.329 315.751 341.068C316.273 347.125 316.459 354.187 316.459 354.187L312.825 355.641C312.825 355.641 305.073 360.448 301.905 364.25C298.738 368.051 284.538 376.306 282.116 375.654C280.606 375.244 283.383 368.088 286.644 360.635Z" fill="#011651"/>
<path d="M291.283 279.462C291.283 279.462 289.178 284.68 287.948 287.494C286.718 290.308 287.91 294.892 285.674 300.538C283.42 306.184 282.935 309.501 282.935 309.501L279.04 309.184C279.04 309.184 280.14 301.097 280.047 296.718C274.997 305.048 269.947 310.023 265.419 312.017C260.89 314.011 244.492 315.036 242.61 313.377C240.728 311.719 256.157 299.681 263.704 293.569C271.251 287.456 281.016 275.4 281.016 275.4L291.283 279.462Z" fill="#FFBDA4"/>
<path d="M253.363 301.936C255.394 305.756 257.239 307.116 262.531 306.054C274.177 303.184 277.55 289.898 287.762 287.96C286.83 290.792 290.278 292.097 288.153 297.445C285.898 303.091 282.917 309.501 282.917 309.501L279.022 309.185C279.022 309.185 269.929 310.023 265.4 312.017C260.872 314.011 244.474 315.036 242.592 313.377C241.418 312.315 247.12 307.135 253.363 301.936Z" fill="#011651"/>
<path d="M426.795 244.094C426.795 244.094 425.061 269.139 407.284 273.518C385.388 278.903 337.162 222.888 337.162 222.888L292.98 283.264L268.084 268.617C268.084 268.617 323.019 207.123 331.441 199.054C339.846 191.004 418.129 238.057 426.795 244.094Z" fill="#011651"/>
<path d="M392.619 226.745L421.186 241.057C410.21 254.809 399.253 263.716 380.32 263.921C358.089 264.163 329.317 250.821 329.317 250.821L315.751 327.894L288.209 324.39C288.209 324.39 302.819 242.491 310.478 233.715C327.92 213.701 382.165 225.217 392.619 226.745Z" fill="#000C37"/>
<path d="M331.441 199.073C328.683 201.719 337.162 222.906 337.162 222.906C337.162 222.906 393.066 278.661 415.315 274.99C444.739 270.145 426.794 244.094 426.794 244.094C418.129 238.056 339.845 191.004 331.441 199.073Z" fill="#011651"/>
<path d="M419.881 296.402C417.161 296.402 414.254 296.085 411.123 295.414L410.228 295.228L333.417 265.785C327.193 263.4 324.081 256.431 326.466 250.207C328.851 243.983 335.821 240.871 342.045 243.256L417.049 272.009C424.204 273.276 427.894 269.717 433.596 256.431L433.689 256.226L487.506 136.871C490.245 130.796 497.382 128.094 503.457 130.834C509.532 133.573 512.234 140.71 509.495 146.785L455.734 266.046C451.951 274.842 442.597 296.402 419.881 296.402Z" fill="#BC6A33"/>
<path d="M461.716 156.866C461.716 156.866 471.294 163.239 459.778 210.217C448.261 257.195 434.826 269.456 422.173 274.991C420.496 246.834 396.755 224.808 390.923 222.776C414.589 209.676 410.023 198.756 406.408 184.669C402.793 170.6 441.273 158.338 444.274 155.86C447.311 153.363 461.716 156.866 461.716 156.866Z" fill="#FD7253"/>
<path d="M332.839 142.424C335.448 142.983 340.833 146.84 346.069 149.989C345.398 149.337 335.448 141.846 334.777 140.635C333.808 138.883 334.684 137.392 338.094 139.722C340.889 141.623 348.92 147.977 348.92 147.977C348.92 147.977 346.237 144.008 340.553 140.113C338.373 138.622 339.566 136.349 341.839 138.026C347.467 140.97 355.033 149.617 355.033 149.617C355.033 149.617 355.573 147.194 354.883 144.735C354.194 142.275 355.368 140.057 356.803 141.399C358.238 142.741 359.822 149.151 361.089 151.89C362.281 154.462 363.958 157.648 364.163 158.002C365.691 159.549 383.711 177.531 401.339 187.836C403.147 188.47 405.83 189.103 407.414 187.948C409.949 186.103 430.503 177.718 430.894 177.252L441.87 190.687C441.87 190.687 417.831 202.874 408.476 207.459C407.731 207.906 406.911 208.222 406.017 208.409C405.979 208.409 405.942 208.427 405.905 208.427C398.805 209.844 392.749 202.409 392.749 202.409C381.251 192.42 365.095 172.556 362.449 170.245C359.151 167.376 357.082 166.146 357.082 166.146C357.082 166.146 353.281 164.58 349.759 162.847C346.237 161.114 343.703 155.487 334.777 153.511C331.777 152.859 333.044 150.903 334.106 150.94C337.199 151.07 340.293 151.797 343.721 153.679C340.498 150.716 331.926 146.151 331.311 144.474C330.677 142.778 331.814 142.2 332.839 142.424Z" fill="#FFBDA4"/>
<path d="M423.925 125.28C423.832 123.566 423.962 120.323 425.062 120.267C426.142 120.212 426.627 123.417 426.702 125.131C426.795 126.845 426.664 130.088 425.565 130.144C425.527 130.144 425.49 130.144 425.453 130.144C424.447 129.976 424.018 126.92 423.925 125.28ZM425.08 120.771C424.819 120.789 424.279 122.317 424.428 125.243C424.577 128.113 425.248 129.585 425.528 129.622H425.546C425.807 129.603 426.347 128.075 426.198 125.15C426.049 122.299 425.378 120.826 425.08 120.771C425.099 120.771 425.099 120.771 425.08 120.771Z" fill="#12284A"/>
<path d="M458.734 130.107C458.734 130.107 454.783 146.207 462.703 157.63C448.615 165.643 433.577 166.127 433.577 166.127C433.577 166.127 449.566 149.878 442.037 144.194C438.758 139.349 458.734 130.107 458.734 130.107Z" fill="#FFBDA4"/>
<path d="M433.317 106.608C433.317 106.608 428.267 112.254 428.229 119.615C428.192 126.976 424.689 128.001 423.552 128.15C422.415 128.299 424.633 131.933 425.937 132.324C425.807 135.641 427.316 142.461 429.441 144.064C431.565 145.666 448.858 146.635 454.951 134.877C461.026 123.118 456.945 112.851 451.988 109.739C447.013 106.627 434.863 104.521 433.317 106.608Z" fill="#FFBDA4"/>
<path d="M451.467 128.001C451.467 128.001 456.237 136.461 457.821 139.275C470.623 132.361 478.002 119.764 473.754 107.577C464.045 79.6627 437.528 89.5949 431.23 97.3469C426.683 101.148 427.074 114.118 427.074 114.118C435.571 109.869 444.032 116 444.032 116C444.032 116 443.994 124.348 445.485 127.647C448.057 126.696 451.467 128.001 451.467 128.001Z" fill="#12284A"/>
<path d="M469.598 101.055C469.598 101.055 473.959 86.8182 483.835 92.6695C493.711 98.5393 497.233 116.801 474.275 116.634C470.437 113.13 469.598 101.055 469.598 101.055Z" fill="#12284A"/>
<path d="M470.194 103.906C470.194 103.906 475.132 104.503 477.872 111.658C480.63 118.833 475.766 141.082 457.858 142.853C454.243 136.051 452.92 130.628 452.92 130.628C452.92 130.628 469.43 115.609 470.194 103.906Z" fill="#12284A"/>
<path d="M445.187 127.721C445.187 127.721 448.504 116.093 454.001 120.51C459.498 124.945 451.373 133.591 449.212 132.715C447.05 131.858 444.385 133.498 445.187 127.721Z" fill="#FFBDA4"/>
<path d="M427.558 129.044C427.111 128.15 426.813 126.939 426.757 125.653C426.683 124.367 426.85 123.137 427.204 122.187C427.596 121.181 428.155 120.603 428.826 120.566C429.478 120.547 430.111 121.05 430.615 122C431.062 122.895 431.36 124.106 431.416 125.392C431.565 128.169 430.652 130.405 429.347 130.461C429.254 130.461 429.18 130.461 429.086 130.442C428.509 130.367 427.987 129.864 427.558 129.044ZM428.844 121.069C428.397 121.087 427.968 121.553 427.67 122.355C427.335 123.23 427.186 124.386 427.26 125.597C427.316 126.827 427.596 127.945 428.006 128.783C428.397 129.547 428.863 129.976 429.31 129.939C430.186 129.902 431.043 128.057 430.894 125.392C430.838 124.162 430.559 123.044 430.149 122.205C429.813 121.535 429.403 121.125 428.993 121.05C428.956 121.069 428.9 121.069 428.844 121.069Z" fill="#12284A"/>
<path d="M446.557 122.676L431.019 124.033L431.063 124.534L446.601 123.177L446.557 122.676Z" fill="#12284A"/>
<path d="M84.4032 259.486H73.2224L25.1266 361.939C23.7849 364.79 25.5738 368.126 28.6858 368.591C30.6611 368.89 32.5991 367.902 33.5308 366.15L84.3845 270.369V259.486H84.4032Z" fill="#75420E"/>
<path d="M198.931 352.622L153.202 266.437H136.673L190.732 357.243C192.353 359.945 196.117 360.336 198.242 358.026C199.584 356.553 199.863 354.392 198.931 352.622Z" fill="#562F0B"/>
<path d="M194.198 363.169L142.86 266.437H125.641L185.98 367.79C187.601 370.492 191.365 370.883 193.49 368.573C194.85 367.101 195.13 364.939 194.198 363.169Z" fill="#75420E"/>
<path d="M85.428 274.487L48.1774 353.852C46.8916 356.591 48.606 359.796 51.6062 360.243C53.5069 360.523 55.3704 359.591 56.2648 357.895L100.541 274.506H85.428V274.487Z" fill="#562F0B"/>
<path d="M100.522 294.966C103.243 294.966 106.15 294.65 109.28 293.979L110.175 293.792L186.986 264.35C193.21 261.965 196.322 254.995 193.937 248.771C191.552 242.547 184.583 239.435 178.359 241.821L103.354 270.574C96.1987 271.841 92.5091 268.282 86.8069 254.995L86.7137 254.79L32.8971 135.436C30.1578 129.361 23.0208 126.659 16.9459 129.398C10.871 132.138 8.16897 139.275 10.9082 145.349L64.669 264.611C68.4705 273.406 77.8064 294.966 100.522 294.966Z" fill="#BC6A33"/>
<path d="M192.931 96.5642C192.931 96.5642 190.639 79.085 174.818 80.3336C158.998 81.5821 147.556 97.9991 146.512 113.522C145.469 129.044 131.735 141.958 118.616 138.622C135.891 153.81 153.594 153.213 160.88 139.144C168.166 125.094 172.731 108.584 172.209 101.745C171.688 94.9058 182.775 90.7503 186.595 98.4464C190.21 103.44 192.931 96.5642 192.931 96.5642Z" fill="#12284A"/>
<path d="M214.771 139.424C216.616 136.685 215.162 135.641 213.876 137.188C216.262 134.318 215.423 132.809 214.845 132.566C213.709 132.063 212.721 132.995 211.137 135.119C213.485 131.486 211.696 128.523 209.684 131.728C207.019 137.933 199.789 148.387 197.422 150.81C197.627 150.195 197.292 148.014 197.534 146.822C197.776 145.629 197.962 142.424 196.006 142.163C194.068 141.902 193.416 142.461 192.819 146.076C192.223 149.692 193.453 157.052 193.322 159.736C193.304 159.959 193.285 160.146 193.248 160.351C190.173 168.922 183.893 179.6 175.694 192.346C174.371 193.744 170.141 186.271 168.222 185.954C165.128 185.451 148.916 171.289 148.357 171.084L135.723 183.644C135.723 183.644 165.296 214.149 175.694 213.999C176.551 214.055 175.936 216.142 176.812 215.882C176.849 215.863 176.887 215.863 176.924 215.844C183.893 213.906 185.924 204.514 185.924 204.514C191.664 190.408 199.994 167.45 201.317 164.189C201.764 163.09 202.155 162.195 202.528 161.413C202.528 161.413 202.546 161.413 202.546 161.394C205.621 158.524 211.118 150.269 212.404 147.772C213.671 145.238 217.361 140.057 214.771 139.424Z" fill="#F9A88F"/>
<path d="M91.5216 242.697C91.5216 242.697 80.3036 149.859 157.171 135.082C167.998 141.325 170.979 188.153 170.979 194.396C170.979 200.638 136.655 229.373 136.655 229.373L91.5216 242.697Z" fill="#197589"/>
<path d="M199.472 324.577C199.472 324.577 200.609 328.602 199.472 332.627C198.335 336.652 195.223 341.441 196.435 347.926C197.646 354.411 199.975 364.679 199.975 364.679H203.124V348.187C203.124 348.187 212.498 361.343 213.541 363.43C214.585 365.517 232.269 366.132 236.014 365.927C239.76 365.722 232.474 360.094 225.821 354.895C219.169 349.696 211.808 334.323 211.845 326.701C211.864 319.098 199.472 324.577 199.472 324.577Z" fill="#FFBDA4"/>
<path d="M229.231 357.598C226.473 359.629 223.026 360.561 219.56 359.703C211.491 354.858 209.646 340.677 197.422 338.292C196.453 341.069 195.726 344.237 196.434 347.945C197.645 354.43 199.975 364.697 199.975 364.697H203.124V348.206C203.124 348.206 212.497 361.362 213.541 363.449C214.584 365.536 232.268 366.151 236.014 365.946C239.126 365.76 234.654 361.884 229.231 357.598Z" fill="#011651"/>
<path d="M91.4284 241.634C94.0186 241.187 204.168 193.408 216.429 209.341C228.672 225.273 213.839 326.776 213.839 326.776L198.41 326.161C198.41 326.161 191.235 268.096 193.378 255.312C195.54 242.51 197.385 234.479 194.142 236.081C190.9 237.684 159.351 254.455 127.654 264.835C95.938 275.233 95.8448 271.99 91.093 265.04C86.3226 258.107 91.4284 241.634 91.4284 241.634Z" fill="#011651"/>
<path d="M178.266 121.74C178.266 121.74 171.054 133.89 157.19 135.082C159.985 151.052 166.545 164.096 166.545 164.096C166.545 164.096 168.874 141.418 178.042 143.58C183.856 143.02 178.266 121.74 178.266 121.74Z" fill="#F9A88F"/>
<path d="M212.553 126.342C212.553 126.342 211.417 133.852 205.77 138.567C200.124 143.281 201.578 146.654 202.174 147.623C202.789 148.592 198.577 149.207 197.441 148.443C194.962 150.66 188.757 153.847 186.167 153.232C183.577 152.617 171.799 139.908 176.98 127.74C182.16 115.553 192.689 112.161 198.242 113.988C203.814 115.814 213.187 123.808 212.553 126.342Z" fill="#F9A88F"/>
<path d="M184.508 126.007C184.508 126.007 174.949 127.721 171.762 128.318C168.93 114.044 173.924 100.329 186.018 95.819C213.709 85.5141 222.97 112.255 221.013 122.056C220.976 127.982 210.746 135.958 210.746 135.958C208.603 126.696 198.484 124.088 198.484 124.088C198.484 124.088 192.074 129.436 188.571 130.386C187.695 127.796 184.508 126.007 184.508 126.007Z" fill="#12284A"/>
<path d="M191.123 96.2104C191.123 96.2104 187.527 92.7816 180.241 95.2414C172.973 97.6825 158.923 115.628 168.967 130.535C176.514 128.989 181.527 126.547 181.527 126.547C181.527 126.547 182.589 104.26 191.123 96.2104Z" fill="#12284A"/>
<path d="M188.72 130.684C188.72 130.684 195.558 120.715 188.645 119.299C181.713 117.882 180.241 129.66 182.291 130.759C184.359 131.858 184.788 134.97 188.72 130.684Z" fill="#F9A88F"/>
<path d="M213.653 136.74C215.125 133.777 213.522 132.939 212.46 134.634C214.435 131.467 213.41 130.088 212.796 129.92C211.603 129.585 210.746 130.628 209.46 132.939C211.286 129.025 209.125 126.342 207.559 129.771C205.752 136.274 200.012 147.604 197.981 150.325C198.112 149.673 197.478 147.567 197.552 146.356C197.627 145.144 197.366 141.939 195.41 141.939C193.453 141.939 192.875 142.573 192.782 146.244C192.689 149.915 194.888 157.033 195.111 159.717C195.13 159.94 195.13 160.145 195.13 160.35C193.229 169.258 184.862 184.277 178.471 197.992C177.353 199.557 177.614 196.725 175.676 196.688C172.545 196.613 140.27 168.344 139.692 168.214L128.865 182.376C128.865 182.376 173.495 219.776 183.782 218.229C184.639 218.173 185.515 217.968 186.353 217.596C186.39 217.577 186.428 217.558 186.465 217.54C193.117 214.67 193.844 205.11 193.844 205.11C197.627 190.352 202.789 166.5 203.646 163.071C203.925 161.934 204.205 160.984 204.466 160.145L204.485 160.127C207.149 156.884 211.473 147.94 212.404 145.293C213.355 142.666 216.318 137.02 213.653 136.74Z" fill="#FFBDA4"/>
<path d="M50.7678 323.571C50.7678 323.571 32.1146 279.463 57.2526 235.914C82.4093 192.365 84.0678 170.711 82.9497 158.506C91.8384 186.812 94.056 241.225 72.9616 266.195C51.8859 291.184 50.7678 323.571 50.7678 323.571Z" fill="#A1DEF1"/>
<path d="M50.7676 323.571C50.7676 323.571 41.5994 289.842 66.7561 246.312C91.9128 202.763 84.0676 170.73 82.9682 158.524C91.8569 186.83 94.0744 241.243 72.98 266.214C51.8857 291.184 50.7676 323.571 50.7676 323.571Z" fill="#79BDD2"/>
<path d="M43.2208 354.225C43.2208 354.225 61.874 310.117 36.736 266.568C11.5793 223.019 9.9208 201.365 11.0389 189.16C2.15018 217.465 -0.0673566 271.878 21.027 296.849C42.1213 321.838 43.2208 354.225 43.2208 354.225Z" fill="#A1DEF1"/>
<path d="M43.2207 354.225C43.2207 354.225 52.389 320.496 27.2323 276.966C2.0756 233.417 9.92074 201.384 11.0202 189.178C2.13148 217.484 -0.0859995 271.897 21.0083 296.867C42.1213 321.838 43.2207 354.225 43.2207 354.225Z" fill="#79BDD2"/>
<path d="M44.8606 298.582C44.8606 298.582 16.6851 235.895 38.4503 189.16C60.2155 142.405 49.631 92.6884 49.631 92.6884C72.8497 139.647 67.4457 204.57 57.1594 222.068C46.8918 239.566 44.8606 298.582 44.8606 298.582Z" fill="#79BDD2"/>
<path d="M44.8606 298.582C44.8606 298.582 16.6851 235.895 38.4503 189.16C60.2155 142.405 49.631 92.6884 49.631 92.6884C72.9801 161.841 52.4449 185.153 46.3327 213.068C41.9722 232.876 44.8606 298.582 44.8606 298.582Z" fill="#A1DEF1"/>
<path d="M0.826904 307.974V348.783C0.826904 366.337 15.1942 380.704 32.7479 380.704H48.1401C65.6939 380.704 80.0611 366.337 80.0611 348.783V307.974H0.826904Z" fill="#FD7253"/>
<path d="M60.5135 307.974V348.783C60.5135 365.629 47.2643 379.512 30.6796 380.593C31.369 380.63 32.0585 380.704 32.7666 380.704H48.1588C65.7126 380.704 80.0798 366.337 80.0798 348.783V307.974H60.5135Z" fill="#FA9479"/>
</svg>
