<svg width="331" height="67" viewBox="0 0 331 67" fill="none" xmlns="http://www.w3.org/2000/svg">
<path d="M2.8513 42.5637C2.8513 42.5637 6.94548 48.1389 14.1849 48.1389C18.2791 48.1389 21.9346 46.1592 21.9346 42.2686C21.9346 34.1971 1.31598 35.6646 1.31598 23.7759C1.31598 17.097 7.01859 13.795 14.4043 13.795C18.1329 13.795 25.5901 15.2626 25.5901 20.4739V23.6292H20.9111V21.8681C20.9111 19.1531 16.9631 18.1258 14.5505 18.1258C9.43275 18.1258 6.36211 19.8869 6.36211 23.4824C6.36211 31.7756 26.9807 29.8678 26.9807 42.1219C26.9807 48.2856 21.4244 52.4697 14.1118 52.4697C4.53284 52.4697 0 46.0109 0 46.0109L2.8513 42.5637ZM36.1881 5.94513C36.1881 4.91784 35.6032 4.33082 34.5796 4.33082H31.509V0H36.6998C39.8436 0 41.1611 1.10067 41.1611 4.25591V28.7671H44.9628C46.3519 28.7671 48.1066 28.3269 49.1301 27.0061L58.5613 14.6786H64.6295L54.027 28.1816C52.1992 30.4564 51.2488 30.8248 51.2488 30.8248V30.9715C51.2488 30.9715 52.3454 31.4852 53.5152 33.6865L60.1698 45.6486C60.8278 46.8945 61.5589 47.2629 63.5328 47.2629H65.5068V51.5922H62.0706C58.4151 51.5922 57.3916 51.0052 55.71 47.9233L48.3975 34.7138C47.5933 33.2462 45.8386 33.0995 44.5226 33.0995H41.1596V51.5922H36.1866V5.94513H36.1881ZM74.0607 62.5224C77.2776 62.5224 79.4709 59.8808 80.86 56.5039L83.0533 51.4409L70.1112 20.6941C69.5264 19.3733 68.8684 19.0064 67.5524 19.0064H66.8213V14.6771H69.0877C72.3777 14.6771 73.4012 15.4109 74.7172 18.7129L84.1484 41.755C84.8795 43.5894 85.4644 45.7174 85.4644 45.7174H85.6106C85.6106 45.7174 86.1224 43.5894 86.8535 41.755L95.9192 18.7129C97.162 15.4109 98.2587 14.6771 101.623 14.6771H103.89V19.0064H103.159C101.843 19.0064 101.112 19.3733 100.6 20.6941L84.7333 59.2938C82.8309 63.99 79.1038 67 74.2039 67C69.0862 67 66.2333 63.403 66.2333 63.403L68.5729 59.7341C68.5759 59.809 70.9155 62.5224 74.0607 62.5224ZM126.335 13.2829C137.009 13.2829 142.859 21.1343 142.859 31.0418C142.859 32.1425 142.638 34.4906 142.638 34.4906H116.902C117.633 41.0961 122.458 44.5449 128.088 44.5449C134.084 44.5449 138.544 40.3623 138.544 40.3623L142.419 46.8211C142.419 46.8211 136.716 52.4712 127.43 52.4712C115.073 52.4712 107.396 43.5191 107.396 32.8778C107.396 21.3545 115.147 13.2829 126.335 13.2829ZM133.352 28.0334C133.205 23.5573 130.136 20.4755 126.335 20.4755C121.581 20.4755 118.218 23.3372 117.194 28.0334H133.352ZM151.847 23.7025C151.847 22.6019 151.262 22.0882 150.239 22.0882H147.313V14.1634H155.868C159.158 14.1634 160.766 15.7044 160.766 18.346V19.4466C160.766 20.2538 160.62 21.0609 160.62 21.0609H160.766C162.375 17.9057 166.396 13.2829 173.928 13.2829C182.191 13.2829 186.943 17.6122 186.943 27.5197V42.1234C186.943 43.1507 187.528 43.7393 188.551 43.7393H191.477V51.5907H182.63C179.119 51.5907 177.656 50.1231 177.656 46.5995V29.4275C177.656 24.8766 176.487 21.7947 171.808 21.7947C166.835 21.7947 163.106 24.95 161.79 29.4275C161.278 30.9685 161.06 32.6562 161.06 34.4172V51.5891H151.847V23.7025ZM211.653 13.2829C220.281 13.2829 223.133 18.5661 223.133 18.5661H223.279V17.6122C223.279 15.9245 224.45 14.1634 227.373 14.1634H236V22.0882H233.149C232.198 22.0882 231.54 22.6019 231.54 23.5558V49.3129C231.54 62.154 221.597 66.9985 211.872 66.9985C207.193 66.9985 202.22 65.6777 198.638 63.7699L201.49 56.4305C201.49 56.4305 206.095 58.9269 211.8 58.9269C217.43 58.9269 222.328 56.5039 222.328 49.7532V47.9921C222.328 47.1116 222.401 46.0109 222.401 46.0109H222.255C220.062 49.1661 216.844 50.8554 211.874 50.8554C201.198 50.8554 195.13 42.1953 195.13 31.9209C195.13 21.6464 200.904 13.2829 211.653 13.2829ZM222.548 31.9958C222.548 23.4824 218.307 21.2077 213.261 21.2077C207.632 21.2077 204.56 25.3169 204.56 31.6273C204.56 38.1595 207.849 43.0024 213.846 43.0024C218.307 43.0039 222.548 40.4342 222.548 31.9958Z" fill="#225F6C"/>
<path d="M261.473 5.12305H260.625V12.3255H261.473V5.12305Z" fill="#DEDEDE"/>
<path d="M262.664 10.8633H259.397V66.9486H262.664V10.8633Z" fill="#DEDEDE"/>
<path d="M263.08 4.03979C263.08 5.17702 262.159 6.07959 261.04 6.07959C259.903 6.07959 259 5.15897 259 4.03979C259 2.90256 259.921 2 261.04 2C262.177 2 263.08 2.92061 263.08 4.03979Z" fill="#DEDEDE"/>
<path d="M261.04 7.03613C261.04 7.03613 258.314 7.79429 259.271 9.50916C259.271 9.50916 259.542 10.0868 261.04 10.0868C262.538 10.0868 262.809 9.50916 262.809 9.50916C263.766 7.79429 261.04 7.03613 261.04 7.03613Z" fill="#DEDEDE"/>
<path d="M268.279 14.0586H261.527V16.7843H268.279V14.0586Z" fill="#DEDEDE"/>
<path d="M268.279 49.6377H261.527V52.3634H268.279V49.6377Z" fill="#DEDEDE"/>
<path d="M268.91 12.7051H266.762V56.1725H268.91V12.7051Z" fill="#DEDEDE"/>
<path d="M330.321 12.686H268.91V56.0091H330.321V12.686Z" fill="#197589"/>
<path d="M323.136 12.6689L268.91 51.1001V56.01H276.077L330.321 17.5789V12.6689H323.136Z" fill="white"/>
<path d="M324.959 12.6689L268.91 55.9378V56.01H274.127L330.248 12.6689H324.959Z" fill="#FF2B55"/>
<path d="M275.842 12.6689H268.91V17.7594L322.92 56.01H330.321V51.2626L275.842 12.6689Z" fill="white"/>
<path d="M269.813 12.6689H268.91V16.0445L329.219 56.01H330.321V52.7608L269.813 12.6689Z" fill="#FF2B55"/>
<path d="M304.76 12.686H294.543V56.0091H304.76V12.686Z" fill="white"/>
<path d="M330.321 27.0376H268.91V42.1465H330.321V27.0376Z" fill="white"/>
<path d="M330.321 30.1421H268.91V39.0414H330.321V30.1421Z" fill="#FF2B55"/>
<path d="M302.793 12.686H296.511V56.0091H302.793V12.686Z" fill="#FF2B55"/>
</svg>
