<svg width="87" height="87" viewBox="0 0 87 87" fill="none" xmlns="http://www.w3.org/2000/svg">
<g clip-path="url(#clip0)">
<path d="M66.8161 12.8023V82.3345C66.8161 84.8695 64.8244 86.8614 62.2892 86.8614H4.52689C1.99175 87.0424 0 85.0506 0 82.5156V12.8023C0 10.2673 1.99175 8.27539 4.52689 8.27539H62.2894C64.8244 8.27539 66.8161 10.4483 66.8161 12.8023Z" fill="#66C6B9"/>
<path d="M59.0301 15.5183H7.78625V79.2562H59.0301V15.5183Z" fill="white"/>
<path d="M47.8034 18.7778V8.81873C47.8034 7.3702 46.717 6.28375 45.2685 6.28375H39.4742C39.4742 3.02443 36.7581 0.127197 33.3176 0.127197C30.0583 0.127197 27.3422 2.8433 27.3422 6.28375H21.5479C20.0994 6.28375 19.0129 7.3702 19.0129 8.81873V18.7778H47.8034ZM33.4986 4.11087C34.585 4.11087 35.6715 5.01618 35.6715 6.28375C35.6715 7.37019 34.7662 8.45664 33.4986 8.45664C32.4121 8.45664 31.3257 7.55133 31.3257 6.28375C31.3257 5.01618 32.2312 4.11087 33.4986 4.11087Z" fill="#415A6B"/>
<path d="M24.0829 37.4283H14.1238V27.4692H24.0829V37.4283ZM15.2102 36.3419H23.1774V28.3747H15.2102V36.3419Z" fill="#CED6E0"/>
<path d="M17.021 35.9797C16.6589 35.9797 16.2966 35.7985 15.9345 35.4364L11.9509 31.4529C11.4077 30.9097 11.4077 29.8233 11.9509 29.28C12.4941 28.7368 13.5805 28.7368 14.1238 29.28L16.8399 31.9961L22.6342 26.2018C23.1774 25.6586 24.2638 25.6586 24.807 26.2018C25.3503 26.7451 25.3503 27.8315 24.807 28.3747L18.1073 35.6177C17.9263 35.7987 17.3831 35.9797 17.021 35.9797Z" fill="#F3705A"/>
<path d="M24.0829 55.7169H14.1238V45.7578H24.0829V55.7169ZM15.2102 54.8116H23.1774V46.8444H15.2102V54.8116Z" fill="#CED6E0"/>
<path d="M17.021 54.2682C16.6589 54.2682 16.2966 54.087 15.9345 53.725L11.9509 49.7413C11.4077 49.1981 11.4077 48.1116 11.9509 47.5684C12.6752 47.2063 13.5805 47.2063 14.3049 47.7495L17.021 50.4656L22.8153 44.6713C23.3585 44.1281 24.445 44.1281 24.9882 44.6713C25.5314 45.2146 25.5314 46.301 24.9882 46.8442L18.1074 53.9061C17.9263 54.2682 17.3831 54.2682 17.021 54.2682Z" fill="#F3705A"/>
<path d="M24.0829 74.1861H14.1238V64.2271H24.0829V74.1861ZM15.2102 73.0997H23.1774V65.1325H15.2102V73.0997Z" fill="#CED6E0"/>
<path d="M17.021 72.7379C16.6589 72.7379 16.2966 72.5568 15.9345 72.1947L11.9509 68.211C11.4077 67.6678 11.4077 66.5813 11.9509 66.0381C12.4941 65.4949 13.5805 65.4949 14.1238 66.0381L17.021 68.9354L22.8153 63.1411C23.3585 62.5978 24.445 62.5978 24.9882 63.1411C25.5314 63.6843 25.5314 64.7707 24.9882 65.3139L18.1074 72.1947C17.9263 72.5568 17.3831 72.7379 17.021 72.7379Z" fill="#F3705A"/>
<path d="M79.8394 2.88456L73.8979 10.8765L79.565 15.0895L85.5064 7.09757L79.8394 2.88456Z" fill="#415A6B"/>
<path d="M73.878 10.4485C77.6805 9.18098 82.9316 11.3539 82.9316 11.3539L53.0545 51.5522C48.3466 57.8897 42.5521 63.503 35.8525 68.0299C38.2066 60.4248 42.0091 53.363 46.717 46.8443L73.878 10.4485Z" fill="#F3705A"/>
<path d="M53.6746 50.4412L57.8876 44.7742L51.6394 40.1291L47.4264 45.7961L53.6746 50.4412Z" fill="#415A6B"/>
<path d="M81.121 3.74877L84.5614 6.28374L86.5532 3.56764C87.2775 2.66233 87.0964 1.39476 86.1911 0.670405C85.1047 -0.234906 83.8371 0.127184 83.1129 1.0325L81.121 3.74877Z" fill="#F3705A"/>
<path d="M80.2155 6.1026L79.1291 7.55113L76.413 5.55938L68.0836 16.0617C68.8079 16.967 68.2647 17.6914 67.5404 18.7778C66.816 19.8642 65.7296 20.5886 64.6431 19.6831C64.281 19.321 64.0999 18.7778 64.462 18.4155L75.3264 3.74859C75.6885 3.3865 76.2317 3.20537 76.594 3.56746L80.2155 6.1026Z" fill="#415A6B"/>
</g>
<defs>
<clipPath id="clip0">
<rect width="87" height="87" fill="white"/>
</clipPath>
</defs>
</svg>
