<svg width="87" height="87" viewBox="0 0 87 87" fill="none" xmlns="http://www.w3.org/2000/svg">
<path d="M23.8808 1.86919C19.3864 1.85981 15.001 3.25312 11.3361 5.85488C7.67127 8.45663 4.90961 12.1371 3.4362 16.3832C1.96278 20.6293 1.85105 25.2294 3.11659 29.542C4.38213 33.8546 6.96185 37.6648 10.4961 40.4415H37.2656C40.7998 37.6648 43.3795 33.8546 44.645 29.542C45.9106 25.2294 45.7988 20.6293 44.3254 16.3832C42.852 12.1371 40.0904 8.45663 36.4255 5.85488C32.7607 3.25312 28.3753 1.85981 23.8808 1.86919Z" fill="#197589"/>
<path d="M63.1192 41.8552C58.4602 41.8555 53.9256 43.3594 50.1898 46.1434C46.4541 48.9274 43.7166 52.8428 42.3845 57.3073C41.0524 61.7719 41.1969 66.5471 42.7963 70.923C44.3958 75.2989 47.3649 79.0417 51.262 81.5949L74.978 81.5932C78.8748 79.0398 81.8434 75.2969 83.4425 70.9211C85.0416 66.5453 85.1857 61.7703 83.8535 57.306C82.5212 52.8418 79.7837 48.9267 76.048 46.1429C72.3124 43.3592 67.778 41.8554 63.1192 41.8552Z" fill="#FD7253"/>
<path d="M37.2129 40.489V34.732C37.2219 34.0788 37.1098 33.4295 36.8824 32.817C36.8586 32.7592 36.8438 32.7015 36.8181 32.6437C36.524 31.9951 36.0995 31.414 35.571 30.9366C35.0426 30.4593 34.4215 30.0958 33.7465 29.8689L32.9648 29.5681C31.7669 29.1552 30.5427 28.8867 29.3006 28.5469H18.4586C17.2165 28.8867 15.9913 29.1552 14.7917 29.5681L14.01 29.8536C13.3342 30.082 12.7124 30.4469 12.1834 30.9255C11.6543 31.4042 11.2292 31.9864 10.9344 32.636C10.9089 32.6938 10.8971 32.755 10.8733 32.8131C10.6425 33.4262 10.5279 34.077 10.5351 34.732V40.489L10.5079 40.5094C13.5491 42.9137 17.1838 44.4508 21.0273 44.9579L26.5994 44.9783C28.7996 44.6953 30.9452 44.0848 32.9648 43.167V43.1653C34.4951 42.448 35.9376 41.5568 37.2638 40.5094L37.2129 40.489Z" fill="#F3CE7D"/>
<path d="M74.6467 71.6747C74.6263 71.6238 74.6147 71.5728 74.5926 71.5201C74.332 70.9453 73.9558 70.4302 73.4876 70.0069C73.0193 69.5836 72.469 69.2612 71.8708 69.0597L71.1784 68.8337C70.1231 68.4488 69.0353 68.1593 67.9283 67.9688H58.3107C57.203 68.1596 56.1146 68.449 55.0584 68.8337L54.3651 69.0664C53.7661 69.2669 53.2146 69.5885 52.7452 70.0112C52.2757 70.4339 51.8982 70.9487 51.6362 71.5235C51.6141 71.5762 51.6192 71.6255 51.5988 71.6764C51.4007 72.22 51.3051 72.7956 51.3167 73.374V81.5948C54.0894 83.4241 57.2503 84.5819 60.5486 84.9762L65.5613 84.9915C68.9117 84.6202 72.1252 83.4552 74.935 81.5931V73.374C74.9454 72.7946 74.8476 72.2183 74.6467 71.6747Z" fill="#6994FE"/>
<path d="M81.4775 12.9141H60.5703C59.6961 12.9164 58.8582 13.2639 58.2389 13.881C57.6197 14.498 57.2691 15.3347 57.2636 16.2088V20.6098C57.2636 25.162 52.3427 24.6693 51.2722 24.97C51.2008 24.9904 51.1821 25.0108 51.2178 25.0329C51.2178 25.0329 52.1396 27.9776 56.3588 28.7219C56.6172 28.7743 56.8491 28.9155 57.0144 29.1209C57.1797 29.3264 57.2678 29.5831 57.2636 29.8468V30.8068C57.2671 31.6865 57.6153 32.5298 58.2336 33.1556C58.8518 33.7815 59.6907 34.14 60.5703 34.1543H81.4775C82.3578 34.1403 83.1976 33.7821 83.817 33.1564C84.4363 32.5307 84.786 31.6872 84.791 30.8068V16.2054C84.7832 15.3311 84.431 14.4951 83.8106 13.8788C83.1903 13.2626 82.3519 12.916 81.4775 12.9141Z" fill="#197589"/>
<path d="M63.1192 71.3926L65.2041 72.339L65.1854 72.3798L64.5448 74.4979H64.5414H61.8533H61.8516L61.301 72.2184L63.1192 71.3926Z" fill="#4CA987"/>
<path d="M65.578 84.978L65.5797 84.9916C63.8986 85.1823 62.201 85.1772 60.5211 84.9763L60.5245 84.9542L61.8533 74.498H64.5415L65.578 84.978Z" fill="#5FCDA4"/>
<path d="M60.1523 64.7148L60.1804 67.6409C60.2137 68.2843 60.4931 68.8902 60.9608 69.3333L63.1131 71.3928L65.267 69.3333C65.7391 68.8928 66.0253 68.2887 66.0672 67.6443L66.0996 64.7131L60.1523 64.7148Z" fill="#EFC597"/>
<path d="M66.0775 67.646L66.0418 67.6443C66.0107 68.2854 65.7346 68.89 65.2704 69.3333L63.1191 71.3928L67.2279 73.2568L67.9177 68.0045L67.9296 67.9417C67.3162 67.8193 66.6988 67.7208 66.0775 67.646Z" fill="#94B8FF"/>
<path d="M60.9731 69.3281C60.7397 69.1093 60.5517 68.8465 60.4199 68.555C60.2881 68.2634 60.2151 67.9487 60.2051 67.6289H60.1983C59.5644 67.7988 58.9357 67.8099 58.3104 67.9356L58.3223 68.0014L59.0122 73.2552L63.1192 71.3889L60.9731 69.3281Z" fill="#94B8FF"/>
<path d="M35.7278 64.9543C34.6573 64.6553 29.7363 65.148 29.7363 60.5941V56.1932C29.7328 55.3135 29.3846 54.4702 28.7664 53.8444C28.1482 53.2185 27.3092 52.86 26.4296 52.8457H5.52246C4.64199 52.8601 3.80215 53.2187 3.18283 53.8447C2.5635 54.4707 2.21393 55.3143 2.20898 56.1949V70.7929C2.2161 71.6676 2.56813 72.5041 3.18857 73.1207C3.80901 73.7374 4.64772 74.0842 5.52246 74.0859H26.4296C27.3037 74.0842 28.1417 73.7371 28.7611 73.1203C29.3804 72.5035 29.7309 71.6669 29.7363 70.7929V69.8311C29.7317 69.5681 29.8194 69.3117 29.984 69.1066C30.1487 68.9014 30.38 68.7604 30.6378 68.7079C34.8569 67.962 35.7886 65.0172 35.7886 65.0172C35.8243 64.9951 35.7991 64.9747 35.7278 64.9543Z" fill="#FD7253"/>
<path d="M27.2147 28.2749L27.1756 28.2732C27.141 28.9958 26.8294 29.6773 26.3056 30.1763L23.8809 32.4991L28.5112 34.5994L29.2895 28.6793L29.3031 28.6079C28.6115 28.472 27.9154 28.361 27.2147 28.2749Z" fill="#FFE2A9"/>
<path d="M20.5605 25.4883L20.5792 28.2699C20.6151 28.9941 20.9281 29.6767 21.4535 30.1764L23.8771 32.4993L26.3039 30.1764C26.8291 29.6779 27.1424 28.9965 27.179 28.2733L27.1875 25.3184L20.5605 25.4883Z" fill="#EFC597"/>
<path d="M25.4849 35.9998L26.5826 44.9784C24.7365 45.2071 22.8688 45.2002 21.0244 44.958L22.4535 35.9998H25.4849Z" fill="#E77187"/>
<path d="M21.4611 30.1451C21.191 29.8993 20.9747 29.6004 20.8255 29.2671C20.6764 28.9337 20.5978 28.5732 20.5945 28.208H20.586C19.8724 28.3779 19.1621 28.4366 18.4586 28.5776L18.4722 28.6646L19.2488 34.5927L23.8808 32.4805L21.4611 30.1451Z" fill="#FFE2A9"/>
<path d="M23.8808 32.4995L26.2308 33.5666L26.2104 33.6125L25.4866 35.9999H25.4849H22.4534H22.45L21.8298 33.429L23.8808 32.4995Z" fill="#C16578"/>
<path d="M66.0452 65.053C64.8531 65.6734 63.4945 65.8985 62.166 65.6957C60.8375 65.4928 59.608 64.8726 58.6553 63.9247C57.5117 62.788 56.8048 61.0462 56.8048 59.3113V59.3012C56.5885 59.2639 56.3822 59.1825 56.1986 59.0621C56.0151 58.9417 55.8582 58.7849 55.7379 58.6013C55.6176 58.4177 55.5363 58.2113 55.4992 57.9949C55.462 57.7786 55.4698 57.5569 55.5219 57.3437C55.5826 57.0961 55.7199 56.8741 55.9143 56.7093C56.1087 56.5445 56.3502 56.4454 56.6043 56.4261L56.6128 56.4244C56.6297 56.4976 56.6625 56.5661 56.7089 56.6252C56.7553 56.6842 56.8142 56.7323 56.8813 56.7659C56.8813 56.7659 58.4803 57.1398 58.4888 57.048L58.7114 54.2817C58.7141 54.2478 58.7234 54.2149 58.7389 54.1846C58.7544 54.1544 58.7757 54.1276 58.8016 54.1056C58.8275 54.0837 58.8575 54.0671 58.8898 54.0567C58.9222 54.0464 58.9562 54.0426 58.99 54.0455H58.9968L59.4998 54.0999C60.5529 54.213 61.6172 54.0445 62.5839 53.6116C63.5506 53.1787 64.385 52.497 65.0019 51.636C66.5363 52.6725 67.6297 54.2432 68.069 56.0421L68.3765 57.2995L69.4385 56.8067C69.5451 56.7053 69.615 56.5714 69.6374 56.4261H69.6391C69.8926 56.4461 70.1333 56.5455 70.327 56.7103C70.5207 56.875 70.6576 57.0967 70.7181 57.3437C70.7697 57.5566 70.7771 57.7779 70.7399 57.9938C70.7027 58.2098 70.6217 58.4158 70.5018 58.5992C70.3819 58.7826 70.2257 58.9395 70.0428 59.0603C69.86 59.181 69.6543 59.263 69.4385 59.3012V59.3113C69.4385 61.0462 68.7317 62.788 67.5881 63.9247C67.1344 64.3773 66.6141 64.7578 66.0452 65.053Z" fill="#FFD8B7"/>
<path d="M63.1226 47.3284C64.0365 47.326 64.9412 47.5117 65.7803 47.8739C66.6195 48.236 67.3751 48.7669 68.0003 49.4336C68.6256 50.1002 69.1069 50.8884 69.4146 51.749C69.7222 52.6096 69.8496 53.5243 69.7886 54.4362L69.6425 56.5484C69.6408 56.5636 69.6391 56.5806 69.6374 56.5959C69.615 56.7413 69.5451 56.8752 69.4386 56.9766L68.3766 57.4693L68.069 56.2119C67.6298 54.4131 66.5363 52.8423 65.0019 51.8058C64.385 52.6668 63.5506 53.3486 62.5839 53.7815C61.6173 54.2144 60.553 54.3828 59.4999 54.2697L58.9969 54.2153H58.9901C58.9563 54.2124 58.9222 54.2163 58.8899 54.2266C58.8575 54.2369 58.8275 54.2535 58.8016 54.2755C58.7757 54.2974 58.7544 54.3243 58.739 54.3545C58.7235 54.3847 58.7141 54.4177 58.7114 54.4515L58.4888 57.2178C58.4803 57.3096 56.8814 56.9358 56.8814 56.9358C56.8142 56.9021 56.7553 56.8541 56.7089 56.795C56.6625 56.736 56.6297 56.6674 56.6129 56.5942C56.6057 56.5664 56.6012 56.5379 56.5993 56.5093L56.4549 54.4362C56.4447 54.2799 56.4379 54.1236 56.4379 53.9706C56.4448 52.2038 57.1527 50.5119 58.4061 49.2665C59.6594 48.0212 61.3557 47.3241 63.1226 47.3284Z" fill="#4B4B4B"/>
<path d="M31.8842 18.343C31.9347 18.5478 31.9444 18.7605 31.9126 18.969C31.8808 19.1774 31.8083 19.3776 31.699 19.558C31.5898 19.7384 31.4461 19.8955 31.2761 20.0203C31.1061 20.1451 30.9132 20.2351 30.7083 20.2853C30.5809 20.3158 30.4502 20.3312 30.3192 20.3311H30.2104C30.1272 22.5469 28.9156 24.6251 27.1484 25.6905C26.1635 26.2821 25.0363 26.595 23.8873 26.5956C22.7383 26.5962 21.6107 26.2845 20.6251 25.6939C18.8461 24.6268 17.6379 22.5401 17.5547 20.3311H17.4408C17.015 20.3327 16.606 20.1652 16.3036 19.8654C16.0013 19.5656 15.8303 19.158 15.8283 18.7322C15.8279 18.601 15.8439 18.4703 15.8758 18.343C15.9544 18.0374 16.148 17.774 16.4162 17.6078C16.6844 17.4416 17.0064 17.3854 17.3151 17.451H17.366V17.4442C18.2989 14.4909 20.236 13.2318 21.5852 12.6982C22.62 13.9047 24.2683 14.5249 27.4101 14.7152C27.4101 14.7152 28.0235 17.191 30.3991 17.4425H30.4449C30.7546 17.3787 31.0769 17.4367 31.345 17.6044C31.613 17.7721 31.8061 18.0367 31.8842 18.343Z" fill="#FFD8B7"/>
<path d="M27.7941 9.4189L27.7295 9.51405C27.4143 9.29575 27.087 9.09549 26.7491 8.91423C23.7958 7.31866 20.4756 9.22009 20.0355 9.48856L20.0032 9.4189C20.0032 8.38576 20.4136 7.39493 21.1441 6.66439C21.8747 5.93385 22.8655 5.52344 23.8986 5.52344C24.9318 5.52344 25.9226 5.93385 26.6531 6.66439C27.3837 7.39493 27.7941 8.38576 27.7941 9.4189Z" fill="#4A5160"/>
<path d="M29.1382 10.6406C28.7347 10.1417 28.2601 9.7049 27.7295 9.34407C27.4143 9.12577 27.087 8.92551 26.7491 8.74425C23.7959 7.14868 20.4756 9.05011 20.0355 9.31858C20.0032 9.33728 19.9862 9.34917 19.9862 9.34917C19.0561 10.0086 18.3113 10.8963 17.8236 11.9269C17.3358 12.9574 17.1215 14.0962 17.2012 15.2336L17.366 17.6142C18.2989 14.6609 20.236 13.4018 21.5852 12.8683C22.62 14.0747 24.2682 14.6949 27.4101 14.8852C27.4101 14.8852 28.0235 17.361 30.399 17.6125L30.5638 15.2336C30.6816 13.5779 30.1728 11.9385 29.1382 10.6406Z" fill="#4A5160"/>
<path d="M29.1382 10.6406C30.1727 11.9385 30.6816 13.5779 30.5638 15.2336L30.399 17.6125C28.0235 17.361 27.4101 14.8852 27.4101 14.8852C24.2682 14.6949 22.62 14.0747 21.5852 12.8683C20.8528 12.0152 20.428 10.8717 19.9998 9.37636C19.9963 9.36681 19.9917 9.3577 19.9862 9.34917C19.9862 9.34917 20.0032 9.33728 20.0355 9.31858C20.4756 9.05011 23.7959 7.14868 26.7491 8.74425C27.087 8.92551 27.4143 9.12577 27.7295 9.34407C28.2601 9.7049 28.7347 10.1417 29.1382 10.6406Z" fill="#756D60"/>
<path d="M62.3613 30.8068V29.8468C62.3662 29.5835 62.2787 29.3268 62.114 29.1213C61.9494 28.9158 61.7179 28.7745 61.4599 28.7219C57.2407 27.9776 56.316 25.0329 56.316 25.0329C56.2801 25.0108 56.2952 24.9904 56.367 24.97C57.4375 24.6693 62.3616 25.162 62.3616 20.6098V16.2088C62.3671 15.3347 62.7176 14.4981 63.3368 13.8811C63.956 13.2641 64.7938 12.9165 65.668 12.9141H60.5703C59.6961 12.9164 58.8582 13.2639 58.2389 13.881C57.6197 14.498 57.2691 15.3347 57.2636 16.2088V20.6098C57.2636 25.162 52.3427 24.6693 51.2722 24.97C51.2008 24.9904 51.1821 25.0108 51.2178 25.0329C51.2178 25.0329 52.1396 27.9776 56.3588 28.7219C56.6172 28.7743 56.8491 28.9155 57.0144 29.1209C57.1797 29.3264 57.2678 29.5831 57.2636 29.8468V30.8068C57.2671 31.6865 57.6153 32.5298 58.2336 33.1556C58.8518 33.7815 59.6907 34.14 60.5703 34.1543H65.668C64.7884 34.14 63.9494 33.7815 63.3312 33.1556C62.713 32.5298 62.3648 31.6865 62.3613 30.8068Z" fill="#225F6C"/>
<path d="M7.30664 70.7929V56.1949C7.31159 55.3143 7.66116 54.4707 8.28048 53.8447C8.89981 53.2187 9.73965 52.8601 10.6201 52.8457H5.52246C4.64199 52.8601 3.80215 53.2187 3.18283 53.8447C2.5635 54.4707 2.21393 55.3143 2.20898 56.1949V70.7929C2.2161 71.6676 2.56813 72.5041 3.18857 73.1207C3.80901 73.7374 4.64772 74.0842 5.52246 74.0859H10.6201C9.74538 74.0842 8.90666 73.7374 8.28622 73.1207C7.66578 72.5041 7.31376 71.6676 7.30664 70.7929Z" fill="#E77460"/>
<path d="M78.9838 22.6519H78.2845C78.0141 22.6519 77.7548 22.5444 77.5636 22.3532C77.3724 22.162 77.265 21.9027 77.265 21.6323C77.265 21.3619 77.3724 21.1026 77.5636 20.9114C77.7548 20.7202 78.0141 20.6128 78.2845 20.6128H78.9838C79.2542 20.6128 79.5135 20.7202 79.7047 20.9114C79.8959 21.1026 80.0033 21.3619 80.0033 21.6323C80.0033 21.9027 79.8959 22.162 79.7047 22.3532C79.5135 22.5444 79.2542 22.6519 78.9838 22.6519Z" fill="white"/>
<path d="M75.3286 22.6519H72.538C72.2676 22.6519 72.0082 22.5444 71.817 22.3532C71.6258 22.162 71.5184 21.9027 71.5184 21.6323C71.5184 21.3619 71.6258 21.1026 71.817 20.9114C72.0082 20.7202 72.2676 20.6128 72.538 20.6128H75.3286C75.599 20.6128 75.8583 20.7202 76.0495 20.9114C76.2407 21.1026 76.3481 21.3619 76.3481 21.6323C76.3481 21.9027 76.2407 22.162 76.0495 22.3532C75.8583 22.5444 75.599 22.6519 75.3286 22.6519Z" fill="white"/>
<path d="M69.8243 22.6519H63.2339C62.9635 22.6519 62.7042 22.5444 62.513 22.3532C62.3218 22.162 62.2144 21.9027 62.2144 21.6323C62.2144 21.3619 62.3218 21.1026 62.513 20.9114C62.7042 20.7202 62.9635 20.6128 63.2339 20.6128H69.8243C70.0947 20.6128 70.354 20.7202 70.5452 20.9114C70.7364 21.1026 70.8438 21.3619 70.8438 21.6323C70.8438 21.9027 70.7364 22.162 70.5452 22.3532C70.354 22.5444 70.0947 22.6519 69.8243 22.6519Z" fill="white"/>
<path d="M78.9838 18.9011H75.6403C75.3699 18.9011 75.1105 18.7937 74.9193 18.6025C74.7281 18.4113 74.6207 18.152 74.6207 17.8816C74.6207 17.6112 74.7281 17.3519 74.9193 17.1607C75.1105 16.9695 75.3699 16.8621 75.6403 16.8621H78.9838C79.2542 16.8621 79.5135 16.9695 79.7047 17.1607C79.8959 17.3519 80.0033 17.6112 80.0033 17.8816C80.0033 18.152 79.8959 18.4113 79.7047 18.6025C79.5135 18.7937 79.2542 18.9011 78.9838 18.9011Z" fill="white"/>
<path d="M72.6843 18.9011H67.5807C67.3103 18.9011 67.051 18.7937 66.8598 18.6025C66.6686 18.4113 66.5612 18.152 66.5612 17.8816C66.5612 17.6112 66.6686 17.3519 66.8598 17.1607C67.051 16.9695 67.3103 16.8621 67.5807 16.8621H72.6843C72.9547 16.8621 73.214 16.9695 73.4052 17.1607C73.5964 17.3519 73.7038 17.6112 73.7038 17.8816C73.7038 18.152 73.5964 18.4113 73.4052 18.6025C73.214 18.7937 72.9547 18.9011 72.6843 18.9011Z" fill="white"/>
<path d="M64.867 18.9011H63.2339C62.9635 18.9011 62.7042 18.7937 62.513 18.6025C62.3218 18.4113 62.2144 18.152 62.2144 17.8816C62.2144 17.6112 62.3218 17.3519 62.513 17.1607C62.7042 16.9695 62.9635 16.8621 63.2339 16.8621H64.867C65.1374 16.8621 65.3967 16.9695 65.5879 17.1607C65.7791 17.3519 65.8865 17.6112 65.8865 17.8816C65.8865 18.152 65.7791 18.4113 65.5879 18.6025C65.3967 18.7937 65.1374 18.9011 64.867 18.9011Z" fill="white"/>
<path d="M78.9838 26.4021H75.6403C75.3699 26.4021 75.1105 26.2947 74.9193 26.1035C74.7281 25.9123 74.6207 25.653 74.6207 25.3826C74.6207 25.1122 74.7281 24.8528 74.9193 24.6617C75.1105 24.4705 75.3699 24.363 75.6403 24.363H78.9838C79.2542 24.363 79.5135 24.4705 79.7047 24.6617C79.8959 24.8528 80.0033 25.1122 80.0033 25.3826C80.0033 25.653 79.8959 25.9123 79.7047 26.1035C79.5135 26.2947 79.2542 26.4021 78.9838 26.4021Z" fill="white"/>
<path d="M72.6843 26.4021H67.5807C67.3103 26.4021 67.051 26.2947 66.8598 26.1035C66.6686 25.9123 66.5612 25.653 66.5612 25.3826C66.5612 25.1122 66.6686 24.8528 66.8598 24.6617C67.051 24.4705 67.3103 24.363 67.5807 24.363H72.6843C72.9547 24.363 73.214 24.4705 73.4052 24.6617C73.5964 24.8528 73.7038 25.1122 73.7038 25.3826C73.7038 25.653 73.5964 25.9123 73.4052 26.1035C73.214 26.2947 72.9547 26.4021 72.6843 26.4021Z" fill="white"/>
<path d="M64.867 26.4021H63.2339C62.9635 26.4021 62.7042 26.2947 62.513 26.1035C62.3218 25.9123 62.2144 25.653 62.2144 25.3826C62.2144 25.1122 62.3218 24.8528 62.513 24.6617C62.7042 24.4705 62.9635 24.363 63.2339 24.363H64.867C65.1374 24.363 65.3967 24.4705 65.5879 24.6617C65.7791 24.8528 65.8865 25.1122 65.8865 25.3826C65.8865 25.653 65.7791 25.9123 65.5879 26.1035C65.3967 26.2947 65.1374 26.4021 64.867 26.4021Z" fill="white"/>
<path d="M78.9838 30.1528H78.2845C78.0141 30.1528 77.7548 30.0454 77.5636 29.8542C77.3724 29.663 77.265 29.4037 77.265 29.1333C77.265 28.8629 77.3724 28.6036 77.5636 28.4124C77.7548 28.2212 78.0141 28.1138 78.2845 28.1138H78.9838C79.2542 28.1138 79.5135 28.2212 79.7047 28.4124C79.8959 28.6036 80.0033 28.8629 80.0033 29.1333C80.0033 29.4037 79.8959 29.663 79.7047 29.8542C79.5135 30.0454 79.2542 30.1528 78.9838 30.1528Z" fill="white"/>
<path d="M75.3286 30.1528H72.538C72.2676 30.1528 72.0082 30.0454 71.817 29.8542C71.6258 29.663 71.5184 29.4037 71.5184 29.1333C71.5184 28.8629 71.6258 28.6036 71.817 28.4124C72.0082 28.2212 72.2676 28.1138 72.538 28.1138H75.3286C75.599 28.1138 75.8583 28.2212 76.0495 28.4124C76.2407 28.6036 76.3481 28.8629 76.3481 29.1333C76.3481 29.4037 76.2407 29.663 76.0495 29.8542C75.8583 30.0454 75.599 30.1528 75.3286 30.1528Z" fill="white"/>
<path d="M69.8243 30.1528H63.2339C62.9635 30.1528 62.7042 30.0454 62.513 29.8542C62.3218 29.663 62.2144 29.4037 62.2144 29.1333C62.2144 28.8629 62.3218 28.6036 62.513 28.4124C62.7042 28.2212 62.9635 28.1138 63.2339 28.1138H69.8243C70.0947 28.1138 70.354 28.2212 70.5452 28.4124C70.7364 28.6036 70.8438 28.8629 70.8438 29.1333C70.8438 29.4037 70.7364 29.663 70.5452 29.8542C70.354 30.0454 70.0947 30.1528 69.8243 30.1528Z" fill="white"/>
<path d="M12.7972 11.4415C12.5884 11.4416 12.3845 11.3776 12.2133 11.2581C12.042 11.1386 11.9116 10.9694 11.8396 10.7734C11.7676 10.5774 11.7575 10.364 11.8108 10.1621C11.864 9.96014 11.9779 9.77943 12.1372 9.64437C12.3081 9.49943 12.4832 9.35551 12.6578 9.21957C12.7629 9.13509 12.8837 9.07229 13.0132 9.03481C13.1428 8.99733 13.2784 8.98591 13.4124 9.00122C13.5463 9.01652 13.6759 9.05825 13.7937 9.12398C13.9114 9.18971 14.0149 9.27813 14.0982 9.38414C14.1815 9.49014 14.243 9.61162 14.2791 9.74154C14.3151 9.87146 14.325 10.0072 14.3083 10.141C14.2915 10.2748 14.2483 10.4039 14.1813 10.5209C14.1143 10.6379 14.0247 10.7405 13.9178 10.8226C13.7632 10.9443 13.6079 11.0712 13.4561 11.1998C13.2722 11.3561 13.0386 11.4418 12.7972 11.4415Z" fill="#F4F8FC"/>
<path d="M6.73194 24.5269C6.46154 24.5269 6.20222 24.4195 6.01102 24.2283C5.81982 24.0371 5.7124 23.7778 5.7124 23.5074C5.71164 21.9668 5.90617 20.4324 6.29133 18.9407C6.84705 16.7915 7.79485 14.7635 9.08705 12.9585C9.16429 12.8481 9.26264 12.7541 9.37642 12.6819C9.4902 12.6098 9.61715 12.5609 9.74993 12.5381C9.88271 12.5153 10.0187 12.5191 10.15 12.5492C10.2813 12.5793 10.4054 12.6351 10.515 12.7134C10.6246 12.7917 10.7177 12.8909 10.7887 13.0054C10.8597 13.1199 10.9074 13.2473 10.9289 13.3803C10.9504 13.5133 10.9453 13.6492 10.9139 13.7803C10.8826 13.9113 10.8255 14.0348 10.7462 14.1437C9.59956 15.7453 8.75851 17.5448 8.26531 19.4518C7.92342 20.7766 7.75076 22.1393 7.75147 23.5074C7.75147 23.7778 7.64405 24.0371 7.45285 24.2283C7.26165 24.4195 7.00233 24.5269 6.73194 24.5269Z" fill="#F4F8FC"/>
<path d="M8.71546 62.637H8.01624C7.74584 62.637 7.48652 62.5295 7.29532 62.3383C7.10412 62.1472 6.9967 61.8878 6.9967 61.6174C6.9967 61.347 7.10412 61.0877 7.29532 60.8965C7.48652 60.7053 7.74584 60.5979 8.01624 60.5979H8.71546C8.98586 60.5979 9.24518 60.7053 9.43638 60.8965C9.62758 61.0877 9.735 61.347 9.735 61.6174C9.735 61.8878 9.62758 62.1472 9.43638 62.3383C9.24518 62.5295 8.98586 62.637 8.71546 62.637Z" fill="white"/>
<path d="M14.462 62.637H11.6714C11.401 62.637 11.1417 62.5295 10.9505 62.3383C10.7593 62.1472 10.6519 61.8878 10.6519 61.6174C10.6519 61.347 10.7593 61.0877 10.9505 60.8965C11.1417 60.7053 11.401 60.5979 11.6714 60.5979H14.462C14.7324 60.5979 14.9917 60.7053 15.1829 60.8965C15.3741 61.0877 15.4815 61.347 15.4815 61.6174C15.4815 61.8878 15.3741 62.1472 15.1829 62.3383C14.9917 62.5295 14.7324 62.637 14.462 62.637Z" fill="white"/>
<path d="M23.7661 62.637H17.1757C16.9053 62.637 16.6459 62.5295 16.4547 62.3383C16.2635 62.1472 16.1561 61.8878 16.1561 61.6174C16.1561 61.347 16.2635 61.0877 16.4547 60.8965C16.6459 60.7053 16.9053 60.5979 17.1757 60.5979H23.7661C24.0365 60.5979 24.2958 60.7053 24.487 60.8965C24.6782 61.0877 24.7856 61.347 24.7856 61.6174C24.7856 61.8878 24.6782 62.1472 24.487 62.3383C24.2958 62.5295 24.0365 62.637 23.7661 62.637Z" fill="white"/>
<path d="M11.3598 58.8867H8.01623C7.74584 58.8867 7.48652 58.7793 7.29532 58.5881C7.10412 58.3969 6.9967 58.1376 6.9967 57.8672C6.9967 57.5968 7.10412 57.3375 7.29532 57.1463C7.48652 56.9551 7.74584 56.8477 8.01623 56.8477H11.3598C11.6302 56.8477 11.8895 56.9551 12.0807 57.1463C12.2719 57.3375 12.3793 57.5968 12.3793 57.8672C12.3793 58.1376 12.2719 58.3969 12.0807 58.5881C11.8895 58.7793 11.6302 58.8867 11.3598 58.8867Z" fill="white"/>
<path d="M19.4194 58.8867H14.3158C14.0454 58.8867 13.7861 58.7793 13.5949 58.5881C13.4037 58.3969 13.2963 58.1376 13.2963 57.8672C13.2963 57.5968 13.4037 57.3375 13.5949 57.1463C13.7861 56.9551 14.0454 56.8477 14.3158 56.8477H19.4194C19.6898 56.8477 19.9491 56.9551 20.1403 57.1463C20.3315 57.3375 20.4389 57.5968 20.4389 57.8672C20.4389 58.1376 20.3315 58.3969 20.1403 58.5881C19.9491 58.7793 19.6898 58.8867 19.4194 58.8867Z" fill="white"/>
<path d="M23.7662 58.8867H22.1331C21.8627 58.8867 21.6033 58.7793 21.4121 58.5881C21.2209 58.3969 21.1135 58.1376 21.1135 57.8672C21.1135 57.5968 21.2209 57.3375 21.4121 57.1463C21.6033 56.9551 21.8627 56.8477 22.1331 56.8477H23.7662C24.0366 56.8477 24.2959 56.9551 24.4871 57.1463C24.6783 57.3375 24.7857 57.5968 24.7857 57.8672C24.7857 58.1376 24.6783 58.3969 24.4871 58.5881C24.2959 58.7793 24.0366 58.8867 23.7662 58.8867Z" fill="white"/>
<path d="M11.3598 66.3875H8.01623C7.74584 66.3875 7.48652 66.28 7.29532 66.0888C7.10412 65.8976 6.9967 65.6383 6.9967 65.3679C6.9967 65.0975 7.10412 64.8382 7.29532 64.647C7.48652 64.4558 7.74584 64.3484 8.01623 64.3484H11.3598C11.6302 64.3484 11.8895 64.4558 12.0807 64.647C12.2719 64.8382 12.3793 65.0975 12.3793 65.3679C12.3793 65.6383 12.2719 65.8976 12.0807 66.0888C11.8895 66.28 11.6302 66.3875 11.3598 66.3875Z" fill="white"/>
<path d="M19.4194 66.3875H14.3158C14.0454 66.3875 13.7861 66.28 13.5949 66.0888C13.4037 65.8976 13.2963 65.6383 13.2963 65.3679C13.2963 65.0975 13.4037 64.8382 13.5949 64.647C13.7861 64.4558 14.0454 64.3484 14.3158 64.3484H19.4194C19.6898 64.3484 19.9491 64.4558 20.1403 64.647C20.3315 64.8382 20.4389 65.0975 20.4389 65.3679C20.4389 65.6383 20.3315 65.8976 20.1403 66.0888C19.9491 66.28 19.6898 66.3875 19.4194 66.3875Z" fill="white"/>
<path d="M23.7662 66.3875H22.1331C21.8627 66.3875 21.6033 66.28 21.4121 66.0888C21.2209 65.8976 21.1135 65.6383 21.1135 65.3679C21.1135 65.0975 21.2209 64.8382 21.4121 64.647C21.6033 64.4558 21.8627 64.3484 22.1331 64.3484H23.7662C24.0366 64.3484 24.2959 64.4558 24.4871 64.647C24.6783 64.8382 24.7857 65.0975 24.7857 65.3679C24.7857 65.6383 24.6783 65.8976 24.4871 66.0888C24.2959 66.28 24.0366 66.3875 23.7662 66.3875Z" fill="white"/>
<path d="M8.71546 70.1379H8.01624C7.74584 70.1379 7.48652 70.0305 7.29532 69.8393C7.10412 69.6481 6.9967 69.3888 6.9967 69.1184C6.9967 68.848 7.10412 68.5887 7.29532 68.3975C7.48652 68.2063 7.74584 68.0989 8.01624 68.0989H8.71546C8.98586 68.0989 9.24518 68.2063 9.43638 68.3975C9.62758 68.5887 9.735 68.848 9.735 69.1184C9.735 69.3888 9.62758 69.6481 9.43638 69.8393C9.24518 70.0305 8.98586 70.1379 8.71546 70.1379Z" fill="white"/>
<path d="M14.462 70.1379H11.6714C11.401 70.1379 11.1417 70.0305 10.9505 69.8393C10.7593 69.6481 10.6519 69.3888 10.6519 69.1184C10.6519 68.848 10.7593 68.5887 10.9505 68.3975C11.1417 68.2063 11.401 68.0989 11.6714 68.0989H14.462C14.7324 68.0989 14.9917 68.2063 15.1829 68.3975C15.3741 68.5887 15.4815 68.848 15.4815 69.1184C15.4815 69.3888 15.3741 69.6481 15.1829 69.8393C14.9917 70.0305 14.7324 70.1379 14.462 70.1379Z" fill="white"/>
<path d="M23.7661 70.1379H17.1757C16.9053 70.1379 16.6459 70.0305 16.4547 69.8393C16.2635 69.6481 16.1561 69.3888 16.1561 69.1184C16.1561 68.848 16.2635 68.5887 16.4547 68.3975C16.6459 68.2063 16.9053 68.0989 17.1757 68.0989H23.7661C24.0365 68.0989 24.2958 68.2063 24.487 68.3975C24.6782 68.5887 24.7856 68.848 24.7856 69.1184C24.7856 69.3888 24.6782 69.6481 24.487 69.8393C24.2958 70.0305 24.0365 70.1379 23.7661 70.1379Z" fill="white"/>
</svg>
