<svg width="84" height="84" viewBox="0 0 84 84" fill="none" xmlns="http://www.w3.org/2000/svg">
<path d="M55.0345 20.2756H79.6552C82.0547 20.2756 84 22.2209 84 24.6205V79.6549C84 82.0545 82.0547 83.9997 79.6552 83.9997H4.34483C1.94525 83.9997 0 82.0545 0 79.6549V24.6205C0 22.2209 1.94525 20.2756 4.34483 20.2756H55.0345Z" fill="#F8E8AB"/>
<path d="M69.5173 63.9558L69.5173 76.7586C69.5207 77.347 69.1678 77.8789 68.6244 78.1046C68.081 78.3302 67.455 78.2046 67.0407 77.7869L64.7524 75.4841C64.1832 74.9193 63.2651 74.9193 62.6959 75.4841L60.4076 77.7869C59.9933 78.2046 59.3674 78.3302 58.8239 78.1046C58.2805 77.8789 57.9276 77.347 57.9311 76.7586L57.931 63.9558H69.5173Z" fill="#BA3A23"/>
<path d="M24.6207 30.4139H7.24137C6.44151 30.4139 5.79309 29.7655 5.79309 28.9656C5.79309 28.1658 6.44151 27.5173 7.24137 27.5173H24.6207C25.4205 27.5173 26.0689 28.1658 26.0689 28.9656C26.0689 29.7655 25.4205 30.4139 24.6207 30.4139Z" fill="#A1693E"/>
<path d="M76.7586 30.4139H69.5172C68.7174 30.4139 68.069 29.7655 68.069 28.9656C68.069 28.1658 68.7174 27.5173 69.5172 27.5173H76.7586C77.5585 27.5173 78.2069 28.1658 78.2069 28.9656C78.2069 29.7655 77.5585 30.4139 76.7586 30.4139Z" fill="#A1693E"/>
<path d="M21.7241 76.7586H7.24137C6.44151 76.7586 5.79309 76.1102 5.79309 75.3103C5.79309 74.5105 6.44151 73.8621 7.24137 73.8621H21.7241C22.524 73.8621 23.1724 74.5105 23.1724 75.3103C23.1724 76.1102 22.524 76.7586 21.7241 76.7586Z" fill="#A1693E"/>
<path d="M33.3103 42.0001H7.24137C6.44151 42.0001 5.79309 41.3517 5.79309 40.5518C5.79309 39.7519 6.44151 39.1035 7.24137 39.1035H33.3103C34.1102 39.1035 34.7586 39.7519 34.7586 40.5518C34.7586 41.3517 34.1102 42.0001 33.3103 42.0001Z" fill="#A1693E"/>
<path d="M40.5517 53.5865H7.24137C6.44151 53.5865 5.79309 52.9381 5.79309 52.1382C5.79309 51.3384 6.44151 50.6899 7.24137 50.6899H40.5517C41.3516 50.6899 42 51.3384 42 52.1382C42 52.9381 41.3516 53.5865 40.5517 53.5865Z" fill="#A1693E"/>
<path d="M33.3103 65.1722H7.24137C6.44151 65.1722 5.79309 64.5238 5.79309 63.7239C5.79309 62.924 6.44151 62.2756 7.24137 62.2756H33.3103C34.1102 62.2756 34.7586 62.924 34.7586 63.7239C34.7586 64.5238 34.1102 65.1722 33.3103 65.1722Z" fill="#A1693E"/>
<path d="M13.0345 47.793H7.24137C6.44151 47.793 5.79309 47.1446 5.79309 46.3448C5.79309 45.5449 6.44151 44.8965 7.24137 44.8965H13.0345C13.8343 44.8965 14.4827 45.5449 14.4827 46.3448C14.4827 47.1446 13.8343 47.793 13.0345 47.793Z" fill="#A1693E"/>
<path d="M40.5517 47.793H18.8275C18.0277 47.793 17.3793 47.1446 17.3793 46.3448C17.3793 45.5449 18.0277 44.8965 18.8275 44.8965H40.5517C41.3515 44.8965 42 45.5449 42 46.3448C42 47.1446 41.3515 47.793 40.5517 47.793Z" fill="#A1693E"/>
<path d="M40.5517 42.0001H39.1034C38.3036 42.0001 37.6552 41.3517 37.6552 40.5518C37.6552 39.7519 38.3036 39.1035 39.1034 39.1035H40.5517C41.3516 39.1035 42 39.7519 42 40.5518C42 41.3517 41.3516 42.0001 40.5517 42.0001Z" fill="#A1693E"/>
<path d="M21.7241 59.3792H7.24137C6.44151 59.3792 5.79309 58.7308 5.79309 57.9309C5.79309 57.1311 6.44151 56.4827 7.24137 56.4827H21.7241C22.524 56.4827 23.1724 57.1311 23.1724 57.9309C23.1724 58.7308 22.524 59.3792 21.7241 59.3792Z" fill="#A1693E"/>
<path d="M40.5517 59.3792H27.5172C26.7174 59.3792 26.069 58.7308 26.069 57.9309C26.069 57.1311 26.7174 56.4827 27.5172 56.4827H40.5517C41.3516 56.4827 42 57.1311 42 57.9309C42 58.7308 41.3516 59.3792 40.5517 59.3792Z" fill="#A1693E"/>
<path d="M62.2759 6.51723C62.2942 7.17949 61.8477 7.76469 61.2042 7.92205L59.3793 8.41447L55.0345 9.58757L42.3621 12.991C42.1242 13.0489 41.8759 13.0489 41.638 12.991L28.9656 9.58757L22.7959 7.92205C22.1516 7.76057 21.6997 7.18148 21.6997 6.51723C21.6997 5.85298 22.1516 5.27388 22.7959 5.1124L41.638 0.0434342C41.8759 -0.0144781 42.1242 -0.0144781 42.3621 0.0434342L59.3793 4.61999L61.2042 5.1124C61.8477 5.26976 62.2942 5.85496 62.2759 6.51723Z" fill="#464F5E"/>
<path d="M55.0344 9.58765V20.2759C55.0344 20.2759 50.6896 24.6208 41.9999 24.6208C33.3103 24.6208 28.9655 20.2759 28.9655 20.2759V9.58765L41.6379 12.9911C41.8758 13.049 42.1241 13.049 42.362 12.9911L55.0344 9.58765Z" fill="#393F4B"/>
<path d="M63.362 16.7277C63.0956 17.1323 62.6444 17.3769 62.16 17.3794C61.8752 17.3828 61.5966 17.2966 61.3634 17.1332C60.1222 16.315 59.3764 14.9268 59.3793 13.4401V8.41458L61.2041 7.92216C61.8477 7.7648 62.2941 7.1796 62.2758 6.51733V13.4401C62.2761 13.9593 62.5373 14.4436 62.971 14.7291C63.2905 14.9401 63.5119 15.2706 63.5854 15.6464C63.6589 16.0222 63.5785 16.4118 63.362 16.7277Z" fill="#EDC100"/>
<path d="M63.7241 36.207C56.8726 36.2151 50.9642 41.0232 49.564 47.7301C48.1639 54.4369 51.6551 61.2073 57.931 63.956C61.6228 65.578 65.8255 65.578 69.5172 63.956C75.7932 61.2073 79.2844 54.4369 77.8842 47.7301C76.484 41.0232 70.5756 36.2151 63.7241 36.207Z" fill="#E04C34"/>
<path d="M63.7242 59.3793C68.5234 59.3793 72.4139 55.4888 72.4139 50.6897C72.4139 45.8905 68.5234 42 63.7242 42C58.925 42 55.0345 45.8905 55.0345 50.6897C55.0345 55.4888 58.925 59.3793 63.7242 59.3793Z" fill="#F1D24B"/>
</svg>
