<svg width="63" height="84" viewBox="0 0 63 84" fill="none" xmlns="http://www.w3.org/2000/svg">
<path d="M57.3583 37.7385H53.9741H45.8132H31.1016H16.3911H8.23018H4.845C2.16906 37.7385 0 39.9076 0 42.5834V79.1551C0 81.8309 2.16906 84 4.845 84H31.1015H57.3581C60.0339 84 62.2031 81.8309 62.2031 79.1551V42.5834C62.2031 39.9076 60.0341 37.7385 57.3583 37.7385Z" fill="#DC8744"/>
<path d="M31.1021 8.16096C39.2142 8.16096 45.8131 14.7599 45.8131 22.872V34.7912H53.9741V22.872C53.9741 10.2606 43.7136 0 31.1021 0H31.1016V8.16096C31.1014 8.16096 31.1021 8.16096 31.1021 8.16096Z" fill="#3A556A"/>
<path d="M28.141 8.46038C29.0973 8.26401 30.0877 8.16096 31.1015 8.16096V0C18.4903 0.000341799 8.22998 10.2606 8.22998 22.8722V23.1176H16.3909V22.8722C16.3909 18.816 18.0406 15.1383 20.7044 12.4745C21.3704 11.8085 22.0997 11.2059 22.8824 10.6768C24.4482 9.61839 26.2272 8.8531 28.141 8.46038Z" fill="#64798A"/>
<path d="M16.391 34.7913H8.23H4.845C2.16906 34.7913 0 36.9603 0 39.6361V76.2079C0 78.8837 2.16906 81.0527 4.845 81.0527H31.1015V34.7913H16.391Z" fill="#FCD462"/>
<path d="M57.3582 34.7913H53.9741H45.8131H31.1016V81.0529H57.3582C60.034 81.0529 62.2032 78.8838 62.2032 76.2081V39.6363C62.203 36.9605 60.034 34.7913 57.3582 34.7913Z" fill="#F6C358"/>
<path d="M36.6395 50.8615C36.6395 47.8031 34.1601 45.3235 31.1015 45.3235C28.0429 45.3235 25.5635 47.8029 25.5635 50.8615C25.5635 52.8277 26.5949 54.5439 28.1393 55.5265L26.4875 63.3959H35.7151L34.0637 55.5264C35.6081 54.5439 36.6395 52.8277 36.6395 50.8615Z" fill="#DC8744"/>
</svg>
