<svg width="361" height="256" viewBox="0 0 361 256" fill="none" xmlns="http://www.w3.org/2000/svg">
<path d="M361 84H156V233.1H361V84Z" fill="#6E2C29"/>
<path d="M361 84H156V233.1H361V84Z" fill="#814845"/>
<path d="M358.357 87.4492H158.663V229.63H358.357V87.4492Z" fill="#6E2C29"/>
<path d="M349.542 95.1768H167.438V221.905H349.542V95.1768Z" fill="#2F2F2F"/>
<path d="M168.628 220.452V95.1768H167.438V221.905H349.562V220.452H168.628Z" fill="#131313"/>
<path d="M167.438 95.1768V98.4852H346.395V221.905H349.562V95.1768H167.438Z" fill="#171717"/>
<path opacity="0.32" d="M320.815 124.871C321.743 123.62 322.53 122.208 323.034 120.574C325.979 111.355 310.426 107.986 307.642 116.761C307.339 117.709 305.524 118.234 304.636 118.657C302.135 119.847 299.532 120.876 296.91 121.804C295.76 122.228 294.59 122.611 293.4 122.974V122.954C293.501 122.914 293.581 122.894 293.682 122.853C297.152 121.663 300.158 119.202 300.158 115.208C300.158 110.507 295.76 107.28 291.342 107.28C290.838 107.28 290.333 107.28 289.809 107.28C287.852 106.15 285.33 105.867 283.232 106.372C282.062 106.654 280.973 107.017 279.904 107.441C276.252 107.562 272.601 107.744 268.95 107.986C269.918 98.6051 257.814 98.4639 251.096 98.4841C243.289 98.5042 235.482 99.3717 227.776 100.663C221.523 101.712 209.015 102.963 209.661 111.859C209.822 114.038 210.69 115.672 212.021 116.842C209.177 117.709 206.413 118.798 203.811 120.251C198.888 123.035 194.228 128.058 193.825 133.908C189.77 137.64 186.502 142.784 190.92 147.949C192.191 149.421 193.724 150.591 195.398 151.58C194.833 152.488 194.39 153.436 194.107 154.424C192.11 161.465 196.79 166.71 203.447 168.082C202.378 169.171 201.349 170.321 200.321 171.511C196.407 171.229 192.514 170.906 188.62 170.462C180.894 169.595 177.585 178.955 182.387 183.998C186.441 188.255 192.352 190.292 198.162 190.05C199.312 190.01 200.401 189.848 201.47 189.627C205.223 192.874 211.275 194.73 215.733 196.143C212.445 196.788 209.177 197.393 206.05 198.079C202.156 198.947 199.251 202.941 200.482 206.915C201.773 211.131 206.332 212.685 210.306 211.938C226.142 208.952 242.341 208.65 258.399 207.883C275.203 207.076 291.988 206.269 308.792 205.442C311.979 205.281 315.126 203.728 316.316 200.641C322.913 198.301 327.25 189.586 321.239 184.16C320.069 183.111 318.838 182.384 317.547 181.941C318.858 179.923 319.766 177.603 320.109 174.86C320.936 168.263 314.057 164.269 308.953 162.433C307.259 161.828 305.524 161.303 303.769 160.839C307.339 158.156 311.031 155.615 314.864 153.234C318.899 150.733 323.054 148.473 327.291 146.355C331.023 144.479 335.461 140.525 335.32 135.946C335.118 128.199 328.037 125.738 320.815 124.871ZM217.084 155.09C218.214 153.779 218.84 152.044 218.88 150.309C219.626 150.551 220.373 150.813 221.119 151.055C220.312 152.024 219.687 153.113 219.364 154.303C219.283 154.626 219.223 154.929 219.162 155.251C218.476 155.191 217.791 155.151 217.084 155.09ZM291.463 143.511C291.544 143.41 291.645 143.329 291.745 143.228C292.794 142.159 293.642 140.767 294.065 139.294C296.547 139.073 299.028 138.891 301.529 138.75C303.365 138.649 305.221 138.609 307.057 138.609C302.094 140.989 296.829 142.462 291.463 143.511ZM264.27 146.012C264.028 145.609 263.725 145.225 263.402 144.882C263.483 144.64 263.564 144.378 263.604 144.136L266.489 143.975C266.529 143.995 266.569 143.995 266.61 144.015C265.843 144.681 265.056 145.346 264.27 146.012ZM302.417 176.272C302.114 175.969 301.832 175.667 301.529 175.384C301.792 175.465 302.054 175.526 302.316 175.606C302.558 175.667 302.76 175.747 302.962 175.808C302.78 175.949 302.599 176.111 302.417 176.272Z" fill="#505C65"/>
<path opacity="0.32" d="M324.971 174.316C315.994 174.82 307.359 176.757 298.766 179.157C300.622 177.301 302.498 175.466 304.394 173.63C312.181 166.085 320.19 158.742 328.097 151.339C333.04 146.739 329.046 138.67 322.449 139.073C314.38 139.557 306.492 140.869 298.705 143.047C295.861 143.834 291.322 145.65 287.126 146.295C292.189 140.324 298.806 135.462 305.524 131.912C308.429 130.379 310.184 127.05 309.195 123.802C307.864 119.425 303.405 118.275 299.371 118.779C297.031 119.082 294.691 119.384 292.371 119.727C291.019 115.491 286.561 114.2 282.587 114.805C281.437 114.986 280.307 115.269 279.238 115.632C278.169 115.793 277.079 115.854 275.869 115.793C271.875 115.632 267.88 118.86 267.88 122.975C267.88 123.762 268.022 124.508 268.264 125.194C267.78 126.102 267.336 127.07 266.993 128.059C266.751 128.704 266.63 129.33 266.61 129.915C264.814 126.828 260.901 125.719 257.431 126.384C232.84 131.044 208.249 135.725 183.678 140.385C176.254 141.797 175.992 153.053 183.678 154.244C193.562 155.777 203.75 156.886 213.594 159.085C211.617 160.053 209.54 160.84 207.502 161.607C200.482 164.209 193.724 166.811 187.995 171.754C182.044 176.918 188.822 186.279 195.761 183.757C204.718 180.529 213.615 177.18 222.491 173.751C221.986 178.512 226.929 183.273 232.416 181.538C233.062 181.336 233.707 181.134 234.353 180.933C233.788 183.797 235.422 186.823 238.145 188.598C241.635 190.838 245.952 191.12 250.37 190.676C245.69 195.356 250.733 202.296 256.583 202.417C262.313 202.538 267.88 201.893 273.368 200.803C274.739 201.61 276.313 202.074 277.826 202.074C295.841 202.155 313.714 197.253 329.005 187.691C335.4 183.717 332.979 173.852 324.971 174.316ZM267.437 154.042C267.578 153.78 267.699 153.537 267.8 153.275C268.223 154.445 268.97 155.575 270.12 156.624C270.321 156.806 270.523 156.987 270.745 157.148C268.788 157.391 266.811 157.673 264.875 157.996C265.803 156.806 266.67 155.494 267.437 154.042ZM298.665 158.177C297.273 159.509 295.881 160.84 294.489 162.172C294.166 161.223 293.642 160.336 292.976 159.529C294.065 159.307 295.114 159.065 296.103 158.823C296.97 158.601 297.817 158.379 298.665 158.177ZM261.707 140.243C264.996 139.618 267.517 136.552 267.538 133.304C269.03 135.583 272.117 136.955 275.002 137.036C272.137 140.122 269.051 143.975 267.86 147.768C266.146 144.117 260.941 142.321 256.503 144.238C249.624 147.183 242.725 150.068 235.785 152.892C234.736 151.157 232.9 149.785 230.822 148.998C229.007 148.313 227.151 147.707 225.295 147.163C237.439 144.843 249.563 142.543 261.707 140.243Z" fill="#505C65"/>
<path d="M223.399 137.056L223.863 140.627L216.56 141.575L216.782 143.31L223.419 142.442L223.883 146.013L217.246 146.881L217.468 148.636L224.952 147.667L225.416 151.238L213.232 152.811L211.396 138.63L223.399 137.056Z" fill="#F0F4F0"/>
<path d="M229.289 136.289L235.846 142.846L234.897 135.563L239.154 135.019L240.99 149.2L237.056 149.705L230.52 143.189L231.468 150.431L227.191 150.976L225.355 136.794L229.289 136.289Z" fill="#F0F4F0"/>
<path d="M251.218 140.283L255.252 139.759L256.019 145.609C254.586 146.86 252.065 147.969 250.048 148.232C245.589 148.817 241.958 146.154 241.413 141.938C240.869 137.742 243.834 134.252 248.474 133.646C250.673 133.364 253.195 133.889 254.889 135.038L252.65 138.609C251.581 137.822 250.128 137.419 248.958 137.56C247.143 137.802 245.993 139.396 246.235 141.312C246.497 143.269 248.03 144.52 249.866 144.278C250.35 144.217 251.016 143.955 251.661 143.572L251.218 140.283Z" fill="#F0F4F0"/>
<path d="M260.82 132.195L262.151 142.483L268.062 141.717L268.566 145.63L257.955 147.002L256.12 132.8L260.82 132.195Z" fill="#F0F4F0"/>
<path d="M272.642 130.661L274.477 144.843L269.777 145.448L267.941 131.266L272.642 130.661Z" fill="#F0F4F0"/>
<path d="M280.872 133.041C280.347 133.102 280.025 133.323 280.085 133.747C280.307 135.522 287.529 133.465 288.195 138.609C288.598 141.776 286.016 143.531 282.809 143.935C280.347 144.257 277.483 143.773 275.405 142.583L276.696 138.831C278.31 139.86 280.953 140.525 282.385 140.344C283.071 140.263 283.495 139.981 283.414 139.476C283.172 137.64 275.99 139.799 275.345 134.816C274.981 131.992 277.14 129.894 280.811 129.41C283.051 129.127 285.471 129.491 287.206 130.297L285.976 134.09C284.422 133.465 282.103 132.88 280.872 133.041Z" fill="#F0F4F0"/>
<path d="M292.815 128.039L293.521 133.546L297.919 132.981L297.212 127.474L301.913 126.869L303.749 141.05L299.048 141.656L298.383 136.532L293.985 137.096L294.651 142.22L289.95 142.826L288.114 128.644L292.815 128.039Z" fill="#F0F4F0"/>
<path d="M224.71 165.419C223.016 165.641 221.946 167.154 222.188 169.05C222.43 170.947 223.843 172.177 225.557 171.955C226.566 171.814 227.756 171.027 228.563 169.918L231.65 172.46C230.298 174.396 228.039 175.808 225.84 176.091C221.482 176.656 217.932 173.973 217.367 169.736C216.822 165.56 219.667 162.111 224.125 161.526C226.284 161.243 228.785 161.949 230.459 163.341L228.16 166.912C227.171 165.863 225.799 165.278 224.71 165.419Z" fill="#F0F4F0"/>
<path d="M246.719 165.944C247.264 170.16 244.379 173.691 239.88 174.276C235.361 174.861 231.69 172.198 231.145 167.982C230.601 163.766 233.485 160.336 238.004 159.751C242.483 159.146 246.174 161.748 246.719 165.944ZM235.946 167.356C236.209 169.293 237.802 170.544 239.416 170.342C241.03 170.14 242.14 168.526 241.898 166.59C241.635 164.653 240.163 163.423 238.549 163.624C236.895 163.846 235.684 165.42 235.946 167.356Z" fill="#F0F4F0"/>
<path d="M255.151 168.304C256.301 168.163 257.088 167.154 256.906 165.742L255.837 157.572L260.538 156.967L261.607 165.137C262.091 168.909 259.751 171.693 255.656 172.238C251.52 172.783 248.474 170.685 247.99 166.912L246.921 158.742L251.621 158.137L252.69 166.307C252.852 167.679 253.981 168.466 255.151 168.304Z" fill="#F0F4F0"/>
<path d="M272.359 169.837L270.18 166.368L268.425 166.589L268.909 170.281L264.209 170.886L262.373 156.705L269.232 155.817C273.085 155.313 275.526 156.866 275.95 160.114C276.212 162.172 275.627 163.826 274.296 164.895L277.685 169.151L272.359 169.837ZM267.961 163.039L270.12 162.757C271.128 162.615 271.633 161.929 271.492 160.82C271.35 159.771 270.685 159.246 269.676 159.367L267.517 159.65L267.961 163.039Z" fill="#F0F4F0"/>
<path d="M283.232 157.431C282.708 157.491 282.385 157.713 282.446 158.137C282.668 159.912 289.889 157.854 290.555 162.998C290.959 166.166 288.376 167.921 285.169 168.324C282.708 168.647 279.843 168.163 277.765 166.973L279.056 163.22C280.67 164.249 283.313 164.915 284.745 164.733C285.431 164.653 285.855 164.37 285.774 163.866C285.532 162.03 278.35 164.189 277.705 159.206C277.342 156.361 279.5 154.284 283.172 153.799C285.411 153.517 287.832 153.88 289.567 154.687L288.336 158.48C286.783 157.854 284.463 157.269 283.232 157.431Z" fill="#F0F4F0"/>
<path d="M302.498 151.5L302.962 155.071L295.659 156.019L295.881 157.754L302.518 156.886L302.982 160.457L296.345 161.324L296.567 163.079L304.051 162.111L304.515 165.682L292.33 167.255L290.495 153.074L302.498 151.5Z" fill="#F0F4F0"/>
<path d="M327.997 214.865H303.849V221.926H327.997V214.865Z" fill="#CDD3CD"/>
<path d="M332.657 214.865H308.509V221.925H332.657V214.865Z" fill="#F0F4F0"/>
<path d="M304.979 174.135C304.212 174.236 303.567 174.841 302.8 175.002C302.296 175.103 301.792 175.002 301.287 175.043C299.714 175.143 298.503 176.334 296.97 176.596C295.296 176.878 293.561 176.233 291.887 176.596C289.748 177.06 287.892 177.584 285.633 177.443C284.463 177.383 283.252 177.201 282.123 177.544C281.598 177.705 281.114 178.008 280.569 178.169C279.157 178.593 277.907 177.968 276.535 177.948C275.425 177.927 274.417 178.351 273.287 178.21C272.238 178.089 271.189 177.806 270.16 178.028C269.515 178.169 268.93 178.492 268.284 178.654C266.811 179.017 265.258 178.512 263.745 178.674C262.676 178.795 261.667 179.259 260.598 179.36C259.085 179.501 257.572 178.896 256.059 179.037C254.486 179.198 253.114 180.146 251.54 180.368C248.998 180.752 246.315 179.158 243.915 180.066C243.168 180.348 242.523 180.832 241.756 181.034C240.889 181.256 239.961 181.054 239.053 181.054C235.724 180.994 233.183 183.495 229.794 183.132C227.514 182.89 226.707 184.564 224.77 185.19C223.499 185.593 221.442 185.674 220.494 186.703C220.03 187.207 219.546 187.853 218.92 188.196C217.79 188.821 216.177 188.417 216.015 190.132C215.914 191.141 221.159 189.89 221.623 189.628C222.632 189.063 223.58 188.337 224.71 188.155C226.384 187.873 227.11 187.873 228.502 186.985C229.975 186.037 231.811 185.25 233.586 185.331C234.211 185.351 234.837 185.492 235.462 185.452C236.673 185.351 237.701 184.585 238.831 184.141C239.92 183.697 241.091 183.556 242.24 183.414C243.592 183.253 244.923 183.092 246.275 182.91C247.949 182.708 249.624 182.507 251.298 182.587C252.004 182.628 252.73 182.708 253.436 182.567C254.062 182.426 254.607 182.123 255.212 181.922C256.584 181.498 258.056 181.76 259.468 182.002C260.033 182.103 260.638 182.204 261.203 182.063C261.708 181.942 262.131 181.619 262.615 181.417C264.189 180.731 265.883 181.256 267.497 181.438C269.051 181.599 270.664 181.478 272.198 181.276C273.61 181.095 274.659 181.579 276.051 181.579C277.523 181.579 278.774 180.389 280.247 180.308C281.417 180.247 282.526 180.893 283.716 180.873C285.129 180.853 286.359 179.904 287.771 179.763C289.264 179.622 290.596 180.207 292.068 179.682C293.581 179.158 294.61 178.432 296.345 178.613C297.031 178.694 297.737 178.876 298.423 178.775C299.552 178.613 300.48 177.685 301.63 177.605C302.296 177.544 302.982 177.806 303.648 177.786C305.302 177.726 306.633 176.051 308.287 176.213C309.094 176.293 309.982 176.778 310.628 176.293C310.829 176.152 310.95 175.91 311.172 175.809C311.656 175.567 312.383 175.991 312.746 175.567C312.988 175.305 312.867 174.881 312.625 174.599C311.959 173.792 310.749 173.752 309.72 173.953C308.691 174.175 307.682 174.579 306.633 174.417C306.129 174.337 305.625 174.115 305.12 174.155C305.04 174.115 305.019 174.135 304.979 174.135Z" fill="#F0F4F0"/>
<path d="M142.22 129.164C142.22 129.164 173.498 207.879 162.753 225.735C159.836 230.568 146.454 236.061 142.52 231.247C133.012 219.663 117.433 177.639 117.433 177.639C117.433 177.639 120.809 138.132 142.22 129.164Z" fill="#197589"/>
<path d="M113.998 120.496C109.704 119.717 105.809 119.278 102.333 119.058C98.3987 118.818 95.2829 115.623 95.2829 111.668V94.6309H69.6972V111.688C69.6972 115.583 66.7012 118.838 62.8064 119.058C59.7505 119.238 56.355 119.597 52.66 120.217L52.2605 154.97H114.397L113.998 120.496Z" fill="#FFC4AE"/>
<path d="M22.7799 129.164C22.7799 129.164 -8.49822 207.879 2.2474 225.735C5.1635 230.568 18.5456 236.061 22.4803 231.247C31.9876 219.663 47.5668 177.639 47.5668 177.639C47.5668 177.639 44.1713 138.132 22.7799 129.164Z" fill="#197589"/>
<path d="M69.6971 109.71C73.6319 111.707 77.9461 112.886 82.5 112.886C87.0539 112.886 91.3681 111.707 95.3029 109.71V89.397H69.6971V109.71Z" fill="#F1856A"/>
<path d="M60.7691 68.8058C60.7691 74.9176 56.1553 79.8909 50.4429 79.8909C44.7506 79.8909 40.1967 70.0042 40.1967 63.8724C40.1967 57.7605 44.6707 56.8218 50.4429 57.7206C56.0754 58.6194 60.7691 62.6939 60.7691 68.8058Z" fill="#FFC4AE"/>
<path d="M104.211 68.8048C104.211 74.9166 108.825 79.8899 114.537 79.8899C120.23 79.8899 124.784 70.0032 124.784 63.8714C124.784 57.7596 120.31 56.8208 114.537 57.7196C108.905 58.6184 104.211 62.693 104.211 68.8048Z" fill="#FFC4AE"/>
<path d="M114.837 38.0063C110.882 26.5616 82.4801 26.1621 82.4801 26.1621C82.4801 26.1621 54.0781 26.5616 50.1234 38.0063C46.1886 49.4509 46.5881 73.1193 52.5002 84.564C58.4123 96.0086 69.4575 105.476 82.4801 105.476C95.5026 105.476 106.548 96.0086 112.46 84.564C118.392 73.1193 118.791 49.4509 114.837 38.0063Z" fill="#FFC4AE"/>
<path d="M68.1991 63.513C68.1991 66.1095 66.5413 68.2267 64.4841 68.2267C62.4268 68.2267 60.769 66.1095 60.769 63.513C60.769 60.9165 62.4268 58.7993 64.4841 58.7993C66.5413 58.7993 68.1991 60.8965 68.1991 63.513Z" fill="#391829"/>
<path d="M104.211 63.513C104.211 66.1095 102.553 68.2267 100.496 68.2267C98.4387 68.2267 96.7809 66.1095 96.7809 63.513C96.7809 60.9165 98.4387 58.7993 100.496 58.7993C102.553 58.7993 104.211 60.8965 104.211 63.513Z" fill="#391829"/>
<path d="M82.5 89.3978C72.7331 89.3978 69.2577 82.6069 69.1179 82.3273C68.7384 81.5483 69.058 80.6096 69.817 80.2101C70.6159 79.8306 71.5546 80.1502 71.9341 80.9092C72.054 81.1089 74.7504 86.222 82.5 86.222C90.3295 86.222 93.0259 80.9491 93.0659 80.9092C93.4453 80.1302 94.3841 79.8306 95.183 80.2101C95.962 80.5896 96.2815 81.5483 95.9021 82.3273C95.7423 82.6069 92.2669 89.3978 82.5 89.3978Z" fill="#DB675C"/>
<path d="M58.9116 30.2372C60.829 30.0574 62.8263 29.9975 64.6439 30.6167C66.4814 31.2359 68.1392 32.654 68.5387 34.5514C69.078 37.0082 67.4402 39.385 65.8823 41.3623C63.6452 44.2385 61.4282 47.0947 59.1912 49.9708C57.6133 52.0081 56.0155 54.0653 55.0567 56.4421C54.2378 58.4594 53.8983 60.6166 53.6586 62.7737C53.339 65.6898 53.2192 68.6258 53.2791 71.5619C53.2791 71.8615 53.2991 72.201 53.1393 72.4607C52.9795 72.7603 52.64 72.9401 52.3204 73.0998C51.3617 73.5792 50.403 74.0586 49.4443 74.5379C48.2259 69.1052 46.7878 52.0081 46.1886 50.0507C45.15 46.6353 44.431 43.1399 44.0714 39.5847C43.9915 38.8057 43.9316 38.0068 44.1114 37.2478C44.5108 35.4702 46.0887 34.2319 47.6666 33.353C51.0821 31.4556 55.0168 30.5967 58.9116 30.2372Z" fill="#1C1C1C"/>
<path d="M99.637 17.4343C99.4373 17.4942 99.2775 17.5741 99.1776 17.6939C98.5984 18.4729 99.4373 21.0494 99.5971 21.8683C99.7968 22.9469 101.954 30.0773 100.396 30.5966C98.5584 31.2158 96.9007 32.6539 96.5012 34.5314C95.9619 36.9881 97.5997 39.3649 99.1576 41.3423C101.395 44.2184 103.612 47.0746 105.849 49.9507C107.427 51.988 109.024 54.0453 109.983 56.4221C110.802 58.4394 111.142 60.5965 111.381 62.7536C111.701 65.6697 111.821 68.6058 111.761 71.5418C111.761 71.8414 111.741 72.181 111.901 72.4407C112.06 72.7403 112.4 72.92 112.719 73.0798C113.678 73.5592 114.637 74.0385 115.596 74.5179C115.596 74.5179 115.656 74.2582 115.656 74.2782C117.034 67.8069 117.433 61.0759 118.212 54.5046C118.612 51.229 118.492 47.9734 119.53 44.8176C121.148 39.8842 122.466 34.6912 121.727 29.4781C121.448 27.5407 120.889 25.6033 119.77 24.0055C118.332 21.9482 116.075 20.5501 113.698 19.7312C111.321 18.9123 108.805 18.5927 106.288 18.2931C105.13 18.1733 101.095 17.0747 99.637 17.4343Z" fill="#1C1C1C"/>
<path d="M103.053 13.1596C99.1777 8.80545 95.0832 4.27151 89.6105 2.23424C83.279 -0.122609 76.2084 1.25554 69.6572 2.89335C66.0021 3.81212 62.2671 4.85074 59.2711 7.12769C56.0554 9.56443 53.9582 13.1996 51.2219 16.1556C48.4656 19.1117 44.411 21.5484 40.5362 20.4099C40.1966 23.5257 40.0169 26.7215 40.7159 29.7774C42.2738 36.5883 48.146 41.8412 54.7372 44.1581C61.3283 46.475 68.5587 46.2154 75.4694 45.0769C82.2803 43.9584 89.1311 41.9012 94.504 37.5869C99.1378 33.8519 102.393 28.6389 104.67 23.1463C105.469 21.2089 106.188 19.0517 105.609 17.0344C105.15 15.5564 104.091 14.338 103.053 13.1596Z" fill="#1C1C1C"/>
<path d="M82.5001 75.7564C80.4828 75.7564 78.825 74.8776 78.2658 73.6792C78.126 73.9588 78.0061 74.2185 78.0061 74.5381C78.0061 76.1559 80.0234 77.4741 82.5201 77.4741C85.0167 77.4741 87.034 76.1559 87.034 74.5381C87.034 74.2385 86.8942 73.9588 86.7744 73.6792C86.1752 74.8776 84.5174 75.7564 82.5001 75.7564Z" fill="#E4776D"/>
<path d="M142.22 129.165C125.902 122.194 112.46 119.698 102.473 119.079C100.736 123.133 92.4667 126.229 82.5 126.229C72.5333 126.229 64.2844 123.153 62.5267 119.079C52.5401 119.718 39.0781 122.214 22.7799 129.165C22.7799 129.165 44.0115 190.064 45.0901 210.097C45.6493 220.523 45.3297 229.751 44.8703 236.701H120.15C119.69 229.77 119.371 220.543 119.93 210.097C120.988 190.044 142.22 129.165 142.22 129.165Z" fill="#197589"/>
<path d="M119.91 210.096C120.449 200.01 126.102 179.557 131.594 161.741C129.757 162.68 127.64 164.857 125.702 163.918C121.628 161.941 99.5372 166.415 81.9607 168.053C71.1352 169.051 44.5708 157.347 32.3271 158.266C38.1194 176.841 44.5109 199.371 45.0901 210.136C45.6493 220.562 45.3298 229.79 44.8704 236.741H120.15C119.67 229.75 119.351 220.522 119.91 210.096Z" fill="#225F6C"/>
<path d="M80.8023 224.556L34.6041 207.838V151.174L80.8023 179.736V224.556Z" fill="white"/>
<path d="M83.958 225.016L130.735 208.099V150.715L83.958 179.497V225.016Z" fill="white"/>
<path d="M80.6025 233.564L29.6307 215.109V152.553L80.6025 181.634V233.564Z" fill="#E3E5E5"/>
<path d="M84.0979 234.064L135.709 215.389V152.054L84.0979 181.354V234.064Z" fill="#E3E5E5"/>
<path d="M80.4028 243.51L24.6174 223.318V154.849L80.4028 180.715V243.51Z" fill="white"/>
<path d="M82.5 255.095L20.6228 233.384V159.823L82.5 181.514V255.095Z" fill="#FD7253"/>
<path d="M84.2377 244.05L140.722 223.618V154.291L84.2377 180.416V244.05Z" fill="white"/>
<path d="M82.5 255.095L144.377 233.384V159.823L82.5 181.514V255.095Z" fill="#FD7253"/>
<path d="M100.316 203.584L133.931 192.899V180.975L100.316 191.66V203.584Z" fill="white"/>
<path d="M88.9314 251.82C88.9314 255.355 86.1751 255.914 82.7796 255.914C79.3842 255.914 76.6079 255.335 76.6079 251.82V182.772C76.6079 179.237 79.3642 178.678 82.7796 178.678C86.1751 178.678 88.9314 179.257 88.9314 182.772V251.82Z" fill="#DF694F"/>
<path d="M34.7838 194.277L21.0222 198.851C18.3258 199.75 15.5296 198.651 14.7906 196.414L14.7706 196.335C14.0316 194.098 15.6095 191.541 18.3059 190.642L32.0675 186.068C34.7638 185.17 37.5601 186.268 38.2991 188.505L38.3191 188.585C39.0781 190.842 37.4802 193.379 34.7838 194.277Z" fill="#FFC4AE"/>
<path d="M40.3964 201.407L22.5004 207.359C18.9851 208.518 15.5297 207.659 14.7907 205.422L14.7707 205.342C14.0317 203.105 16.2687 200.329 19.784 199.17L37.68 193.218C41.1953 192.06 44.6507 192.919 45.3897 195.156L45.4097 195.236C46.1487 197.473 43.8917 200.249 40.3964 201.407Z" fill="#FFC4AE"/>
<path d="M36.0822 211.833L21.3619 216.727C18.4658 217.685 15.5297 216.647 14.7907 214.41L14.7707 214.33C14.0317 212.093 15.7694 209.496 18.6455 208.538L33.3658 203.644C36.2619 202.685 39.198 203.724 39.937 205.961L39.957 206.041C40.696 208.278 38.9583 210.875 36.0822 211.833Z" fill="#FFC4AE"/>
<path d="M31.708 222.28L21.8212 225.575C19.8838 226.214 17.7067 224.936 16.9677 222.679L16.9477 222.599C16.2087 220.362 17.1674 218.025 19.1048 217.366L28.9916 214.071C30.929 213.432 33.1061 214.71 33.8451 216.967L33.8651 217.047C34.6041 219.284 33.6454 221.621 31.708 222.28Z" fill="#FFC4AE"/>
<path d="M130.196 194.278L143.958 198.852C146.654 199.751 149.451 198.652 150.19 196.415L150.21 196.335C150.949 194.098 149.371 191.541 146.674 190.643L132.913 186.069C130.216 185.17 127.42 186.269 126.681 188.506L126.661 188.585C125.922 190.842 127.5 193.379 130.196 194.278Z" fill="#FFC4AE"/>
<path d="M124.604 201.407L142.5 207.359C146.015 208.518 149.47 207.659 150.209 205.422L150.229 205.342C150.968 203.105 148.731 200.329 145.216 199.17L127.32 193.218C123.805 192.06 120.349 192.919 119.61 195.156L119.59 195.236C118.851 197.473 121.088 200.249 124.604 201.407Z" fill="#FFC4AE"/>
<path d="M128.918 211.834L143.638 216.728C146.534 217.686 149.47 216.648 150.209 214.411L150.229 214.331C150.968 212.094 149.231 209.497 146.355 208.539L131.634 203.645C128.738 202.686 125.802 203.725 125.063 205.962L125.043 206.042C124.284 208.279 126.022 210.875 128.918 211.834Z" fill="#FFC4AE"/>
<path d="M133.292 222.28L143.179 225.576C145.116 226.215 147.293 224.937 148.052 222.68L148.072 222.6C148.811 220.363 147.853 218.026 145.915 217.367L136.029 214.071C134.091 213.432 131.914 214.71 131.175 216.967L131.155 217.047C130.376 219.284 131.355 221.621 133.292 222.28Z" fill="#FFC4AE"/>
<path d="M58.632 56.7812C58.3723 56.7812 58.1326 56.6814 57.9329 56.4816C57.5534 56.1021 57.5734 55.483 57.9529 55.1234C58.0128 55.0635 63.6053 49.8305 70.8157 54.0249C71.2751 54.2846 71.4348 54.8838 71.1752 55.3432C70.9155 55.8025 70.3163 55.9623 69.8569 55.7027C63.8849 52.2273 59.331 56.4816 59.2911 56.5216C59.1113 56.7013 58.8717 56.7812 58.632 56.7812Z" fill="#382040"/>
<path d="M106.368 56.7812C106.128 56.7812 105.889 56.7013 105.709 56.5216C105.529 56.3418 101.075 52.2473 95.1431 55.7027C94.6837 55.9823 94.0845 55.8225 93.8249 55.3432C93.5652 54.8838 93.705 54.2846 94.1844 54.0249C101.395 49.8305 107.007 55.0635 107.047 55.1234C107.427 55.483 107.447 56.1021 107.087 56.4816C106.867 56.6814 106.608 56.7812 106.368 56.7812Z" fill="#382040"/>
</svg>
