<svg width="166" height="122" viewBox="0 0 166 122" fill="none" xmlns="http://www.w3.org/2000/svg">
<path d="M12.4592 22.4253C12.4592 22.4253 14.9334 19.9368 17.3787 22.0945C19.8241 24.2521 28.1095 51.7263 28.1095 51.7263L22.7585 49.4104L12.4592 22.4253Z" fill="#B7D3F3"/>
<path d="M55.0659 55.9554L54.5481 54.7328C53.9583 53.3519 52.6637 52.4169 51.1677 52.3018L30.8858 50.5757C30.8858 50.5757 30.5837 51.5538 30.8282 52.1436C31.0727 52.719 55.0659 55.9554 55.0659 55.9554Z" fill="#B7D3F3"/>
<path d="M54.4616 65.7368L55.3247 57.5952C55.5117 55.7684 54.1739 54.1286 52.3327 53.9703L25.1606 51.6401C23.2331 51.4818 21.5933 52.9922 21.5933 54.9197V64.6579L24.5852 64.8305V59.1919C24.5852 57.0342 26.4264 55.3512 28.5697 55.5095L48.003 57.0342C50.1032 57.2068 51.6423 59.0912 51.369 61.1913L50.7792 65.7224H54.4616V65.7368Z" fill="#225F6C"/>
<path d="M3.12378 28.5531C3.12378 28.5531 9.95637 22.7562 13.0778 21.9363C21.1187 23.8494 26.8149 62.5866 26.8149 62.5866L15.9547 71.8358L3.12378 28.5531Z" fill="#225F6C"/>
<path d="M25.132 21.6343L39.3726 38.0037C39.3726 38.0037 39.4445 45.6706 37.7759 46.7638C36.1073 47.857 22.399 37.4715 21.3777 32.0198C20.3564 26.5537 23.0175 21.85 25.132 21.6343Z" fill="#CBCCCE"/>
<path d="M56.3606 32.7534C56.3606 32.7534 58.2593 30.6821 59.9711 31.0704C61.4814 31.4157 63.6822 30.8115 64.646 30.4375C66.1708 29.8622 68.3428 28.3086 68.1702 31.5451C68.1126 32.7678 63.3226 36.8242 62.2294 36.7667C59.2231 36.6084 57.684 36.9968 56.7777 36.3495C55.8859 35.7166 56.3606 32.7534 56.3606 32.7534Z" fill="#F4CFC1"/>
<path d="M55.5117 33.7171C56.0439 32.8972 56.346 31.8615 57.3241 30.7971C58.2879 29.7326 60.388 29.2004 61.2223 28.4524C61.9703 28.5819 62.0854 29.6894 60.46 30.6964C58.8345 31.7033 59.4818 33.1561 59.4818 33.1561L55.5117 33.7171Z" fill="#F4CFC1"/>
<path d="M33.9065 37.7447L55.7564 31.3005L58.9209 38.4352C58.9209 38.4352 42.0049 47.109 37.3731 46.8501C32.727 46.6055 33.9065 37.7447 33.9065 37.7447Z" fill="#CBCCCE"/>
<path opacity="0.12" d="M22.4566 24.094C21.9531 25.8057 27.9083 29.6176 28.3254 31.8328C29.1597 36.2776 33.1154 38.8236 36.5245 44.3616C36.9704 44.6925 37.4883 44.9082 38.15 44.937C41.9906 45.1384 54.2893 39.212 58.36 37.1838L58.921 38.4352C58.921 38.4352 42.005 47.109 37.3732 46.8501C36.7259 46.8213 36.1937 46.5912 35.7478 46.2747C31.4324 44.1459 22.2264 36.4502 21.3921 32.0054C20.8024 28.8984 21.4209 26.0215 22.4566 24.094Z" fill="#7A665A"/>
<path d="M42.1919 105.337C42.1919 105.337 39.2862 112.011 40.0342 113.018C40.7822 114.025 56.4756 118.959 56.792 117.722C57.7989 113.766 55.5838 114.385 51.5849 111.652C50.4341 110.861 49.5423 109.062 48.1902 108.53C47.3559 108.199 48.0463 106.747 47.2552 106.502C44.9105 105.768 42.1919 105.337 42.1919 105.337Z" fill="white"/>
<path d="M63.2363 65.3914C63.7685 67.0024 52.8364 112.428 52.8364 112.428L39.0129 103.726L48.2765 71.0876L63.2363 65.3914Z" fill="#00A7C5"/>
<path opacity="0.12" d="M48.2765 71.0734L50.3479 70.2822L41.2425 102.374L53.383 106.603C53.0665 107.826 52.8795 108.53 52.8795 108.53L39.0129 103.697L48.2765 71.0734Z" fill="#7A665A"/>
<path d="M59.295 109.437C59.295 109.437 57.8278 117.161 58.8634 118.053C59.8991 118.945 77.6207 120.383 77.6495 119.017C77.7645 114.615 75.5781 115.794 70.7162 113.867C69.3209 113.306 67.94 111.623 66.4008 111.378C65.4371 111.235 65.8111 109.523 64.9337 109.465C62.2582 109.25 59.295 109.437 59.295 109.437Z" fill="white"/>
<path d="M36.9127 60.5154C36.9127 60.5154 65.4514 61.2634 66.4439 63.0183C67.4508 64.7732 60.1867 74.7847 55.1809 74.7847C50.1751 74.7847 19.7377 75.0724 18.5294 71.203C16.5012 64.7444 36.9127 60.5154 36.9127 60.5154Z" fill="#63CAE1"/>
<path d="M66.444 63.0181C67.566 64.2839 70.8457 112.4 70.8457 112.4L56.2023 113.407L54.9221 74.1372L66.444 63.0181Z" fill="#63CAE1"/>
<path opacity="0.12" d="M20.4716 66.873C19.9106 67.7361 19.7092 68.6423 20.0113 69.6061C21.2052 73.418 50.6213 71.8357 56.2312 71.8357L57.684 111.81L70.7307 110.918C70.8026 111.853 70.8458 112.4 70.8458 112.4L56.2024 113.407L54.951 74.7989C49.3411 74.7989 19.7236 75.029 18.5297 71.2171C18.0262 69.6061 18.8893 68.1533 20.4716 66.873Z" fill="#7A665A"/>
<path d="M19.8818 23.8781L20.4285 16.7578L28.1097 19.4477L28.6707 27.69L19.8818 23.8781Z" fill="#F4BEAB"/>
<path d="M19.8817 22.5835C17.8391 25.1439 14.3725 35.3569 14.9047 44.7067C15.6239 57.2787 17.796 71.0302 17.796 71.0302L42.8248 61.22L35.9347 48.9933L28.4836 24.7987C28.4836 24.8131 23.1469 23.7342 19.8817 22.5835Z" fill="#AAABAC"/>
<path opacity="0.12" d="M40.8397 57.7102C40.8397 57.7102 25.2182 66.5135 19.3493 57.8109C13.6244 49.3241 17.4362 33.717 17.4362 33.717L30.0945 55.0203L40.8397 57.7102Z" fill="#7A665A"/>
<path d="M25.1607 29.7183C29.2315 33.6884 29.7925 52.7477 29.7925 52.7477C29.7925 52.7477 27.9656 62.2846 25.247 60.7454C16.5013 55.7684 17.465 39.2408 17.465 35.8892C17.465 31.5739 19.9967 24.6837 25.1607 29.7183Z" fill="#CBCCCE"/>
<path opacity="0.12" d="M28.2966 21.8787L28.3829 23.4322C28.3829 23.4322 21.4065 19.98 21.1332 18.4552C20.8599 16.9305 22.8737 15.9092 22.8737 15.9092L28.2966 21.8787Z" fill="#7A665A"/>
<path d="M34.2949 12.2843C34.2949 12.2843 36.1505 15.3338 36.5964 15.938C37.0423 16.5277 34.2805 17.5058 34.2805 17.5058C34.2805 17.5058 33.4174 19.2032 33.101 22.0225C32.9283 23.5617 25.9375 21.7061 24.7148 20.1382C22.6147 17.4771 22.4709 16.6428 21.464 15.9092C20.4571 15.1612 14.9047 10.3424 20.0255 5.16402C25.1608 -0.0287461 30.4111 1.17954 32.5256 4.05642C34.1654 6.27162 34.9278 7.43677 34.7408 9.06221C34.5538 10.6589 34.2949 12.2843 34.2949 12.2843Z" fill="#F4CFC1"/>
<path d="M23.1183 18.6566C23.8663 16.3263 25.6068 6.64563 29.6344 7.94023C32.5544 8.8896 35.4601 8.9615 35.3594 7.49429C34.8703 0.460317 21.8093 -4.01322 17.3789 5.1928C15.0199 10.0691 16.559 18.6998 23.1183 18.6566Z" fill="#4A2E2A"/>
<path d="M24.9308 13.507C24.9308 13.507 22.8307 12.0973 22.1258 12.5144C21.5361 12.8597 21.1189 14.8591 21.8238 16.0098C22.5574 17.2181 23.2335 17.9086 23.7369 17.7935C24.226 17.6928 24.9308 13.507 24.9308 13.507Z" fill="#F4CFC1"/>
<path d="M50.3047 61.0042C50.3047 61.0042 51.1246 58.1992 52.2897 57.5807C53.4549 56.9621 57.2667 57.0916 57.2667 57.0916L55.6413 60.3856L50.3047 61.0042Z" fill="#F4CFC1"/>
<path d="M51.9015 60.3714L46.3347 59.3789L47.9745 64.3703L51.4556 64.284L51.9015 60.3714Z" fill="#F4CFC1"/>
<path d="M29.7925 52.7476L51.5705 58.1849L50.2903 65.5928C50.2903 65.5928 29.85 62.4426 25.2326 60.7597C20.8886 59.1486 29.7925 52.7476 29.7925 52.7476Z" fill="#CBCCCE"/>
<path d="M52.2322 63.9099L58.0435 48.3316L69.1339 45.0376L62.9773 60.1556L52.2322 63.9099Z" fill="#292929"/>
<path d="M58.0435 48.3458L69.1338 45.0374L68.6016 44.5627L57.5112 47.8568L51.7 63.4351L52.2753 63.8235L58.0435 48.3458Z" fill="#535151"/>
<path d="M48.5641 64.0394C48.5641 64.0394 56.0727 64.1976 58.6332 63.162C61.1936 62.1407 62.2436 59.7528 61.956 59.0336C61.6539 58.3144 53.8863 58.9761 52.5773 59.5227C51.254 60.0549 47.7442 62.7017 48.5641 64.0394Z" fill="#F4CFC1"/>
<path d="M61.2944 46.7349L61.6972 47.2527L61.2944 49.4104L65.1926 48.2165L65.7536 46.0301L65.322 45.541L61.2944 46.7349Z" fill="#CBCCCE"/>
<path d="M63.941 47.9434C63.7971 48.1448 63.5526 48.2023 63.3944 48.0872C63.2361 47.9721 63.2217 47.7132 63.3656 47.5262C63.5094 47.3248 63.754 47.2673 63.9122 47.3824C64.0704 47.4975 64.0848 47.742 63.941 47.9434Z" fill="#292929"/>
<path d="M61.2944 46.7349L61.6972 47.2527L65.7536 46.0301L65.322 45.541L61.2944 46.7349Z" fill="#E9E9EA"/>
<path d="M21.1187 59.3502L22.7872 58.0125C23.5496 57.394 24.5278 57.1063 25.4915 57.207L50.0457 59.5516C51.3978 59.6811 52.5486 60.6017 52.9657 61.8963L53.3685 63.1621L21.1187 59.3502Z" fill="#576884"/>
<path d="M49.3265 113.982V119.563C49.3265 120.57 48.5066 121.39 47.4997 121.39C46.4927 121.39 45.6729 120.57 45.6729 119.563V113.982C45.6729 112.975 46.4927 112.156 47.4997 112.156C48.5066 112.156 49.3265 112.975 49.3265 113.982Z" fill="#CBCCCE"/>
<path d="M11.7833 112.803V118.384C11.7833 119.391 10.9634 120.211 9.95646 120.211C8.94956 120.211 8.12964 119.391 8.12964 118.384V112.803C8.12964 111.796 8.94956 110.976 9.95646 110.976C10.9634 110.976 11.7833 111.796 11.7833 112.803Z" fill="#CBCCCE"/>
<path d="M56.0585 77.2443L55.0084 74.6119C54.1598 72.4974 52.0453 71.6631 49.7869 71.3179C39.948 69.8075 22.3846 71.1597 20.3996 68.2396C17.8679 64.4997 13.6245 33.5013 11.2367 30.2648C7.02208 24.5686 2.50537 29.0277 2.50537 29.0277L15.9979 76.0647L56.0585 77.2443Z" fill="#576884"/>
<path d="M51.585 73.5907C52.3186 73.6482 52.9659 73.1016 53.0235 72.368L53.5845 64.6579C53.7715 62.8311 52.4337 61.1913 50.5925 61.0331L23.4204 58.7028C21.4929 58.5446 19.853 60.0549 19.853 61.9824V70.3973C19.853 71.1309 20.4284 71.7495 21.162 71.7926L21.3778 71.807C22.1833 71.8501 22.8594 71.2172 22.8594 70.4117V66.2546C22.8594 64.0969 24.7006 62.3996 26.8438 62.5722L46.2772 64.1113C48.3773 64.2839 49.9164 66.1683 49.6431 68.2684L49.2692 72.0515C49.1972 72.7851 49.7438 73.4468 50.4774 73.5043L51.585 73.5907Z" fill="#225F6C"/>
<path d="M56.4612 79.7903L53.6419 109.264C53.3974 111.824 51.1965 113.752 48.6361 113.651L6.93573 112.141C4.38969 112.055 2.33272 109.998 2.26079 107.437L0.00245456 33.4294C-0.0838519 30.6963 2.11696 28.4236 4.84999 28.4236C7.18027 28.4236 9.1797 30.0778 9.61123 32.3649L16.674 69.189C17.0911 71.3898 18.9755 73.0296 21.2195 73.1303L51.8151 74.4825C54.62 74.6119 56.7202 77.0285 56.4612 79.7903Z" fill="#225F6C"/>
<path opacity="0.37" d="M50.276 84.3502C50.5349 81.5884 48.4348 79.1574 45.6586 79.0423L15.063 77.6902C12.819 77.5895 10.9346 75.9641 10.5175 73.7489L3.45475 36.9248C3.10952 35.098 1.74299 33.6883 0.03125 33.1992C0.0744032 30.5669 2.2033 28.438 4.86441 28.438C7.19468 28.438 9.19414 30.0922 9.62567 32.3793L16.6884 69.2034C17.1055 71.4042 18.9899 73.044 21.2339 73.1447L51.8295 74.4968C54.6057 74.6263 56.7058 77.0429 56.4469 79.8047L53.6276 109.278C53.383 111.839 51.1822 113.766 48.6218 113.666L47.471 113.622L50.276 84.3502Z" fill="#CFD1D2"/>
<path d="M153.225 22.4253C153.225 22.4253 150.751 19.9368 148.306 22.0945C145.86 24.2521 137.575 51.7263 137.575 51.7263L142.926 49.4104L153.225 22.4253Z" fill="#576884"/>
<path d="M110.604 55.9554L111.122 54.7328C111.712 53.3519 113.006 52.4169 114.502 52.3018L134.784 50.5757C134.784 50.5757 135.086 51.5538 134.842 52.1436C134.597 52.719 110.604 55.9554 110.604 55.9554Z" fill="#576884"/>
<path d="M111.208 65.7368L110.345 57.5952C110.158 55.7684 111.496 54.1286 113.337 53.9703L140.509 51.6401C142.437 51.4818 144.077 52.9922 144.077 54.9197V64.6579L141.085 64.8305V59.1919C141.085 57.0342 139.243 55.3512 137.1 55.5095L117.667 57.0342C115.567 57.2068 114.027 59.0912 114.301 61.1913L114.891 65.7224H111.208V65.7368Z" fill="#225F6C"/>
<path d="M162.546 28.5531C162.546 28.5531 155.713 22.7562 152.592 21.9363C144.551 23.8494 138.855 62.5866 138.855 62.5866L149.715 71.8358L162.546 28.5531Z" fill="#225F6C"/>
<path d="M114.56 111.738C114.56 111.738 114.963 117.046 113.884 117.909C112.79 118.772 95.3134 118.916 95.3997 117.434C95.673 112.716 100.075 113.608 105.023 111.94C106.447 111.465 105.555 110.3 107.094 110.17C108.058 110.084 107.828 108.243 108.691 108.243C111.295 108.228 114.56 111.738 114.56 111.738Z" fill="#CBCCCE"/>
<path d="M139.301 100.633C139.301 100.633 141.329 105.553 140.552 106.718C139.79 107.883 123.191 113.392 122.817 111.968C121.623 107.394 123.996 108.142 128.182 105.02C129.376 104.129 130.282 102.057 131.706 101.453C132.598 101.079 131.807 99.3962 132.641 99.1229C135.115 98.2886 139.301 100.633 139.301 100.633Z" fill="#00A9D0"/>
<path d="M108.878 63.9385L127.031 105.811L139.963 101.669C139.963 101.669 126.283 74.0363 121.292 66.2831C119.163 62.9747 108.878 63.9385 108.878 63.9385Z" fill="#01141C"/>
<path d="M109.612 60.6446C108.446 63.7948 106.246 70.613 119.983 74.1084C123.809 75.0866 131.807 74.3386 137.906 74.5256C153.11 74.9571 154.39 72.2385 154.649 70.2534C156.591 55.121 113.553 58.0554 109.612 60.6446Z" fill="#FD7253"/>
<path d="M109.194 61.0904C106.044 69.8361 102.52 112.615 102.52 112.615L115.969 114.859C115.969 114.859 122.313 81.5882 123.593 72.5548C124.327 67.5346 110.244 58.1703 109.194 61.0904Z" fill="#FD7253"/>
<path opacity="0.12" d="M151.93 63.7229C152.981 65.1326 153.47 66.8012 153.225 68.7574C152.966 70.7281 151.686 73.4611 136.482 73.0296C131.821 72.9002 126.053 73.2885 121.896 73.0584C120.328 83.4871 114.56 113.363 114.56 113.363L102.635 111.378C102.563 112.17 102.52 112.63 102.52 112.63L115.969 114.874C115.969 114.874 121.752 84.983 123.306 74.5687C127.477 74.7989 133.231 74.4105 137.891 74.54C153.096 74.9715 154.376 72.2528 154.635 70.2678C154.994 67.5635 153.93 65.4059 151.93 63.7229Z" fill="#7A665A"/>
<path d="M99.9453 51.8558C99.9453 51.8558 99.859 50.5755 98.8953 49.0939C97.9315 47.6267 96.2198 45.5266 95.3855 45.5842C94.2203 45.6849 95.9177 48.0583 95.9033 48.6912C95.8745 49.4392 87.9775 47.526 88.1213 49.3672C88.3371 51.9277 88.9844 54.0566 94.6806 55.2505C96.6944 55.682 101.787 55.4662 101.787 55.4662L99.9453 51.8558Z" fill="#F4CFC1"/>
<path d="M119.681 30.4517L118.415 47.7849L123.55 32.9833L119.681 30.4517Z" fill="white"/>
<path d="M114.963 24.0363L130.412 23.4753L128.57 33.2424L118.933 32.0053L114.963 24.0363Z" fill="#F4BEAB"/>
<path d="M98.7371 46.7494L99.6145 56.7466C99.6145 56.7466 120.285 58.2569 123.205 54.9197C126.139 51.5682 119.177 46.4042 119.177 46.4042C119.177 46.4042 117.566 45.7569 98.7371 46.7494Z" fill="white"/>
<path d="M123.924 23.9355C123.32 26.4672 122.701 29.6173 122.701 29.6173C122.701 29.6173 134.238 40.046 135.403 58.4581C139.819 62.0686 154.131 59.7958 154.635 70.2533C162.244 56.9189 153.743 40.4632 144.321 31.2859C136.252 23.4177 131.462 22.5834 125.55 22.6265C124.787 22.6265 124.111 23.1731 123.924 23.9355Z" fill="white"/>
<path opacity="0.12" d="M144.336 31.2862C137.302 24.4248 132.756 22.9145 127.793 22.6699C131.131 23.6912 134.727 25.892 139.43 30.4663C147.673 38.4928 155.225 52.1292 151.859 64.3415C153.441 65.6649 154.52 67.5205 154.649 70.2392C162.244 56.9192 153.743 40.4634 144.336 31.2862Z" fill="#7A665A"/>
<path opacity="0.37" d="M117.509 24.7268C117.509 24.7268 121.119 27.7907 121.234 29.7182C121.349 31.6601 120.443 32.1923 120.443 32.1923L117.509 24.7268Z" fill="#F4CEBA"/>
<path d="M110.532 34.6088C110.532 34.6088 113.553 36.2198 114.1 36.6801C114.646 37.1404 115.739 34.5656 115.739 34.5656C115.739 34.5656 119.149 34.5656 120.213 33.4292C121.22 32.3504 118.947 25.9925 117.523 24.7267C115.107 22.569 114.689 23.2595 114.042 22.2526C113.395 21.2457 109.108 15.6645 103.872 20.2675C98.6364 24.8561 99.4707 29.9482 102.089 32.1347C104.102 33.8176 105.167 34.6088 106.735 34.5368C108.274 34.4362 110.532 34.6088 110.532 34.6088Z" fill="#F4CFC1"/>
<path d="M116.962 24.2663C113.726 23.1444 113.093 24.741 108.605 24.8561C106.404 24.9136 104.592 27.0138 105.325 29.8619C106.059 32.71 105.685 35.2273 104.289 35.0546C97.6151 34.1916 94.6519 21.4758 103.7 17.7646C108.504 15.7939 116.257 16.7865 116.962 24.2663Z" fill="#4F3F38"/>
<path d="M111.28 24.4822C111.28 24.4822 110.115 22.8279 110.547 22.1663C110.906 21.6197 112.848 21.3463 113.898 22.0799C115.006 22.8423 115.84 24.0506 115.696 24.5253C115.581 25 111.28 24.4822 111.28 24.4822Z" fill="#F4CFC1"/>
<path d="M100.665 40.2044C100.78 40.4201 106.289 44.8074 106.289 44.8074L108.705 43.2251C108.705 43.2251 110.36 41.7723 108.95 39.0392C107.54 36.3062 107.799 36.9966 107.339 35.5007C106.893 34.0047 107.267 30.9983 105.8 33.2567C104.606 35.0979 106.231 37.0686 105.383 36.824C104.52 36.5651 103.585 29.6031 102.448 30.0634C101.916 30.2791 99.2262 33.3574 99.068 34.0766C98.8522 34.9828 100.075 39.1255 100.665 40.2044Z" fill="#F4BEAB"/>
<path d="M125.679 22.6696C125.176 22.5258 124.154 23.0005 124.01 23.5183C122.86 27.8336 117.782 46.893 117.94 49.4102C118.113 52.244 116.732 60.3855 120.285 60.3855C123.838 60.3855 129.088 51.4672 133.346 44.6346C136.137 40.1467 132.641 24.6834 125.679 22.6696Z" fill="#EAEAEA"/>
<path d="M108.662 37.4714L102.333 45.2534C102.333 45.2534 116.099 60.7454 120.529 60.3858C124.96 60.0262 124.6 50.3023 124.6 50.3023C124.6 50.3023 122.845 49.8852 108.662 37.4714Z" fill="#EAEAEA"/>
<g opacity="0.12">
<path opacity="0.12" d="M125.679 22.6699C125.19 22.5261 124.255 22.9576 124.039 23.4467C129.894 27.1579 132.641 40.521 130.081 44.6349C126.499 50.4031 122.198 57.624 118.818 59.7529C118.746 59.8105 118.659 59.8392 118.587 59.8968C118.976 60.0838 119.35 60.2132 119.681 60.2995C119.882 60.3427 120.069 60.3715 120.242 60.3858C120.256 60.3858 120.27 60.4002 120.299 60.4002C120.314 60.4002 120.328 60.4002 120.328 60.4002C120.385 60.4002 120.457 60.4146 120.515 60.4002C121.119 60.3571 121.637 60.1125 122.068 59.7673C125.449 57.6384 129.75 50.4174 133.331 44.6493C136.136 40.147 132.641 24.6837 125.679 22.6699Z" fill="#7A665A"/>
<path opacity="0.12" d="M118.415 48.0008C118.559 47.3104 118.415 46.6343 118.587 45.8144C116.674 44.2033 111.482 39.9456 108.662 37.4714L107.31 39.1256C110.676 42.0601 116.459 46.4041 118.415 48.0008Z" fill="#7A665A"/>
</g>
<path d="M144.551 59.3501L143.07 58.1562C142.192 57.4514 141.07 57.1062 139.934 57.2212L114.905 59.6378C114.33 59.6953 113.812 60.0406 113.567 60.5728L112.258 63.2483L144.551 59.3501Z" fill="#576884"/>
<path d="M116.358 113.982V119.563C116.358 120.57 117.178 121.39 118.185 121.39C119.192 121.39 120.012 120.57 120.012 119.563V113.982C120.012 112.975 119.192 112.155 118.185 112.155C117.178 112.155 116.358 112.975 116.358 113.982Z" fill="#CBCCCE"/>
<path d="M153.887 112.803V118.384C153.887 119.391 154.707 120.211 155.714 120.211C156.72 120.211 157.54 119.391 157.54 118.384V112.803C157.54 111.796 156.72 110.976 155.714 110.976C154.707 110.976 153.887 111.796 153.887 112.803Z" fill="#CBCCCE"/>
<path d="M109.612 77.2443L110.662 74.6119C111.51 72.4974 113.625 71.6631 115.883 71.3179C125.722 69.8075 143.285 71.1597 145.271 68.2396C147.802 64.4997 152.046 33.5013 154.433 30.2648C158.648 24.5686 163.165 29.0277 163.165 29.0277L149.672 76.0647L109.612 77.2443Z" fill="#576884"/>
<path d="M114.099 73.5907C113.366 73.6482 112.718 73.1016 112.661 72.368L112.1 64.6579C111.913 62.8311 113.251 61.1913 115.092 61.0331L142.264 58.7028C144.192 58.5446 145.831 60.0549 145.831 61.9824V70.3973C145.831 71.1309 145.256 71.7495 144.522 71.7926L144.307 71.807C143.501 71.8501 142.825 71.2172 142.825 70.4117V66.2546C142.825 64.0969 140.984 62.3996 138.841 62.5722L119.407 64.1113C117.307 64.2839 115.768 66.1683 116.041 68.2684L116.415 72.0515C116.487 72.7851 115.941 73.4468 115.207 73.5043L114.099 73.5907Z" fill="#225F6C"/>
<path d="M109.209 79.7903L112.028 109.264C112.273 111.824 114.474 113.752 117.034 113.651L158.734 112.141C161.28 112.055 163.337 109.998 163.409 107.437L165.668 33.4294C165.754 30.6963 163.553 28.4236 160.82 28.4236C158.49 28.4236 156.49 30.0778 156.059 32.3649L148.996 69.189C148.579 71.3898 146.695 73.0296 144.451 73.1303L113.855 74.4825C111.05 74.6119 108.95 77.0285 109.209 79.7903Z" fill="#225F6C"/>
<path opacity="0.37" d="M115.394 84.3502C115.135 81.5884 117.235 79.1574 120.012 79.0423L150.607 77.6902C152.851 77.5895 154.736 75.9641 155.153 73.7489L162.215 36.9248C162.561 35.098 163.927 33.6883 165.639 33.1992C165.596 30.5669 163.467 28.438 160.806 28.438C158.475 28.438 156.476 30.0922 156.044 32.3793L148.982 69.2034C148.565 71.4042 146.68 73.044 144.436 73.1447L113.841 74.4968C111.064 74.6263 108.964 77.0429 109.223 79.8047L112.043 109.278C112.287 111.839 114.488 113.766 117.048 113.666L118.199 113.622L115.394 84.3502Z" fill="#CFD1D2"/>
</svg>
