<svg width="159" height="118" viewBox="0 0 159 118" fill="none" xmlns="http://www.w3.org/2000/svg">
<path d="M12.4694 18.8642C12.4694 18.8642 14.9455 16.3738 17.3928 18.5332C19.8401 20.6926 28.1321 48.1887 28.1321 48.1887L22.7768 45.871L12.4694 18.8642Z" fill="#225F6C"/>
<path d="M55.1245 52.4068L54.6062 51.1831C54.016 49.8011 52.7204 48.8654 51.2232 48.7502L30.9249 47.0227C30.9249 47.0227 30.6226 48.0016 30.8673 48.5919C31.0977 49.1677 55.1245 52.4068 55.1245 52.4068Z" fill="#225F6C"/>
<path d="M54.5198 62.2105L55.3836 54.0624C55.5707 52.2341 54.2319 50.593 52.3892 50.4346L25.1953 48.1025C23.2663 47.9441 21.6251 49.4557 21.6251 51.3847V61.1308L24.6195 61.3035V55.6603C24.6195 53.5009 26.4622 51.8166 28.6071 51.975L48.056 53.5009C50.1578 53.6737 51.6982 55.5596 51.4247 57.6614L50.8345 62.1961H54.5198V62.2105Z" fill="#225F6C"/>
<path d="M3.14075 24.9825C3.14075 24.9825 9.97881 19.1809 13.1027 18.3604C21.15 20.275 26.8508 59.0432 26.8508 59.0432L15.9675 68.2998L3.14075 24.9825Z" fill="#225F6C"/>
<path d="M81.6274 47.0227C82.1744 46.3029 83.8011 45.3384 83.2541 44.7338C81.3826 42.6752 72.961 45.1081 72.6155 44.6042C72.486 44.4171 73.0762 44.3451 73.7672 43.107C74.559 41.6818 73.9399 39.8104 73.58 40.9189C73.2201 42.0129 72.7595 42.4592 71.5358 43.0638C70.816 43.4093 69.3332 44.1436 68.5559 45.4824C68.052 46.3461 68.052 48.2176 67.7353 48.8654C67.7065 48.923 67.6777 48.9806 67.6489 49.0238L70.2114 50.2474C70.2546 50.1179 70.3122 50.0027 70.3554 49.8875C73.0474 50.3338 78.5178 51.14 81.6274 47.0227Z" fill="#F4CFC1"/>
<path d="M60.6956 28.999C60.6956 28.999 52.7203 37.9533 50.3594 37.9389C47.9984 37.9245 47.1923 26.926 47.1923 26.926L60.6956 28.999Z" fill="#44433C"/>
<path d="M52.9219 104.088C52.9219 104.088 52.49 109.602 53.6273 110.509C54.7502 111.416 72.9466 111.56 72.8603 110.019C72.5723 105.11 67.9944 106.046 62.8551 104.304C61.3867 103.8 62.308 102.605 60.6957 102.462C59.7024 102.375 59.9327 100.46 59.0258 100.446C56.3193 100.432 52.9219 104.088 52.9219 104.088Z" fill="#969493"/>
<path d="M29.1542 99.3663C29.1542 99.3663 27.0524 104.477 27.8442 105.686C28.636 106.895 45.8967 112.625 46.2854 111.142C47.5234 106.392 45.0617 107.155 40.6998 103.915C39.4473 102.98 38.5116 100.835 37.0432 100.201C36.1219 99.8126 36.9424 98.0563 36.0787 97.7827C33.5018 96.9334 29.1542 99.3663 29.1542 99.3663Z" fill="#969493"/>
<path d="M57.4133 62.1528L41.9089 104.765L28.4487 100.46C28.4487 100.46 42.6719 71.7261 47.8544 63.6643C50.0858 60.2237 57.4133 62.1528 57.4133 62.1528Z" fill="#01141C"/>
<path d="M56.2042 59.6192C56.8232 62.0953 58.8243 69.0054 49.2366 71.7838C45.3065 72.9211 36.9425 72.0285 30.5939 72.2156C14.7871 72.6619 13.4483 69.8259 13.1892 67.7817C11.1738 52.047 52.1014 56.9272 56.2042 59.6192Z" fill="#249FBA"/>
<path d="M56.8375 60.2381C60.1054 69.3364 62.855 104.29 62.855 104.29L52.9218 104.75C52.9218 104.75 44.8889 82.0624 45.4791 70.1713C45.7382 64.9024 55.7434 57.215 56.8375 60.2381Z" fill="#249FBA"/>
<path opacity="0.12" d="M54.4478 102.908C54.4478 102.908 47.3074 82.7533 46.9907 70.4735C42.6863 70.7039 36.856 70.2432 32.1341 70.3728C16.3274 70.819 14.9886 67.9831 14.7294 65.9388C14.5135 64.2401 14.8158 62.7861 15.5068 61.5337C13.7649 63.1316 12.858 65.1902 13.2035 67.8535C13.4626 69.9121 14.8014 72.7481 30.6081 72.2874C35.33 72.1579 41.1604 72.6185 45.4647 72.3882C45.7959 84.6679 52.9218 104.822 52.9218 104.822L62.855 104.362C62.855 104.362 62.7974 103.685 62.6967 102.519L54.4478 102.908Z" fill="#7A665A"/>
<path d="M49.5532 26.3933L50.8632 44.417L46.602 45.6119L45.5223 29.0277L49.5532 26.3933Z" fill="white"/>
<path d="M54.4622 19.7279L38.3964 19.1377L40.311 29.3012L50.3306 28.0056L54.4622 19.7279Z" fill="#F4BEAB"/>
<path d="M69.5924 44.2732L70.6721 50.0604C70.6721 50.0604 48.9198 55.3148 45.8679 51.831C42.816 48.3472 50.0571 42.9775 50.0571 42.9775C50.0571 42.9775 50.0139 43.2511 69.5924 44.2732Z" fill="white"/>
<path d="M45.1337 19.613C45.7672 22.2474 46.4006 25.5297 46.4006 25.5297C46.4006 25.5297 45.58 32.886 42.4417 37.9821C39.289 43.0927 29.2694 43.1935 33.1995 55.5164C28.6072 59.2737 13.7362 56.9128 13.2036 67.7817C5.30023 53.9184 14.1393 36.8017 23.9285 27.2716C32.3214 19.0947 37.288 18.2166 43.435 18.2597C44.2412 18.2597 44.9466 18.8212 45.1337 19.613Z" fill="white"/>
<path opacity="0.12" d="M23.9141 27.2716C31.2272 20.1456 35.949 18.5621 41.1172 18.303C37.6334 19.3683 33.9192 21.6428 29.0246 26.4079C20.4446 34.7575 12.5989 48.9231 16.1115 61.6347C14.4559 63.0167 13.3474 64.9458 13.2035 67.7674C5.28573 53.9185 14.1248 36.8017 23.9141 27.2716Z" fill="#7A665A"/>
<path opacity="0.37" d="M51.8134 20.448C51.8134 20.448 48.056 23.6295 47.9409 25.645C47.8113 27.6604 48.7614 28.2218 48.7614 28.2218L51.8134 20.448Z" fill="#F4CEBA"/>
<path d="M58.2484 30.309C58.2484 30.309 55.3692 31.8493 54.8509 32.2812C54.3327 32.7131 53.2962 30.2658 53.2962 30.2658C53.2962 30.2658 50.0427 30.2658 49.0206 29.1717C48.056 28.1352 50.2298 22.0745 51.583 20.8652C53.9008 18.8066 54.2895 19.4544 54.9085 18.5043C55.5275 17.5542 59.616 12.2277 64.6114 16.604C69.6067 20.9804 68.815 25.8318 66.3101 27.9192C64.381 29.5316 63.3733 30.2802 61.8761 30.2082C60.3933 30.1362 58.2484 30.309 58.2484 30.309Z" fill="#F4CFC1"/>
<path d="M52.1157 20.4334C55.1965 19.3537 55.8155 20.8797 60.0911 21.0093C62.1929 21.0669 63.9204 23.0679 63.215 25.7743C62.5096 28.4952 62.8695 30.8993 64.1939 30.7265C70.5569 29.8916 73.3785 17.7702 64.7553 14.2288C60.1774 12.3573 52.7779 13.293 52.1157 20.4334Z" fill="#44433C"/>
<path d="M57.5286 20.6349C57.5286 20.6349 58.6371 19.0514 58.2196 18.4324C57.8741 17.9141 56.0314 17.6406 55.0237 18.346C53.9728 19.0802 53.181 20.2175 53.2962 20.6781C53.4257 21.1388 57.5286 20.6349 57.5286 20.6349Z" fill="#F4CFC1"/>
<path d="M21.1356 55.8188L23.4246 53.9761C23.7845 53.6882 24.2451 53.5442 24.7202 53.5874L50.964 56.0491C51.8133 56.1355 52.5331 56.7257 52.7779 57.5463L53.3825 59.5473L21.1356 55.8188Z" fill="#225F6C"/>
<path d="M49.366 110.48V116.066C49.366 117.073 48.5455 117.894 47.5378 117.894C46.53 117.894 45.7095 117.073 45.7095 116.066V110.48C45.7095 109.472 46.53 108.652 47.5378 108.652C48.5455 108.652 49.366 109.472 49.366 110.48Z" fill="#CBCCCE"/>
<path d="M11.7927 109.314V114.9C11.7927 115.907 10.9721 116.728 9.96439 116.728C8.95668 116.728 8.13611 115.907 8.13611 114.9V109.314C8.13611 108.306 8.95668 107.486 9.96439 107.486C10.9721 107.471 11.7927 108.292 11.7927 109.314Z" fill="#CBCCCE"/>
<path d="M56.1178 73.7273L55.0669 71.0928C54.2175 68.9767 52.1013 68.1417 49.8411 67.7962C39.9943 66.2846 22.4169 67.6378 20.4303 64.7155C17.8966 60.9725 13.6498 29.9493 11.2601 26.7102C7.04205 21.0094 2.52173 25.4722 2.52173 25.4722L16.0251 72.5469L56.1178 73.7273Z" fill="#225F6C"/>
<path d="M51.6262 70.0706C52.3604 70.1282 53.0082 69.5811 53.0658 68.847L53.6272 61.1308C53.8144 59.3025 52.4755 57.6613 50.6329 57.503L23.439 55.1708C21.5099 55.0125 19.8688 56.524 19.8688 58.4531V66.8747C19.8688 67.6089 20.4446 68.2279 21.1788 68.2711L21.3947 68.2855C22.2009 68.3287 22.8775 67.6953 22.8775 66.8891V62.7287C22.8775 60.5693 24.7202 58.885 26.8652 59.0433L46.3141 60.5837C48.4159 60.7565 49.9563 62.6423 49.6827 64.7441L49.3084 68.5302C49.2365 69.2644 49.7835 69.9267 50.5177 69.9842L51.6262 70.0706Z" fill="#225F6C"/>
<path d="M56.5065 76.2753L53.6849 105.772C53.4401 108.335 51.2376 110.264 48.6751 110.163L6.94129 108.652C4.39321 108.565 2.3346 106.507 2.26262 103.944L0.00245652 29.8772C-0.083919 27.142 2.11866 24.8674 4.85388 24.8674C7.18602 24.8674 9.18706 26.5229 9.61894 28.8119L16.6873 65.6655C17.1048 67.8681 18.9907 69.5092 21.2364 69.6099L51.8566 70.9632C54.6638 71.0783 56.78 73.5112 56.5065 76.2753Z" fill="#225F6C"/>
<path opacity="0.37" d="M50.3162 80.8388C50.5753 78.0748 48.4735 75.6419 45.6951 75.5267L15.075 74.1735C12.8292 74.0727 10.9434 72.446 10.5259 70.229L3.45748 33.3755C3.11198 31.5472 1.74437 30.1364 0.03125 29.6469C0.0744378 27.0125 2.20504 24.8818 4.86828 24.8818C7.20042 24.8818 9.20145 26.5374 9.63333 28.8263L16.7017 65.6799C17.1192 67.8825 19.0051 69.5236 21.2508 69.6244L51.871 70.9776C54.6494 71.1072 56.7512 73.5257 56.4921 76.2897L53.6705 105.787C53.4257 108.349 51.2232 110.278 48.6607 110.178L47.509 110.135L50.3162 80.8388Z" fill="#CFD1D2"/>
<path d="M69.3332 36.5425C69.218 36.7584 63.7188 40.0551 63.7188 40.0551L60.9548 39.6808C60.9548 39.6808 59.2273 38.1692 60.7101 35.3332C62.1784 32.4828 61.9049 33.217 62.38 31.6623C62.855 30.1075 62.452 26.9836 63.9779 29.3301C65.2304 31.2448 63.5317 33.3034 64.4098 33.0443C65.3168 32.7851 66.2813 25.5296 67.4617 26.019C68.0088 26.235 70.816 29.4453 70.9887 30.1939C71.2047 31.1152 69.9378 35.4196 69.3332 36.5425Z" fill="#F4BEAB"/>
<path d="M43.8236 18.4758C44.3563 18.3174 44.9033 18.6485 45.0473 19.1812C46.2565 23.6727 48.9198 46.3607 48.7614 48.9663C48.5743 51.9175 51.7846 57.2728 48.0992 57.2728C44.4139 57.2728 38.8426 41.0774 34.4087 33.9658C31.5151 29.3159 36.5825 20.5776 43.8236 18.4758Z" fill="white"/>
<path d="M61.0125 33.6921L63.7189 40.0551C63.7189 40.0551 53.2818 57.8917 48.6751 57.5174C44.0684 57.1431 44.4427 47.0371 44.4427 47.0371C44.4427 47.0371 46.2566 46.6053 61.0125 33.6921Z" fill="white"/>
<path opacity="0.12" d="M49.6685 54.1632C49.2222 54.1344 48.8335 53.976 48.4736 53.7744C44.8026 52.1909 39.5913 37.3487 35.4021 30.6114C34.6823 29.4597 34.4664 28.0633 34.6247 26.5806C33.4011 29.2294 33.1707 31.979 34.4088 33.98C38.598 40.7029 43.8093 55.5595 47.4803 57.1431C47.8402 57.3446 48.2289 57.503 48.6751 57.5318C53.2818 57.9061 63.7189 40.0695 63.7189 40.0695L63.287 39.0474C60.2783 43.8557 53.2386 54.4511 49.6685 54.1632Z" fill="#7A665A"/>
<path d="M53.2961 20.1167C53.2961 20.1167 33.2282 37.1183 29.9891 32.4252C29.3845 31.5471 28.9238 30.7265 28.5783 29.9491C27.2395 27.0411 28.2472 23.6005 30.9105 21.8298C35.7907 18.6051 45.7527 13.3794 59.2129 13.3794C64.1075 13.3794 55.4411 16.273 55.4411 16.273L53.2961 20.1167Z" fill="#44433C"/>
<path d="M134.863 78.5644C135.108 78.9963 135.569 79.2698 136.058 79.2842L154.571 80.0328C155.392 80.0616 156.083 79.3994 156.083 78.5788V68.2426C156.083 67.4364 155.435 66.7886 154.629 66.7886H154.197C153.391 66.7886 152.743 67.4364 152.743 68.2426V74.7639C152.743 75.5557 152.095 76.2035 151.304 76.2179L136.087 76.3907C134.993 76.3907 134.302 77.5999 134.863 78.5644Z" fill="#17454F"/>
<path d="M137.685 106.421C135.281 109.199 132.531 106.421 132.531 106.421V72.6333H137.685C137.685 72.6333 137.987 98.9778 137.685 106.421Z" fill="#17454F"/>
<path d="M131.711 104.448L121.274 107.658C120.813 107.802 120.482 108.234 120.482 108.724V111.416H122.209L122.541 109.616C122.627 109.184 122.944 108.839 123.376 108.738L132.301 106.608C132.805 106.492 133.15 106.046 133.15 105.528C133.15 104.765 132.431 104.218 131.711 104.448Z" fill="#17454F"/>
<path d="M138.506 104.448L148.943 107.658C149.403 107.802 149.734 108.234 149.734 108.724V111.416H148.007L147.676 109.616C147.589 109.184 147.273 108.839 146.841 108.738L137.93 106.608C137.426 106.492 137.08 106.046 137.08 105.528C137.066 104.765 137.786 104.218 138.506 104.448Z" fill="#17454F"/>
<path d="M135.051 104.002C134.316 104.002 133.741 104.621 133.798 105.355L134.388 113.417H135.886L136.317 105.326C136.346 104.607 135.77 104.002 135.051 104.002Z" fill="#17454F"/>
<path d="M116.854 74.116L118.726 69.4949C119.014 68.7751 119.719 68.3 120.511 68.3H147.445C148.223 68.3 148.914 68.8183 149.13 69.5813L150.382 74.0728L116.854 74.116Z" fill="#225F6C"/>
<path d="M155.406 29.5463L151.851 28.0923L150.051 63.4919C150.051 65.2626 152.758 68.4872 152.758 68.4872L155.406 29.5463Z" fill="#225F6C"/>
<path d="M135.929 112.409C135.929 112.409 137.613 112.755 137.512 114.497C137.455 115.519 133.006 114.741 133.006 114.741C133.006 114.741 132.531 113.172 134.316 112.409C135.209 112.021 135.929 112.409 135.929 112.409Z" fill="#225F6C"/>
<path d="M149.662 109.66C149.662 109.66 151.347 110.005 151.246 111.747C151.188 112.769 146.74 111.992 146.74 111.992C146.74 111.992 146.265 110.423 148.05 109.66C148.957 109.271 149.662 109.66 149.662 109.66Z" fill="#225F6C"/>
<path d="M122.109 109.631C122.109 109.631 123.793 109.976 123.692 111.718C123.635 112.74 119.186 111.963 119.186 111.963C119.186 111.963 118.711 110.394 120.496 109.631C121.389 109.242 122.109 109.631 122.109 109.631Z" fill="#225F6C"/>
<path d="M137.584 115.058C137.584 116.325 136.548 117.361 135.281 117.361C134.014 117.361 132.978 116.325 132.978 115.058C132.978 113.791 134.014 112.755 135.281 112.755C136.548 112.755 137.584 113.777 137.584 115.058Z" fill="#17454F"/>
<path d="M151.275 112.409C151.275 113.676 150.238 114.712 148.971 114.712C147.705 114.712 146.668 113.676 146.668 112.409C146.668 111.142 147.705 110.106 148.971 110.106C150.238 110.106 151.275 111.142 151.275 112.409Z" fill="#17454F"/>
<path d="M123.707 112.409C123.707 113.676 122.67 114.712 121.403 114.712C120.136 114.712 119.1 113.676 119.1 112.409C119.1 111.142 120.136 110.106 121.403 110.106C122.67 110.106 123.707 111.142 123.707 112.409Z" fill="#17454F"/>
<path d="M118.826 77.0816H148.396C149.576 77.0816 150.526 76.1315 150.526 74.9511V74.8791C150.526 73.6986 149.562 72.7341 148.381 72.7485L118.798 72.8205C117.617 72.8205 116.667 73.785 116.667 74.9511C116.681 76.1315 117.646 77.0816 118.826 77.0816Z" fill="#225F6C"/>
<path d="M158.214 30.4244L154.615 27.3581C154.615 27.3581 154.183 26.8111 153.046 26.8974C151.606 26.9982 151.807 28.4954 151.807 28.4954L154.701 30.9427L158.214 30.4244Z" fill="#225F6C"/>
<path d="M153.78 69.0774L155.277 69.1493C156.04 69.1925 156.702 68.6023 156.745 67.8249L158.53 31.4176C158.574 30.6546 157.983 29.9924 157.206 29.9492L155.709 29.8772C154.946 29.834 154.284 30.4243 154.24 31.2017L152.455 67.609C152.426 68.372 153.017 69.0342 153.78 69.0774Z" fill="#225F6C"/>
<path d="M120.612 38.6301C122.598 40.5448 122.195 42.2867 122.195 42.2867L118.366 39.753L116.782 39.7818C116.782 39.7818 120.036 38.0687 120.612 38.6301Z" fill="#F4CFC1"/>
<path d="M115.774 46.3031L111.816 46.188L113.557 51.5577L116.12 51.4857L115.774 46.3031Z" fill="#F4CFC1"/>
<path d="M104.862 41.394L109.412 59.0866L114.724 53.7457L110.376 37.5071L104.862 41.394Z" fill="#225F6C"/>
<path d="M105.741 41.941L109.484 56.4809L113.846 52.1045L110.275 38.7451L105.741 41.941Z" fill="#EBEBEC"/>
<path d="M110.376 37.5071H109.8L104.2 41.3364L108.735 59.0866H109.412L104.862 41.394L110.376 37.5071Z" fill="#225F6C"/>
<path d="M105.741 40.2709H106.446L107.022 41.8977L109.426 40.0262L108.908 38.5435H108.274L105.741 40.2709Z" fill="#929396"/>
<path d="M115.213 45.353C115.213 45.2954 111.772 45.7417 111.211 44.7052C110.649 43.6543 110.189 46.2168 111.96 46.663C113.73 47.1093 114.234 49.7438 115.4 48.6929C116.566 47.6276 115.213 45.353 115.213 45.353Z" fill="#F4CFC1"/>
<path d="M134.288 31.6912L130.199 46.0871L114.724 44.8202V53.0259L133.251 52.0902L136.303 35.1462L134.288 31.6912Z" fill="#5AB6CA"/>
<path d="M115.184 59.1873C121.144 58.4387 133.625 55.5164 133.625 55.5164V59.1585L113.615 61.4331L116.293 65.6799C116.293 65.6799 120.453 78.3195 119.129 83.1853C117.804 88.0511 110.693 103.584 110.693 103.584L106.316 104.074L112.492 61.5194C112.838 60.267 113.903 59.3457 115.184 59.1873Z" fill="#F4BEAB"/>
<path d="M110.693 103.584C113.342 109.847 111.902 107.86 112.363 114.871C110.779 115.389 109.354 114.928 109.354 114.928C109.354 114.928 109.627 111.286 109.181 111.315C107.958 111.373 107.684 115.144 106.316 115.288C104.272 115.519 100.428 115.706 98.9169 115.605C99.248 112.97 100.616 113.834 103.596 110.048C104.762 108.565 106.316 104.074 106.316 104.074C106.316 104.074 110.333 102.721 110.693 103.584Z" fill="#17454F"/>
<path d="M138.131 21.4414C138.131 21.4414 131.524 30.007 130.991 32.4399C130.458 34.8584 133.15 37.8816 132.834 41.1207C132.517 44.3453 130.689 57.2728 130.689 57.2728C130.689 57.2728 150.008 57.8055 149.677 55.5166C149.346 53.2276 145.704 21.4414 145.704 21.4414H138.131Z" fill="#00A7C5"/>
<path d="M138.405 16.633C138.405 16.633 140.017 19.0516 137.699 22.0891C135.382 25.1123 147.388 22.0891 147.388 22.0891L144.264 14.9199L138.405 16.633Z" fill="#F4BEAB"/>
<path d="M134.23 11.7097C134.23 11.7097 133.078 14.3441 132.546 14.8624C132.013 15.3807 134.806 16.7914 134.806 16.7914C134.806 16.7914 135.223 17.9863 135.785 20.7935C135.972 21.7436 143.53 19.4691 144.984 18.1015C147.474 15.7837 153.535 12.2424 149.015 6.46959C144.494 0.696825 138.981 1.12867 136.447 3.64796C134.489 5.59141 133.553 6.61352 133.525 8.24026C133.51 9.85261 134.23 11.7097 134.23 11.7097Z" fill="#F4CFC1"/>
<path d="M144.062 19.0516C143.616 16.6762 142.853 8.91682 138.88 7.88031C135.842 7.07414 132.862 7.13176 133.165 5.70656C134.604 -1.08832 147.474 -3.00297 150.742 6.61351C152.484 11.7097 150.454 17.9143 144.062 19.0516Z" fill="#E77732"/>
<path d="M142.45 12.4005C142.45 12.4005 143.4 10.8745 144.667 11.1912C145.329 11.364 145.876 13.4226 145.243 14.6175C144.581 15.8555 143.947 16.5897 143.415 16.5321C142.896 16.4601 142.45 12.4005 142.45 12.4005Z" fill="#F4CFC1"/>
<path d="M149.677 56.9272C149.677 56.9272 153.722 66.4142 149.144 70.0563C144.566 73.6985 113.255 70.8625 112.852 68.2425C112.449 65.6224 110.232 61.5771 112.852 59.3602C115.472 57.1288 149.677 56.9272 149.677 56.9272Z" fill="#F4CFC1"/>
<path d="M120.482 67.7819C120.482 67.7819 122.267 74.9078 122.267 79.9464C122.267 84.9994 116.293 109.832 116.293 109.832H112.607L111.614 61.7644L120.482 67.7819Z" fill="#F4CFC1"/>
<path d="M149.677 55.5164C149.677 55.5164 154.931 65.4063 149.144 70.0562C143.357 74.7061 123.361 71.7837 123.361 71.7837C123.361 71.7837 118.682 59.5616 114.45 58.7554C118.927 57.0423 127.075 55.8475 130.948 55.502C137.642 57.1863 149.677 55.5164 149.677 55.5164Z" fill="#CBCCCE"/>
<path opacity="0.12" d="M149.677 55.5164C149.677 55.5164 147.892 55.7611 145.329 55.977C146.193 59.2305 146.481 63.578 143.184 66.2269C139.139 69.466 128.198 69.0341 121.936 68.4583C122.814 70.3585 123.361 71.7837 123.361 71.7837C123.361 71.7837 143.357 74.7061 149.144 70.0562C154.931 65.4063 149.677 55.5164 149.677 55.5164Z" fill="#7A665A"/>
<path d="M117.07 105.83C119.417 112.208 118.063 110.163 118.193 117.174C116.581 117.62 115.184 117.088 115.184 117.088C115.184 117.088 115.63 113.474 115.184 113.474C113.961 113.474 113.5 117.217 112.132 117.304C110.074 117.433 106.23 117.433 104.733 117.261C105.193 114.64 106.518 115.576 109.685 111.934C110.923 110.509 112.694 106.089 112.694 106.089C112.694 106.089 116.739 104.952 117.07 105.83Z" fill="#225F6C"/>
<path d="M108.317 37.2912C108.49 37.32 108.591 37.5359 108.548 37.7663C108.505 37.9966 108.332 38.155 108.159 38.1262C107.986 38.0974 107.885 37.8815 107.929 37.6511C107.986 37.4208 108.145 37.2624 108.317 37.2912Z" fill="white"/>
<path d="M121.06 36.8175L113.029 44.2268L113.507 44.7453L121.538 37.336L121.06 36.8175Z" fill="#225F6C"/>
<path d="M113.01 44.23L112.406 45.2665L113.5 44.7483L113.01 44.23Z" fill="#929396"/>
<path d="M124.225 43.5534C124.225 43.5534 123.016 41.1781 121.202 39.9401C118.97 38.4141 115.501 40.4007 114.407 40.6167C113.313 40.8182 114.68 44.4172 115.256 44.9066C115.832 45.4105 118.164 46.1447 118.999 46.1159C119.834 46.0871 120.784 45.209 122.541 46.6773C124.282 48.1457 124.225 43.5534 124.225 43.5534Z" fill="#F4CFC1"/>
<path d="M144.825 26.4511C151.332 28.6681 147.287 48.664 144.825 51.9031C142.364 55.1278 118.942 47.6563 118.942 47.6563L122.166 38.371C122.166 38.371 138.923 44.2301 139.125 43.6255C139.326 43.0208 134.475 22.9241 144.825 26.4511Z" fill="#63CAE1"/>
<path d="M144.062 19.0518C144.062 19.0518 145.905 42.7906 147.057 43.9711C148.223 45.1516 150.123 48.1171 151.923 35.0168C153.722 21.9165 153.65 10.918 149.677 4.3823C145.704 -2.15345 147.042 11.1628 147.042 11.1628L144.062 19.0518Z" fill="#E77732"/>
</svg>
