<svg width="221" height="121" viewBox="0 0 221 121" fill="none" xmlns="http://www.w3.org/2000/svg">
<path d="M12.2477 79.9604V97.6299C12.2477 97.6299 12.5952 100.035 14.9863 100.035C17.3775 100.035 17.9057 98.1442 17.9057 98.1442V79.9604H12.2477Z" fill="#225F6C"/>
<path d="M22.7158 67.0176V84.687C22.7158 84.687 23.0634 87.092 25.4545 87.092C27.8595 87.092 28.3739 85.2014 28.3739 85.2014V67.0176H22.7158Z" fill="#225F6C"/>
<path d="M128.12 67.0176V84.687C128.12 84.687 128.468 87.092 130.859 87.092C133.25 87.092 133.779 85.2014 133.779 85.2014V67.0176H128.12Z" fill="#225F6C"/>
<path d="M137.296 79.9604V97.6299C137.296 97.6299 137.643 100.035 140.034 100.035C142.426 100.035 142.954 98.1442 142.954 98.1442V79.9604H137.296Z" fill="#225F6C"/>
<path d="M0.806396 68.7692C0.806396 68.7692 11.3302 55.187 15.4452 53.3797C19.5601 51.5725 149.863 52.351 152.171 53.3797C154.493 54.4085 156.036 70.4791 156.036 70.4791L0.806396 68.7692Z" fill="#A1DEF1"/>
<path d="M151.337 80.9056H4.69887C2.1131 80.9056 0 78.7925 0 76.2068V71.7025C0 69.1168 2.1131 67.0037 4.69887 67.0037H151.337C153.923 67.0037 156.036 69.1168 156.036 71.7025V76.2068C156.036 78.7925 153.923 80.9056 151.337 80.9056Z" fill="#79BDD2"/>
<path d="M140.896 58.1065C140.896 58.1065 145.957 58.7877 146.846 57.8007C147.736 56.8136 148.834 40.0479 147.416 40.0479C142.884 40.0479 143.496 44.3297 141.605 48.9729C141.063 50.3075 140.007 49.39 139.798 50.8636C139.659 51.7811 137.907 51.4614 137.852 52.2955C137.713 54.7978 140.896 58.1065 140.896 58.1065Z" fill="#225F6C"/>
<path d="M18.6148 50.0848C13.1792 50.057 8.04935 51.7391 7.06231 56.9385C6.9789 57.3694 6.90938 57.7726 6.83987 58.148C6.35331 60.9284 8.53591 63.4585 11.358 63.4029L22.0903 63.1805C27.8179 63.0693 30.4176 55.729 25.8856 52.2396C24.2173 50.9607 21.8818 50.0987 18.6148 50.0848Z" fill="#225F6C"/>
<path opacity="0.37" d="M9.13367 63.111C9.13367 63.111 19.296 65.5022 35.5335 64.9322C51.771 64.3622 142.648 62.5828 142.648 62.5828L143.51 60.3029L32.2109 55.3538L17.9058 56.73L9.13367 63.111Z" fill="#F4CEBA"/>
<path d="M143.51 60.3028C143.51 60.3028 148.57 60.984 149.46 59.9969C150.35 59.0099 151.448 42.2441 150.03 42.2441C145.498 42.2441 146.11 46.5259 144.219 51.1692C143.677 52.5038 142.62 51.5863 142.412 53.0599C142.273 53.9774 140.521 53.6576 140.465 54.4918C140.326 56.9941 143.51 60.3028 143.51 60.3028Z" fill="#225F6C"/>
<path d="M18.9067 49.7096L23.411 54.8533L30.9736 50.5437L26.5667 47.8745L18.9067 49.7096Z" fill="#F4CFC1"/>
<path d="M24.2173 38.8801C24.2173 38.8801 27.3869 40.0896 28.082 40.2008C28.7771 40.312 27.5676 42.8005 27.5676 42.8005C27.5676 42.8005 29.7781 45.3445 29.6251 46.9015C29.4722 48.3612 23.2302 50.7802 21.3535 50.5439C18.156 50.1268 18.4063 49.3761 17.2385 49.5429C16.0707 49.7098 9.10582 50.1268 9.13363 43.2175C9.16143 36.3083 13.5127 33.6252 16.8631 34.1674C19.435 34.5844 20.7279 34.8624 21.6732 36.0858C22.6325 37.3092 24.2173 38.8801 24.2173 38.8801Z" fill="#F4CFC1"/>
<path d="M19.588 50.1961C16.6408 48.5 17.447 44.7465 15.6537 43.7733C13.7352 42.7307 14.6667 39.3664 17.2663 38.0596C19.8799 36.7529 21.5342 34.8483 20.4777 33.9168C15.4869 29.4821 4.04557 35.5295 7.1457 44.7048C8.80004 49.5983 14.1801 52.8235 19.588 50.1961Z" fill="#726F65"/>
<path d="M17.1134 46.0256C17.1134 46.0256 15.1115 46.2342 14.903 46.9849C14.7362 47.6105 15.7788 49.237 17.0161 49.5567C18.309 49.8903 19.7548 49.7235 20.0189 49.3204C20.3109 48.9033 17.1134 46.0256 17.1134 46.0256Z" fill="#F4CFC1"/>
<path d="M23.411 54.8533C23.411 54.8533 30.0978 62.9721 40.6355 63.0972C51.1871 63.2223 73.7361 62.5828 73.7361 62.5828V48.6948C73.7361 48.6948 44.1805 46.1924 40.5799 46.0256C36.9793 45.8588 28.6381 51.1276 28.6381 51.1276L23.411 54.8533Z" fill="#DD684E"/>
<path d="M73.7361 48.6948L142.982 49.2092V61.3317L73.7361 62.5829V48.6948Z" fill="#AAABAC"/>
<path opacity="0.37" d="M141.258 49.1951V58.9959L73.7361 60.2193V62.5826L142.982 61.3314V49.2089L141.258 49.1951Z" fill="#F4CEBA"/>
<path d="M68.8982 47.9025C68.8982 47.9025 75.0706 44.0795 75.154 43.0507C75.2374 42.022 72.9297 36.2388 72.0261 35.7244C71.1225 35.21 67.1326 41.1184 66.4931 40.4233C65.8536 39.7143 66.3541 37.5317 65.2697 37.0173C64.1854 36.5029 65.4087 41.4242 64.4078 43.009C63.4069 44.5799 68.8982 47.9025 68.8982 47.9025Z" fill="#F4CFC1"/>
<path d="M27.8874 55.6319C26.7613 58.8155 47.2667 65.3633 54.3011 64.2512C61.3355 63.139 71.9566 47.4576 71.9566 47.4576L63.5737 41.021C63.5737 41.021 54.9823 54.0054 52.758 54.5893C50.5197 55.1593 31.6687 44.9552 27.8874 55.6319Z" fill="#FD7253"/>
<path opacity="0.37" d="M54.3011 61.6515C48.1703 62.6246 31.8077 57.7728 28.4573 54.3946C28.2488 54.77 28.0542 55.1732 27.8874 55.618C26.7613 58.8016 47.2667 65.3494 54.3011 64.2372C61.3355 63.125 71.9705 47.4437 71.9705 47.4437L70.7749 46.5261C67.7999 50.6133 59.9036 60.7756 54.3011 61.6515Z" fill="#F4CEBA"/>
<path d="M186.564 4.36159C185.258 3.98623 183.728 6.09931 183.784 8.99092C184.076 10.965 184.131 10.6175 184.131 10.6175L183.27 13.8566C183.27 13.8566 184.479 21.0439 184.771 21.6139C185.063 22.1978 186.912 22.0727 186.912 22.0727L186.564 4.36159Z" fill="#F4CFC1"/>
<path d="M178.793 96.1699C178.793 96.1699 171.453 96.3507 170.48 98.6723C169.52 100.994 183.075 106.902 186.509 105.304C189.942 103.705 187.801 98.7418 187.801 98.7418L178.793 96.1699Z" fill="#00A7C5"/>
<path d="M170.438 55.9932L178.376 98.0466C178.376 98.0466 184.159 102.787 188.233 101.661C192.306 100.535 180.253 58.6901 180.253 58.6901L170.438 55.9932Z" fill="#FD7253"/>
<path d="M148.139 44.7467C147.458 44.0516 145.609 43.2453 146.123 42.5363C147.847 40.1173 157.092 41.577 157.384 41.0071C157.495 40.7985 156.856 40.7985 155.966 39.5752C154.937 38.1711 155.34 36.1136 155.869 37.2257C156.397 38.3379 156.939 38.7549 158.329 39.2276C159.136 39.5057 160.804 40.0756 161.805 41.3963C162.458 42.2443 162.695 44.2184 163.112 44.8718C163.153 44.9274 163.181 44.983 163.223 45.0386L160.665 46.6652C160.595 46.5401 160.526 46.4288 160.47 46.3037C157.662 47.1378 151.976 48.7087 148.139 44.7467Z" fill="#F4CFC1"/>
<path d="M155.076 99.4927C155.076 99.4927 147.986 97.5464 146.402 99.4927C144.803 101.439 156.091 111.004 159.831 110.475C163.584 109.947 162.959 104.567 162.959 104.567L155.076 99.4927Z" fill="#00A7C5"/>
<path d="M165.892 66.9897L200.091 64.543L215.828 78.9732L174.734 80.7944L164.46 67.5041L165.892 66.9897Z" fill="#F57E20"/>
<path d="M178.515 60.4974C178.515 60.4974 162.75 52.8791 159.914 55.8959C157.078 58.9126 157.968 64.4039 159.914 67.5874C161.861 70.771 175.929 78.2224 180.322 79.0982C184.715 79.988 205.263 79.279 206.681 78.3893C208.099 77.4995 211.032 63.1388 211.032 63.1388L178.515 60.4974Z" fill="#FD7253"/>
<path d="M187.732 24.5888C187.732 24.5888 182.408 24.8112 180.99 27.6333C179.572 30.4693 174.789 60.5393 175.86 63.556C176.916 66.5727 201.37 71.1743 208.098 68.3383C214.827 65.5023 210.295 28.1894 208.877 26.2431C207.459 24.2969 201.189 23.8798 187.732 24.5888Z" fill="#00A7C5"/>
<path d="M193.307 0.0378424C190.471 -0.309707 183.951 1.7478 184.493 5.75157C184.618 6.72471 186.912 5.97399 186.397 7.65613C185.841 9.44948 186.106 10.1585 186.537 13.203C187.885 22.5868 185.299 41.1459 187.426 42.9254C189.553 44.6909 201.773 42.6751 203.719 41.4379C205.666 40.2006 202.329 18.4857 202.148 15.469C201.968 12.4523 205.513 1.53925 193.307 0.0378424Z" fill="#4F3F38"/>
<path d="M163.376 40.6316L178.084 50.8356L176.666 64.5429L156.828 47.7911L163.376 40.6316Z" fill="#00A7C5"/>
<path d="M158.371 58.8708L153.366 101.744C153.366 101.744 158.149 107.611 162.222 106.471C166.295 105.345 166.295 68.3798 166.295 68.3798L158.371 58.8708Z" fill="#FD7253"/>
<path opacity="0.37" d="M164.21 65.9331C164.182 71.1741 163.862 102.231 160.137 103.26C157.815 103.899 155.257 102.273 153.492 100.744L153.366 101.8C153.366 101.8 158.149 107.667 162.222 106.527C166.295 105.401 166.295 68.4355 166.295 68.4355L164.21 65.9331Z" fill="#F4CEBA"/>
<path d="M195.67 72.9121V104.817C195.67 104.817 195.851 106.986 197.978 106.986C200.105 106.986 200.105 104.622 200.105 104.622V74.775L195.67 72.9121Z" fill="#225F6C"/>
<path d="M180.586 86.3132V118.218C180.586 118.218 180.767 120.387 182.894 120.387C185.021 120.387 185.021 118.024 185.021 118.024V88.1761L180.586 86.3132Z" fill="#225F6C"/>
<path d="M214.41 85.4377V117.343C214.41 117.343 214.591 119.511 216.718 119.511C218.845 119.511 218.845 117.148 218.845 117.148V87.3006L214.41 85.4377Z" fill="#225F6C"/>
<path d="M181.643 38.2821C179.891 39.8808 177.75 84.3254 180.586 87.6896C183.422 91.0539 216.898 90.3449 219.206 87.6896C221.514 85.0344 221.681 41.4795 219.206 38.2821C216.718 35.0846 185.716 34.5702 181.643 38.2821Z" fill="#CBCCCE"/>
<path opacity="0.37" d="M219.206 38.2683C218.414 37.2395 214.646 36.4888 209.781 36.0718C211.407 46.3592 211.032 80.3912 209.002 82.7267C207.403 84.5757 190.721 85.4793 179.752 84.7286C179.961 86.23 180.239 87.2727 180.586 87.6898C183.422 91.054 216.898 90.345 219.206 87.6898C221.514 85.0345 221.681 41.4657 219.206 38.2683Z" fill="#F4CEBA"/>
<path d="M163.57 74.9417V106.847C163.57 106.847 163.751 109.015 165.878 109.015C168.005 109.015 168.005 106.652 168.005 106.652V76.8045L163.57 74.9417Z" fill="#225F6C"/>
<path d="M180.586 76.6236C180.586 76.6236 166.768 64.3204 164.46 67.5039C162.152 70.6875 163.042 72.4669 163.57 74.9415C164.099 77.416 180.573 87.6896 180.573 87.6896V76.6236H180.586Z" fill="#CBCCCE"/>
</svg>
